<svg width="381" height="229" viewBox="0 0 381 229" fill="none" xmlns="http://www.w3.org/2000/svg">
<rect y="150" width="381" height="79" fill="white"/>
<path d="M14.2912 194V180.909H22.6776V182.897H16.6626V186.451H22.1023V188.439H16.6626V194H14.2912ZM24.5952 194V184.182H26.8388V185.818H26.9411C27.12 185.251 27.4268 184.815 27.8615 184.508C28.3004 184.197 28.8011 184.041 29.3636 184.041C29.4915 184.041 29.6342 184.048 29.7919 184.06C29.9538 184.069 30.0881 184.084 30.1946 184.105V186.234C30.0966 186.2 29.9411 186.17 29.728 186.144C29.5192 186.114 29.3168 186.099 29.1207 186.099C28.6989 186.099 28.3196 186.191 27.983 186.374C27.6506 186.553 27.3885 186.803 27.1967 187.122C27.005 187.442 26.9091 187.81 26.9091 188.228V194H24.5952ZM35.6742 194.192C34.6898 194.192 33.8397 193.987 33.1238 193.578C32.4121 193.165 31.8645 192.581 31.481 191.827C31.0975 191.068 30.9057 190.175 30.9057 189.148C30.9057 188.138 31.0975 187.252 31.481 186.489C31.8688 185.722 32.41 185.126 33.1046 184.7C33.7992 184.269 34.6152 184.054 35.5527 184.054C36.1578 184.054 36.7289 184.152 37.2658 184.348C37.807 184.54 38.2843 184.838 38.6976 185.243C39.1152 185.648 39.4434 186.163 39.682 186.79C39.9206 187.412 40.04 188.153 40.04 189.014V189.724H31.9924V188.164H37.8219C37.8176 187.721 37.7218 187.327 37.5343 186.982C37.3468 186.632 37.0847 186.357 36.748 186.157C36.4157 185.957 36.0279 185.857 35.5847 185.857C35.1117 185.857 34.6962 185.972 34.3382 186.202C33.9803 186.428 33.7012 186.726 33.5009 187.097C33.3049 187.463 33.2047 187.866 33.2005 188.305V189.666C33.2005 190.237 33.3049 190.727 33.5137 191.136C33.7225 191.541 34.0144 191.852 34.3894 192.07C34.7644 192.283 35.2033 192.389 35.7061 192.389C36.0428 192.389 36.3475 192.342 36.6202 192.249C36.8929 192.151 37.1294 192.008 37.3297 191.82C37.53 191.633 37.6813 191.401 37.7836 191.124L39.9441 191.366C39.8077 191.937 39.5478 192.436 39.1642 192.862C38.785 193.284 38.2992 193.612 37.7069 193.847C37.1145 194.077 36.437 194.192 35.6742 194.192ZM48.5494 197.682V192.453H48.4535C48.3342 192.692 48.1616 192.945 47.9357 193.214C47.7099 193.478 47.4116 193.704 47.0408 193.891C46.6701 194.079 46.2035 194.173 45.641 194.173C44.8697 194.173 44.1793 193.974 43.57 193.578C42.9606 193.182 42.479 192.607 42.1254 191.852C41.7717 191.098 41.5948 190.182 41.5948 189.104C41.5948 188.013 41.7738 187.092 42.1317 186.342C42.494 185.588 42.9819 185.019 43.5955 184.636C44.2092 184.248 44.8931 184.054 45.6474 184.054C46.2227 184.054 46.6957 184.152 47.0664 184.348C47.4371 184.54 47.7312 184.772 47.9485 185.045C48.1658 185.313 48.3342 185.567 48.4535 185.805H48.5941V184.182H50.8697V197.682H48.5494ZM46.2866 192.274C46.7766 192.274 47.1942 192.142 47.5394 191.878C47.8846 191.609 48.1467 191.237 48.3256 190.759C48.5046 190.282 48.5941 189.726 48.5941 189.091C48.5941 188.456 48.5046 187.904 48.3256 187.435C48.1509 186.967 47.891 186.602 47.5458 186.342C47.2049 186.082 46.7852 185.952 46.2866 185.952C45.771 185.952 45.3406 186.087 44.9954 186.355C44.6502 186.624 44.3903 186.994 44.2156 187.467C44.0408 187.94 43.9535 188.482 43.9535 189.091C43.9535 189.705 44.0408 190.252 44.2156 190.734C44.3945 191.211 44.6566 191.588 45.0018 191.865C45.3512 192.138 45.7795 192.274 46.2866 192.274ZM59.5053 189.871V184.182H61.8192V194H59.5756V192.255H59.4734C59.2518 192.805 58.8874 193.254 58.3803 193.604C57.8775 193.953 57.2575 194.128 56.5202 194.128C55.8768 194.128 55.3079 193.985 54.8136 193.7C54.3235 193.41 53.94 192.99 53.663 192.44C53.386 191.886 53.2475 191.217 53.2475 190.433V184.182H55.5614V190.075C55.5614 190.697 55.7319 191.192 56.0728 191.558C56.4137 191.925 56.8612 192.108 57.4151 192.108C57.756 192.108 58.0863 192.025 58.4059 191.859C58.7255 191.692 58.9876 191.445 59.1921 191.117C59.4009 190.785 59.5053 190.369 59.5053 189.871ZM68.5453 194.192C67.5609 194.192 66.7108 193.987 65.9949 193.578C65.2832 193.165 64.7356 192.581 64.3521 191.827C63.9686 191.068 63.7768 190.175 63.7768 189.148C63.7768 188.138 63.9686 187.252 64.3521 186.489C64.7399 185.722 65.2811 185.126 65.9757 184.7C66.6703 184.269 67.4863 184.054 68.4238 184.054C69.0289 184.054 69.6 184.152 70.1369 184.348C70.6781 184.54 71.1554 184.838 71.5687 185.243C71.9863 185.648 72.3145 186.163 72.5531 186.79C72.7917 187.412 72.911 188.153 72.911 189.014V189.724H64.8635V188.164H70.693C70.6887 187.721 70.5929 187.327 70.4054 186.982C70.2179 186.632 69.9558 186.357 69.6191 186.157C69.2868 185.957 68.899 185.857 68.4558 185.857C67.9828 185.857 67.5673 185.972 67.2093 186.202C66.8514 186.428 66.5723 186.726 66.372 187.097C66.176 187.463 66.0758 187.866 66.0716 188.305V189.666C66.0716 190.237 66.176 190.727 66.3848 191.136C66.5936 191.541 66.8855 191.852 67.2605 192.07C67.6355 192.283 68.0744 192.389 68.5772 192.389C68.9139 192.389 69.2186 192.342 69.4913 192.249C69.764 192.151 70.0005 192.008 70.2008 191.82C70.4011 191.633 70.5524 191.401 70.6547 191.124L72.8152 191.366C72.6788 191.937 72.4189 192.436 72.0353 192.862C71.6561 193.284 71.1703 193.612 70.5779 193.847C69.9856 194.077 69.3081 194.192 68.5453 194.192ZM77.1825 188.247V194H74.8686V184.182H77.0803V185.85H77.1953C77.4212 185.3 77.7813 184.864 78.2756 184.54C78.7741 184.216 79.3899 184.054 80.1229 184.054C80.8004 184.054 81.3906 184.199 81.8935 184.489C82.4006 184.778 82.7926 185.198 83.0696 185.748C83.3509 186.298 83.4893 186.964 83.4851 187.749V194H81.1712V188.107C81.1712 187.45 81.0007 186.937 80.6598 186.566C80.3232 186.195 79.8565 186.01 79.2599 186.01C78.8551 186.01 78.495 186.099 78.1797 186.278C77.8686 186.453 77.6236 186.707 77.4446 187.039C77.2699 187.371 77.1825 187.774 77.1825 188.247ZM90.7401 184.182V185.972H85.0959V184.182H90.7401ZM86.4893 181.83H88.8033V191.047C88.8033 191.358 88.8501 191.597 88.9439 191.763C89.0419 191.925 89.1697 192.036 89.3274 192.095C89.4851 192.155 89.6598 192.185 89.8516 192.185C89.9964 192.185 90.1286 192.174 90.2479 192.153C90.3714 192.131 90.4652 192.112 90.5291 192.095L90.919 193.904C90.7955 193.947 90.6186 193.994 90.3885 194.045C90.1626 194.096 89.8857 194.126 89.5575 194.134C88.978 194.151 88.456 194.064 87.9915 193.872C87.527 193.676 87.1584 193.374 86.8857 192.964C86.6172 192.555 86.4851 192.044 86.4893 191.43V181.83ZM95.2001 180.909V194H92.8862V180.909H95.2001ZM99.0178 197.682C98.7024 197.682 98.4105 197.656 98.142 197.605C97.8778 197.558 97.6669 197.503 97.5092 197.439L98.0462 195.636C98.3828 195.734 98.6832 195.781 98.9474 195.777C99.2116 195.773 99.4439 195.69 99.6442 195.528C99.8487 195.37 100.021 195.106 100.162 194.735L100.36 194.205L96.7997 184.182H99.2543L101.517 191.597H101.619L103.888 184.182H106.349L102.418 195.189C102.235 195.709 101.992 196.154 101.69 196.525C101.387 196.9 101.016 197.185 100.577 197.381C100.143 197.582 99.6229 197.682 99.0178 197.682ZM114.199 194H111.668L116.276 180.909H119.204L123.819 194H121.288L117.791 183.594H117.689L114.199 194ZM114.282 188.867H121.185V190.772H114.282V188.867ZM133.043 186.777L130.933 187.007C130.874 186.794 130.769 186.594 130.62 186.406C130.475 186.219 130.279 186.067 130.032 185.952C129.785 185.837 129.482 185.78 129.124 185.78C128.643 185.78 128.238 185.884 127.91 186.093C127.586 186.302 127.426 186.572 127.43 186.905C127.426 187.19 127.531 187.423 127.744 187.602C127.961 187.781 128.319 187.928 128.817 188.043L130.492 188.401C131.421 188.601 132.112 188.918 132.563 189.353C133.019 189.788 133.249 190.357 133.254 191.06C133.249 191.678 133.068 192.223 132.71 192.696C132.357 193.165 131.864 193.531 131.234 193.795C130.603 194.06 129.879 194.192 129.06 194.192C127.859 194.192 126.891 193.94 126.158 193.438C125.425 192.93 124.989 192.225 124.848 191.322L127.104 191.104C127.207 191.548 127.424 191.882 127.756 192.108C128.089 192.334 128.521 192.447 129.054 192.447C129.604 192.447 130.045 192.334 130.377 192.108C130.714 191.882 130.882 191.603 130.882 191.271C130.882 190.989 130.773 190.757 130.556 190.574C130.343 190.391 130.011 190.25 129.559 190.152L127.884 189.8C126.942 189.604 126.246 189.274 125.794 188.81C125.342 188.341 125.119 187.749 125.123 187.033C125.119 186.428 125.283 185.903 125.615 185.46C125.952 185.013 126.418 184.668 127.015 184.425C127.616 184.178 128.308 184.054 129.092 184.054C130.243 184.054 131.148 184.299 131.809 184.789C132.474 185.279 132.885 185.942 133.043 186.777ZM137.271 190.919L137.265 188.126H137.635L141.164 184.182H143.868L139.527 189.014H139.048L137.271 190.919ZM135.162 194V180.909H137.475V194H135.162ZM141.324 194L138.127 189.532L139.687 187.902L144.091 194H141.324ZM149.352 194.192C148.368 194.192 147.517 193.987 146.801 193.578C146.09 193.165 145.542 192.581 145.159 191.827C144.775 191.068 144.583 190.175 144.583 189.148C144.583 188.138 144.775 187.252 145.159 186.489C145.547 185.722 146.088 185.126 146.782 184.7C147.477 184.269 148.293 184.054 149.23 184.054C149.836 184.054 150.407 184.152 150.944 184.348C151.485 184.54 151.962 184.838 152.375 185.243C152.793 185.648 153.121 186.163 153.36 186.79C153.598 187.412 153.718 188.153 153.718 189.014V189.724H145.67V188.164H151.5C151.495 187.721 151.4 187.327 151.212 186.982C151.025 186.632 150.762 186.357 150.426 186.157C150.093 185.957 149.706 185.857 149.262 185.857C148.789 185.857 148.374 185.972 148.016 186.202C147.658 186.428 147.379 186.726 147.179 187.097C146.983 187.463 146.882 187.866 146.878 188.305V189.666C146.878 190.237 146.983 190.727 147.191 191.136C147.4 191.541 147.692 191.852 148.067 192.07C148.442 192.283 148.881 192.389 149.384 192.389C149.721 192.389 150.025 192.342 150.298 192.249C150.571 192.151 150.807 192.008 151.007 191.82C151.208 191.633 151.359 191.401 151.461 191.124L153.622 191.366C153.485 191.937 153.225 192.436 152.842 192.862C152.463 193.284 151.977 193.612 151.385 193.847C150.792 194.077 150.115 194.192 149.352 194.192ZM159.319 194.173C158.547 194.173 157.857 193.974 157.248 193.578C156.638 193.182 156.157 192.607 155.803 191.852C155.449 191.098 155.273 190.182 155.273 189.104C155.273 188.013 155.452 187.092 155.809 186.342C156.172 185.588 156.66 185.019 157.273 184.636C157.887 184.248 158.571 184.054 159.325 184.054C159.9 184.054 160.373 184.152 160.744 184.348C161.115 184.54 161.409 184.772 161.626 185.045C161.844 185.313 162.012 185.567 162.131 185.805H162.227V180.909H164.547V194H162.272V192.453H162.131C162.012 192.692 161.839 192.945 161.613 193.214C161.388 193.478 161.089 193.704 160.719 193.891C160.348 194.079 159.881 194.173 159.319 194.173ZM159.964 192.274C160.454 192.274 160.872 192.142 161.217 191.878C161.562 191.609 161.824 191.237 162.003 190.759C162.182 190.282 162.272 189.726 162.272 189.091C162.272 188.456 162.182 187.904 162.003 187.435C161.829 186.967 161.569 186.602 161.224 186.342C160.883 186.082 160.463 185.952 159.964 185.952C159.449 185.952 159.018 186.087 158.673 186.355C158.328 186.624 158.068 186.994 157.893 187.467C157.719 187.94 157.631 188.482 157.631 189.091C157.631 189.705 157.719 190.252 157.893 190.734C158.072 191.211 158.334 191.588 158.68 191.865C159.029 192.138 159.457 192.274 159.964 192.274ZM176.457 189.602H178.605L179.877 191.251L180.785 192.325L182.964 195.125H180.663L179.18 193.246L178.548 192.351L176.457 189.602ZM183.278 187.455C183.278 188.865 183.013 190.073 182.485 191.079C181.961 192.08 181.245 192.847 180.337 193.38C179.434 193.913 178.409 194.179 177.263 194.179C176.116 194.179 175.089 193.913 174.182 193.38C173.278 192.843 172.563 192.074 172.034 191.072C171.51 190.067 171.248 188.861 171.248 187.455C171.248 186.044 171.51 184.838 172.034 183.837C172.563 182.831 173.278 182.062 174.182 181.529C175.089 180.996 176.116 180.73 177.263 180.73C178.409 180.73 179.434 180.996 180.337 181.529C181.245 182.062 181.961 182.831 182.485 183.837C183.013 184.838 183.278 186.044 183.278 187.455ZM180.893 187.455C180.893 186.462 180.738 185.624 180.427 184.942C180.12 184.256 179.694 183.739 179.148 183.389C178.603 183.036 177.974 182.859 177.263 182.859C176.551 182.859 175.923 183.036 175.377 183.389C174.832 183.739 174.403 184.256 174.092 184.942C173.786 185.624 173.632 186.462 173.632 187.455C173.632 188.447 173.786 189.287 174.092 189.973C174.403 190.655 174.832 191.173 175.377 191.526C175.923 191.876 176.551 192.05 177.263 192.05C177.974 192.05 178.603 191.876 179.148 191.526C179.694 191.173 180.12 190.655 180.427 189.973C180.738 189.287 180.893 188.447 180.893 187.455ZM191.693 189.871V184.182H194.007V194H191.763V192.255H191.661C191.439 192.805 191.075 193.254 190.568 193.604C190.065 193.953 189.445 194.128 188.708 194.128C188.064 194.128 187.495 193.985 187.001 193.7C186.511 193.41 186.127 192.99 185.85 192.44C185.574 191.886 185.435 191.217 185.435 190.433V184.182H187.749V190.075C187.749 190.697 187.919 191.192 188.26 191.558C188.601 191.925 189.049 192.108 189.603 192.108C189.944 192.108 190.274 192.025 190.593 191.859C190.913 191.692 191.175 191.445 191.38 191.117C191.588 190.785 191.693 190.369 191.693 189.871ZM200.733 194.192C199.748 194.192 198.898 193.987 198.182 193.578C197.471 193.165 196.923 192.581 196.54 191.827C196.156 191.068 195.964 190.175 195.964 189.148C195.964 188.138 196.156 187.252 196.54 186.489C196.927 185.722 197.469 185.126 198.163 184.7C198.858 184.269 199.674 184.054 200.611 184.054C201.216 184.054 201.787 184.152 202.324 184.348C202.866 184.54 203.343 184.838 203.756 185.243C204.174 185.648 204.502 186.163 204.741 186.79C204.979 187.412 205.099 188.153 205.099 189.014V189.724H197.051V188.164H202.881C202.876 187.721 202.78 187.327 202.593 186.982C202.405 186.632 202.143 186.357 201.807 186.157C201.474 185.957 201.086 185.857 200.643 185.857C200.17 185.857 199.755 185.972 199.397 186.202C199.039 186.428 198.76 186.726 198.559 187.097C198.363 187.463 198.263 187.866 198.259 188.305V189.666C198.259 190.237 198.363 190.727 198.572 191.136C198.781 191.541 199.073 191.852 199.448 192.07C199.823 192.283 200.262 192.389 200.765 192.389C201.101 192.389 201.406 192.342 201.679 192.249C201.952 192.151 202.188 192.008 202.388 191.82C202.589 191.633 202.74 191.401 202.842 191.124L205.003 191.366C204.866 191.937 204.606 192.436 204.223 192.862C203.844 193.284 203.358 193.612 202.765 193.847C202.173 194.077 201.496 194.192 200.733 194.192ZM214.816 186.777L212.707 187.007C212.647 186.794 212.543 186.594 212.393 186.406C212.249 186.219 212.053 186.067 211.805 185.952C211.558 185.837 211.256 185.78 210.898 185.78C210.416 185.78 210.011 185.884 209.683 186.093C209.359 186.302 209.2 186.572 209.204 186.905C209.2 187.19 209.304 187.423 209.517 187.602C209.734 187.781 210.092 187.928 210.591 188.043L212.266 188.401C213.195 188.601 213.885 188.918 214.337 189.353C214.793 189.788 215.023 190.357 215.027 191.06C215.023 191.678 214.842 192.223 214.484 192.696C214.13 193.165 213.638 193.531 213.007 193.795C212.376 194.06 211.652 194.192 210.834 194.192C209.632 194.192 208.665 193.94 207.932 193.438C207.199 192.93 206.762 192.225 206.621 191.322L208.878 191.104C208.98 191.548 209.197 191.882 209.53 192.108C209.862 192.334 210.295 192.447 210.827 192.447C211.377 192.447 211.818 192.334 212.151 192.108C212.487 191.882 212.656 191.603 212.656 191.271C212.656 190.989 212.547 190.757 212.33 190.574C212.116 190.391 211.784 190.25 211.332 190.152L209.658 189.8C208.716 189.604 208.019 189.274 207.567 188.81C207.116 188.341 206.892 187.749 206.896 187.033C206.892 186.428 207.056 185.903 207.388 185.46C207.725 185.013 208.192 184.668 208.788 184.425C209.389 184.178 210.082 184.054 210.866 184.054C212.016 184.054 212.922 184.299 213.582 184.789C214.247 185.279 214.658 185.942 214.816 186.777ZM221.838 184.182V185.972H216.194V184.182H221.838ZM217.587 181.83H219.901V191.047C219.901 191.358 219.948 191.597 220.042 191.763C220.14 191.925 220.267 192.036 220.425 192.095C220.583 192.155 220.757 192.185 220.949 192.185C221.094 192.185 221.226 192.174 221.346 192.153C221.469 192.131 221.563 192.112 221.627 192.095L222.017 193.904C221.893 193.947 221.716 193.994 221.486 194.045C221.26 194.096 220.983 194.126 220.655 194.134C220.076 194.151 219.554 194.064 219.089 193.872C218.625 193.676 218.256 193.374 217.983 192.964C217.715 192.555 217.583 192.044 217.587 191.43V181.83ZM223.773 194V184.182H226.087V194H223.773ZM224.936 182.788C224.57 182.788 224.254 182.667 223.99 182.424C223.726 182.177 223.594 181.881 223.594 181.536C223.594 181.186 223.726 180.89 223.99 180.647C224.254 180.4 224.57 180.276 224.936 180.276C225.307 180.276 225.622 180.4 225.882 180.647C226.146 180.89 226.279 181.186 226.279 181.536C226.279 181.881 226.146 182.177 225.882 182.424C225.622 182.667 225.307 182.788 224.936 182.788ZM232.749 194.192C231.79 194.192 230.959 193.981 230.256 193.559C229.553 193.137 229.007 192.547 228.62 191.788C228.236 191.03 228.044 190.143 228.044 189.129C228.044 188.115 228.236 187.227 228.62 186.464C229.007 185.701 229.553 185.109 230.256 184.687C230.959 184.265 231.79 184.054 232.749 184.054C233.708 184.054 234.539 184.265 235.242 184.687C235.945 185.109 236.488 185.701 236.872 186.464C237.26 187.227 237.453 188.115 237.453 189.129C237.453 190.143 237.26 191.03 236.872 191.788C236.488 192.547 235.945 193.137 235.242 193.559C234.539 193.981 233.708 194.192 232.749 194.192ZM232.762 192.338C233.282 192.338 233.716 192.195 234.066 191.91C234.415 191.62 234.675 191.232 234.846 190.746C235.02 190.261 235.108 189.719 235.108 189.123C235.108 188.522 235.02 187.979 234.846 187.493C234.675 187.003 234.415 186.613 234.066 186.323C233.716 186.033 233.282 185.888 232.762 185.888C232.229 185.888 231.786 186.033 231.432 186.323C231.083 186.613 230.821 187.003 230.646 187.493C230.475 187.979 230.39 188.522 230.39 189.123C230.39 189.719 230.475 190.261 230.646 190.746C230.821 191.232 231.083 191.62 231.432 191.91C231.786 192.195 232.229 192.338 232.762 192.338ZM241.731 188.247V194H239.417V184.182H241.629V185.85H241.744C241.97 185.3 242.33 184.864 242.824 184.54C243.323 184.216 243.939 184.054 244.672 184.054C245.349 184.054 245.939 184.199 246.442 184.489C246.949 184.778 247.341 185.198 247.618 185.748C247.9 186.298 248.038 186.964 248.034 187.749V194H245.72V188.107C245.72 187.45 245.55 186.937 245.209 186.566C244.872 186.195 244.405 186.01 243.809 186.01C243.404 186.01 243.044 186.099 242.729 186.278C242.417 186.453 242.172 186.707 241.993 187.039C241.819 187.371 241.731 187.774 241.731 188.247ZM258.146 186.777L256.037 187.007C255.977 186.794 255.873 186.594 255.724 186.406C255.579 186.219 255.383 186.067 255.135 185.952C254.888 185.837 254.586 185.78 254.228 185.78C253.746 185.78 253.341 185.884 253.013 186.093C252.689 186.302 252.53 186.572 252.534 186.905C252.53 187.19 252.634 187.423 252.847 187.602C253.064 187.781 253.422 187.928 253.921 188.043L255.596 188.401C256.525 188.601 257.215 188.918 257.667 189.353C258.123 189.788 258.353 190.357 258.357 191.06C258.353 191.678 258.172 192.223 257.814 192.696C257.46 193.165 256.968 193.531 256.337 193.795C255.706 194.06 254.982 194.192 254.164 194.192C252.962 194.192 251.995 193.94 251.262 193.438C250.529 192.93 250.092 192.225 249.952 191.322L252.208 191.104C252.31 191.548 252.528 191.882 252.86 192.108C253.192 192.334 253.625 192.447 254.157 192.447C254.707 192.447 255.148 192.334 255.481 192.108C255.817 191.882 255.986 191.603 255.986 191.271C255.986 190.989 255.877 190.757 255.66 190.574C255.447 190.391 255.114 190.25 254.662 190.152L252.988 189.8C252.046 189.604 251.349 189.274 250.898 188.81C250.446 188.341 250.222 187.749 250.226 187.033C250.222 186.428 250.386 185.903 250.719 185.46C251.055 185.013 251.522 184.668 252.118 184.425C252.719 184.178 253.412 184.054 254.196 184.054C255.346 184.054 256.252 184.299 256.912 184.789C257.577 185.279 257.988 185.942 258.146 186.777Z" fill="#203E54"/>
<rect y="11" width="380" height="140" fill="#CA85B0"/>
<circle cx="309" cy="81" r="50" fill="white"/>
<path d="M310.083 57C292.742 57 280.928 74.5705 287.47 90.6297L290.267 97.4951C290.518 98.1095 290.335 98.8152 289.817 99.2306L283.903 103.98C283.407 104.379 283.216 105.047 283.427 105.648C283.638 106.248 284.206 106.65 284.842 106.65H308.303C322.771 106.65 334.5 94.9212 334.5 80.4529C334.5 67.5002 324 57 311.047 57H310.083Z" fill="#CA85B0"/>
<path d="M306.29 86.0142V85.7557C306.296 84.5559 306.409 83.6013 306.628 82.892C306.853 82.1828 307.171 81.6127 307.582 81.1818C307.993 80.7443 308.494 80.3433 309.084 79.9787C309.488 79.7268 309.849 79.4517 310.168 79.1534C310.492 78.8485 310.748 78.5104 310.933 78.1392C311.119 77.7614 311.212 77.3404 311.212 76.8764C311.212 76.3527 311.089 75.8987 310.844 75.5142C310.598 75.1297 310.267 74.8314 309.849 74.6193C309.438 74.4072 308.978 74.3011 308.467 74.3011C307.997 74.3011 307.549 74.4039 307.125 74.6094C306.707 74.8082 306.359 75.1132 306.081 75.5241C305.809 75.9285 305.657 76.4422 305.624 77.0653H302.084C302.117 75.8059 302.422 74.7519 302.999 73.9034C303.582 73.0549 304.351 72.4186 305.305 71.9943C306.267 71.5701 307.327 71.358 308.487 71.358C309.753 71.358 310.867 71.58 311.828 72.0241C312.796 72.4683 313.548 73.1013 314.085 73.9233C314.629 74.7386 314.901 75.7064 314.901 76.8267C314.901 77.5824 314.778 78.2585 314.533 78.8551C314.294 79.4517 313.953 79.982 313.509 80.446C313.064 80.91 312.537 81.3243 311.928 81.6889C311.391 82.0204 310.95 82.3651 310.605 82.723C310.267 83.081 310.015 83.5019 309.849 83.9858C309.69 84.4631 309.607 85.053 309.601 85.7557V86.0142H306.29ZM308.02 92.2188C307.423 92.2188 306.91 92.0066 306.479 91.5824C306.048 91.1581 305.832 90.6411 305.832 90.0312C305.832 89.4347 306.048 88.9242 306.479 88.5C306.91 88.0758 307.423 87.8636 308.02 87.8636C308.61 87.8636 309.12 88.0758 309.551 88.5C309.989 88.9242 310.207 89.4347 310.207 90.0312C310.207 90.4356 310.105 90.8035 309.899 91.1349C309.7 91.4664 309.435 91.7315 309.104 91.9304C308.779 92.1226 308.418 92.2188 308.02 92.2188Z" fill="white"/>
<rect width="156" height="36" fill="#D0006F"/>
<path d="M32.483 19.0909H34.392L35.5227 20.5568L36.3295 21.5114L38.267 24H36.2216L34.9034 22.3295L34.3409 21.5341L32.483 19.0909ZM38.5455 17.1818C38.5455 18.4356 38.3106 19.5095 37.8409 20.4034C37.375 21.2936 36.7386 21.9754 35.9318 22.4489C35.1288 22.9223 34.2178 23.1591 33.1989 23.1591C32.1799 23.1591 31.267 22.9223 30.4602 22.4489C29.6572 21.9716 29.0208 21.2879 28.5511 20.3977C28.0852 19.5038 27.8523 18.4318 27.8523 17.1818C27.8523 15.928 28.0852 14.8561 28.5511 13.9659C29.0208 13.072 29.6572 12.3883 30.4602 11.9148C31.267 11.4413 32.1799 11.2045 33.1989 11.2045C34.2178 11.2045 35.1288 11.4413 35.9318 11.9148C36.7386 12.3883 37.375 13.072 37.8409 13.9659C38.3106 14.8561 38.5455 15.928 38.5455 17.1818ZM36.4261 17.1818C36.4261 16.2992 36.2879 15.5549 36.0114 14.9489C35.7386 14.339 35.3598 13.8788 34.875 13.5682C34.3902 13.2538 33.8314 13.0966 33.1989 13.0966C32.5663 13.0966 32.0076 13.2538 31.5227 13.5682C31.0379 13.8788 30.6572 14.339 30.3807 14.9489C30.108 15.5549 29.9716 16.2992 29.9716 17.1818C29.9716 18.0644 30.108 18.8106 30.3807 19.4205C30.6572 20.0265 31.0379 20.4867 31.5227 20.8011C32.0076 21.1117 32.5663 21.267 33.1989 21.267C33.8314 21.267 34.3902 21.1117 34.875 20.8011C35.3598 20.4867 35.7386 20.0265 36.0114 19.4205C36.2879 18.8106 36.4261 18.0644 36.4261 17.1818ZM47.8892 11.3636H49.9972V18.9659C49.9972 19.7992 49.8002 20.5322 49.4062 21.1648C49.0161 21.7973 48.4669 22.2917 47.7585 22.6477C47.0502 23 46.2225 23.1761 45.2756 23.1761C44.3248 23.1761 43.4953 23 42.7869 22.6477C42.0786 22.2917 41.5294 21.7973 41.1392 21.1648C40.7491 20.5322 40.554 19.7992 40.554 18.9659V11.3636H42.6619V18.7898C42.6619 19.2746 42.768 19.7064 42.9801 20.0852C43.196 20.464 43.4991 20.7614 43.8892 20.9773C44.2794 21.1894 44.7415 21.2955 45.2756 21.2955C45.8097 21.2955 46.2718 21.1894 46.6619 20.9773C47.0559 20.7614 47.3589 20.464 47.571 20.0852C47.7831 19.7064 47.8892 19.2746 47.8892 18.7898V11.3636ZM54.3963 11.3636V23H52.2884V11.3636H54.3963ZM66.6392 15.2898H64.5142C64.4536 14.9413 64.3419 14.6326 64.179 14.3636C64.0161 14.0909 63.8134 13.8598 63.571 13.6705C63.3286 13.4811 63.0521 13.339 62.7415 13.2443C62.4347 13.1458 62.1032 13.0966 61.7472 13.0966C61.1146 13.0966 60.554 13.2557 60.0653 13.5739C59.5767 13.8883 59.1941 14.3504 58.9176 14.9602C58.6411 15.5663 58.5028 16.3068 58.5028 17.1818C58.5028 18.072 58.6411 18.822 58.9176 19.4318C59.1979 20.0379 59.5805 20.4962 60.0653 20.8068C60.554 21.1136 61.1127 21.267 61.7415 21.267C62.09 21.267 62.4157 21.2216 62.7188 21.1307C63.0256 21.036 63.3002 20.8977 63.5426 20.7159C63.7888 20.5341 63.9953 20.3106 64.1619 20.0455C64.3324 19.7803 64.4498 19.4773 64.5142 19.1364L66.6392 19.1477C66.5597 19.7008 66.3873 20.2197 66.1222 20.7045C65.8608 21.1894 65.518 21.6174 65.0938 21.9886C64.6695 22.3561 64.1733 22.6439 63.6051 22.8523C63.0369 23.0568 62.4063 23.1591 61.7131 23.1591C60.6903 23.1591 59.7775 22.9223 58.9744 22.4489C58.1714 21.9754 57.5388 21.2917 57.0767 20.3977C56.6146 19.5038 56.3835 18.4318 56.3835 17.1818C56.3835 15.928 56.6165 14.8561 57.0824 13.9659C57.5483 13.072 58.1828 12.3883 58.9858 11.9148C59.7888 11.4413 60.6979 11.2045 61.7131 11.2045C62.3608 11.2045 62.9631 11.2955 63.5199 11.4773C64.0767 11.6591 64.5729 11.9261 65.0085 12.2784C65.4441 12.6269 65.8021 13.0549 66.0824 13.5625C66.3665 14.0663 66.5521 14.642 66.6392 15.2898ZM68.5696 23V11.3636H70.6776V16.7102H70.8196L75.3594 11.3636H77.9332L73.4332 16.5852L77.973 23H75.4389L71.9673 18.0114L70.6776 19.5341V23H68.5696ZM83.3665 23V11.3636H85.4744V21.233H90.5994V23H83.3665ZM94.5369 11.3636V23H92.429V11.3636H94.5369ZM106.382 11.3636V23H104.507L99.0241 15.0739H98.9276V23H96.8196V11.3636H98.706L104.183 19.2955H104.286V11.3636H106.382ZM108.679 23V11.3636H110.787V16.7102H110.929L115.469 11.3636H118.043L113.543 16.5852L118.082 23H115.548L112.077 18.0114L110.787 19.5341V23H108.679ZM125.768 14.5625C125.715 14.0663 125.492 13.6799 125.098 13.4034C124.708 13.1269 124.2 12.9886 123.575 12.9886C123.136 12.9886 122.759 13.0549 122.445 13.1875C122.13 13.3201 121.89 13.5 121.723 13.7273C121.556 13.9545 121.471 14.214 121.467 14.5057C121.467 14.7481 121.522 14.9583 121.632 15.1364C121.746 15.3144 121.899 15.4659 122.092 15.5909C122.286 15.7121 122.5 15.8144 122.734 15.8977C122.969 15.9811 123.206 16.0511 123.445 16.108L124.536 16.3807C124.975 16.483 125.397 16.6212 125.803 16.7955C126.212 16.9697 126.577 17.1894 126.899 17.4545C127.225 17.7197 127.482 18.0398 127.672 18.4148C127.861 18.7898 127.956 19.2292 127.956 19.733C127.956 20.4148 127.782 21.0152 127.433 21.5341C127.085 22.0492 126.581 22.4527 125.922 22.7443C125.267 23.0322 124.473 23.1761 123.541 23.1761C122.636 23.1761 121.85 23.036 121.183 22.7557C120.52 22.4754 120.001 22.0663 119.626 21.5284C119.255 20.9905 119.054 20.3352 119.024 19.5625H121.098C121.128 19.9678 121.253 20.3049 121.473 20.5739C121.693 20.8428 121.979 21.0436 122.331 21.1761C122.687 21.3087 123.085 21.375 123.524 21.375C123.982 21.375 124.384 21.3068 124.729 21.1705C125.077 21.0303 125.35 20.8371 125.547 20.5909C125.744 20.3409 125.844 20.0492 125.848 19.7159C125.844 19.4129 125.755 19.1629 125.581 18.9659C125.407 18.7652 125.162 18.5985 124.848 18.4659C124.537 18.3295 124.174 18.2083 123.757 18.1023L122.433 17.7614C121.475 17.5152 120.717 17.142 120.161 16.642C119.607 16.1383 119.331 15.4697 119.331 14.6364C119.331 13.9508 119.517 13.3504 119.888 12.8352C120.263 12.3201 120.772 11.9205 121.416 11.6364C122.06 11.3485 122.789 11.2045 123.604 11.2045C124.429 11.2045 125.153 11.3485 125.774 11.6364C126.399 11.9205 126.89 12.3163 127.246 12.8239C127.602 13.3277 127.786 13.9072 127.797 14.5625H125.768Z" fill="#EAE8E8"/>
</svg>
