<svg width="380" height="674" viewBox="0 0 380 674" fill="none" xmlns="http://www.w3.org/2000/svg">
<rect y="12" width="380" height="140" fill="#3DC4D6"/>
<circle cx="309" cy="82" r="50" fill="white"/>
<path d="M308 60.6875C302.65 60.6875 298.313 65.0247 298.313 70.375C298.313 75.7253 302.65 80.0625 308 80.0625C313.35 80.0625 317.688 75.7253 317.688 70.375C317.688 65.0247 313.35 60.6875 308 60.6875Z" fill="#3DC4D6"/>
<path d="M297.667 85.2292C292.316 85.2292 287.979 89.5664 287.979 94.9167V97.9864C287.979 99.9322 289.389 101.591 291.31 101.905C302.363 103.71 313.637 103.71 324.69 101.905C326.611 101.591 328.021 99.9322 328.021 97.9864V94.9167C328.021 89.5664 323.684 85.2292 318.333 85.2292H317.453C316.976 85.2292 316.503 85.3045 316.05 85.4525L313.814 86.1826C310.036 87.4161 305.964 87.4161 302.186 86.1826L299.951 85.4525C299.497 85.3045 299.024 85.2292 298.547 85.2292H297.667Z" fill="#3DC4D6"/>
<rect width="156" height="36" fill="#D0006F"/>
<path d="M12.642 23H10.392L14.4886 11.3636H17.0909L21.1932 23H18.9432L15.8352 13.75H15.7443L12.642 23ZM12.7159 18.4375H18.8523V20.1307H12.7159V18.4375ZM32.1392 15.2898H30.0142C29.9536 14.9413 29.8419 14.6326 29.679 14.3636C29.5161 14.0909 29.3134 13.8598 29.071 13.6705C28.8286 13.4811 28.5521 13.339 28.2415 13.2443C27.9347 13.1458 27.6032 13.0966 27.2472 13.0966C26.6146 13.0966 26.054 13.2557 25.5653 13.5739C25.0767 13.8883 24.6941 14.3504 24.4176 14.9602C24.1411 15.5663 24.0028 16.3068 24.0028 17.1818C24.0028 18.072 24.1411 18.822 24.4176 19.4318C24.6979 20.0379 25.0805 20.4962 25.5653 20.8068C26.054 21.1136 26.6127 21.267 27.2415 21.267C27.59 21.267 27.9157 21.2216 28.2188 21.1307C28.5256 21.036 28.8002 20.8977 29.0426 20.7159C29.2888 20.5341 29.4953 20.3106 29.6619 20.0455C29.8324 19.7803 29.9498 19.4773 30.0142 19.1364L32.1392 19.1477C32.0597 19.7008 31.8873 20.2197 31.6222 20.7045C31.3608 21.1894 31.018 21.6174 30.5938 21.9886C30.1695 22.3561 29.6733 22.6439 29.1051 22.8523C28.5369 23.0568 27.9063 23.1591 27.2131 23.1591C26.1903 23.1591 25.2775 22.9223 24.4744 22.4489C23.6714 21.9754 23.0388 21.2917 22.5767 20.3977C22.1146 19.5038 21.8835 18.4318 21.8835 17.1818C21.8835 15.928 22.1165 14.8561 22.5824 13.9659C23.0483 13.072 23.6828 12.3883 24.4858 11.9148C25.2888 11.4413 26.1979 11.2045 27.2131 11.2045C27.8608 11.2045 28.4631 11.2955 29.0199 11.4773C29.5767 11.6591 30.0729 11.9261 30.5085 12.2784C30.9441 12.6269 31.3021 13.0549 31.5824 13.5625C31.8665 14.0663 32.0521 14.642 32.1392 15.2898ZM34.0696 23V11.3636H41.6378V13.1307H36.1776V16.2898H41.2457V18.0568H36.1776V21.233H41.6832V23H34.0696ZM43.7884 23V11.3636H48.152C49.0459 11.3636 49.7959 11.5189 50.402 11.8295C51.0118 12.1402 51.4721 12.5758 51.7827 13.1364C52.0971 13.6932 52.2543 14.3428 52.2543 15.0852C52.2543 15.8314 52.0952 16.4792 51.777 17.0284C51.4626 17.5739 50.9986 17.9962 50.3849 18.2955C49.7713 18.5909 49.0175 18.7386 48.1236 18.7386H45.0156V16.9886H47.8395C48.3622 16.9886 48.7902 16.9167 49.1236 16.7727C49.4569 16.625 49.7031 16.411 49.8622 16.1307C50.0251 15.8466 50.1065 15.4981 50.1065 15.0852C50.1065 14.6723 50.0251 14.3201 49.8622 14.0284C49.6993 13.733 49.4512 13.5095 49.1179 13.358C48.7846 13.2027 48.3546 13.125 47.8281 13.125H45.8963V23H43.7884ZM49.7997 17.7273L52.6804 23H50.3281L47.4986 17.7273H49.7997ZM53.6832 13.1307V11.3636H62.9673V13.1307H59.3707V23H57.2798V13.1307H53.6832ZM68.7259 11.3636H71.3054L74.7599 19.7955H74.8963L78.3509 11.3636H80.9304V23H78.9077V15.0057H78.7997L75.5838 22.9659H74.0724L70.8565 14.9886H70.7486V23H68.7259V11.3636ZM83.2259 23V11.3636H90.794V13.1307H85.3338V16.2898H90.402V18.0568H85.3338V21.233H90.8395V23H83.2259ZM92.9446 11.3636H95.5241L98.9787 19.7955H99.1151L102.57 11.3636H105.149V23H103.126V15.0057H103.018L99.8026 22.9659H98.2912L95.0753 14.9886H94.9673V23H92.9446V11.3636ZM107.445 23V11.3636H111.899C112.74 11.3636 113.439 11.4962 113.996 11.7614C114.556 12.0227 114.975 12.3807 115.251 12.8352C115.532 13.2898 115.672 13.8049 115.672 14.3807C115.672 14.8542 115.581 15.2595 115.399 15.5966C115.217 15.9299 114.973 16.2008 114.666 16.4091C114.359 16.6174 114.017 16.767 113.638 16.858V16.9716C114.051 16.9943 114.446 17.1212 114.825 17.3523C115.208 17.5795 115.52 17.9015 115.763 18.3182C116.005 18.7348 116.126 19.2386 116.126 19.8295C116.126 20.4318 115.981 20.9735 115.689 21.4545C115.397 21.9318 114.958 22.3087 114.371 22.5852C113.784 22.8617 113.045 23 112.155 23H107.445ZM109.553 21.2386H111.82C112.585 21.2386 113.136 21.0928 113.473 20.8011C113.814 20.5057 113.984 20.1269 113.984 19.6648C113.984 19.3201 113.899 19.0095 113.729 18.733C113.558 18.4527 113.316 18.233 113.001 18.0739C112.687 17.911 112.312 17.8295 111.876 17.8295H109.553V21.2386ZM109.553 16.3125H111.638C112.001 16.3125 112.329 16.2462 112.621 16.1136C112.912 15.9773 113.142 15.786 113.308 15.5398C113.479 15.2898 113.564 14.9943 113.564 14.6534C113.564 14.2027 113.405 13.8314 113.087 13.5398C112.772 13.2481 112.304 13.1023 111.683 13.1023H109.553V16.3125ZM117.96 23V11.3636H125.528V13.1307H120.068V16.2898H125.136V18.0568H120.068V21.233H125.574V23H117.96ZM127.679 23V11.3636H132.043C132.937 11.3636 133.687 11.5189 134.293 11.8295C134.902 12.1402 135.363 12.5758 135.673 13.1364C135.988 13.6932 136.145 14.3428 136.145 15.0852C136.145 15.8314 135.986 16.4792 135.668 17.0284C135.353 17.5739 134.889 17.9962 134.276 18.2955C133.662 18.5909 132.908 18.7386 132.014 18.7386H128.906V16.9886H131.73C132.253 16.9886 132.681 16.9167 133.014 16.7727C133.348 16.625 133.594 16.411 133.753 16.1307C133.916 15.8466 133.997 15.4981 133.997 15.0852C133.997 14.6723 133.916 14.3201 133.753 14.0284C133.59 13.733 133.342 13.5095 133.009 13.358C132.675 13.2027 132.245 13.125 131.719 13.125H129.787V23H127.679ZM133.69 17.7273L136.571 23H134.219L131.389 17.7273H133.69ZM144.409 14.5625C144.356 14.0663 144.133 13.6799 143.739 13.4034C143.348 13.1269 142.841 12.9886 142.216 12.9886C141.777 12.9886 141.4 13.0549 141.085 13.1875C140.771 13.3201 140.53 13.5 140.364 13.7273C140.197 13.9545 140.112 14.214 140.108 14.5057C140.108 14.7481 140.163 14.9583 140.273 15.1364C140.386 15.3144 140.54 15.4659 140.733 15.5909C140.926 15.7121 141.14 15.8144 141.375 15.8977C141.61 15.9811 141.847 16.0511 142.085 16.108L143.176 16.3807C143.616 16.483 144.038 16.6212 144.443 16.7955C144.852 16.9697 145.218 17.1894 145.54 17.4545C145.866 17.7197 146.123 18.0398 146.312 18.4148C146.502 18.7898 146.597 19.2292 146.597 19.733C146.597 20.4148 146.422 21.0152 146.074 21.5341C145.725 22.0492 145.222 22.4527 144.562 22.7443C143.907 23.0322 143.114 23.1761 142.182 23.1761C141.277 23.1761 140.491 23.036 139.824 22.7557C139.161 22.4754 138.642 22.0663 138.267 21.5284C137.896 20.9905 137.695 20.3352 137.665 19.5625H139.739C139.769 19.9678 139.894 20.3049 140.114 20.5739C140.333 20.8428 140.619 21.0436 140.972 21.1761C141.328 21.3087 141.725 21.375 142.165 21.375C142.623 21.375 143.025 21.3068 143.369 21.1705C143.718 21.0303 143.991 20.8371 144.188 20.5909C144.384 20.3409 144.485 20.0492 144.489 19.7159C144.485 19.4129 144.396 19.1629 144.222 18.9659C144.047 18.7652 143.803 18.5985 143.489 18.4659C143.178 18.3295 142.814 18.2083 142.398 18.1023L141.074 17.7614C140.116 17.5152 139.358 17.142 138.801 16.642C138.248 16.1383 137.972 15.4697 137.972 14.6364C137.972 13.9508 138.157 13.3504 138.528 12.8352C138.903 12.3201 139.413 11.9205 140.057 11.6364C140.701 11.3485 141.43 11.2045 142.244 11.2045C143.07 11.2045 143.794 11.3485 144.415 11.6364C145.04 11.9205 145.53 12.3163 145.886 12.8239C146.242 13.3277 146.426 13.9072 146.438 14.5625H144.409Z" fill="#EAE8E8"/>
<rect y="152" width="380" height="140" fill="white"/>
<rect width="380" height="51" transform="translate(0 163)" fill="white"/>
<circle cx="27.5" cy="188.5" r="22.5" fill="#E7A80D"/>
<path d="M25.8409 197.739V181.648H29.9091V197.739H25.8409ZM19.8295 191.727V187.659H35.9205V191.727H19.8295Z" fill="white"/>
<path d="M67.2912 195.5V182.409H72.3026C73.2486 182.409 74.0348 182.558 74.6612 182.857C75.2919 183.151 75.7628 183.553 76.0739 184.065C76.3892 184.576 76.5469 185.156 76.5469 185.803C76.5469 186.336 76.4446 186.792 76.2401 187.171C76.0355 187.546 75.7607 187.851 75.4155 188.085C75.0703 188.32 74.6847 188.488 74.2585 188.59V188.718C74.723 188.744 75.1683 188.886 75.5945 189.146C76.0249 189.402 76.3764 189.764 76.6491 190.233C76.9219 190.702 77.0582 191.268 77.0582 191.933C77.0582 192.611 76.8942 193.22 76.5661 193.761C76.2379 194.298 75.7436 194.722 75.0831 195.033C74.4226 195.344 73.5916 195.5 72.5902 195.5H67.2912ZM69.6626 193.518H72.2131C73.0739 193.518 73.6939 193.354 74.0732 193.026C74.4567 192.694 74.6484 192.268 74.6484 191.748C74.6484 191.36 74.5526 191.011 74.3608 190.7C74.169 190.384 73.8963 190.137 73.5426 189.958C73.1889 189.775 72.767 189.683 72.277 189.683H69.6626V193.518ZM69.6626 187.977H72.0085C72.4176 187.977 72.7862 187.902 73.1143 187.753C73.4425 187.599 73.7003 187.384 73.8878 187.107C74.0795 186.826 74.1754 186.494 74.1754 186.11C74.1754 185.603 73.9964 185.185 73.6385 184.857C73.2848 184.529 72.7585 184.365 72.0597 184.365H69.6626V187.977ZM79.1213 195.5V182.409H84.1326C85.0787 182.409 85.8649 182.558 86.4913 182.857C87.122 183.151 87.5929 183.553 87.9039 184.065C88.2193 184.576 88.377 185.156 88.377 185.803C88.377 186.336 88.2747 186.792 88.0701 187.171C87.8656 187.546 87.5907 187.851 87.2456 188.085C86.9004 188.32 86.5147 188.488 86.0886 188.59V188.718C86.5531 188.744 86.9984 188.886 87.4245 189.146C87.8549 189.402 88.2065 189.764 88.4792 190.233C88.752 190.702 88.8883 191.268 88.8883 191.933C88.8883 192.611 88.7243 193.22 88.3961 193.761C88.068 194.298 87.5737 194.722 86.9132 195.033C86.2527 195.344 85.4217 195.5 84.4203 195.5H79.1213ZM81.4927 193.518H84.0431C84.9039 193.518 85.524 193.354 85.9032 193.026C86.2868 192.694 86.4785 192.268 86.4785 191.748C86.4785 191.36 86.3826 191.011 86.1909 190.7C85.9991 190.384 85.7264 190.137 85.3727 189.958C85.019 189.775 84.5971 189.683 84.1071 189.683H81.4927V193.518ZM81.4927 187.977H83.8386C84.2477 187.977 84.6163 187.902 84.9444 187.753C85.2726 187.599 85.5304 187.384 85.7179 187.107C85.9096 186.826 86.0055 186.494 86.0055 186.11C86.0055 185.603 85.8265 185.185 85.4686 184.857C85.1149 184.529 84.5886 184.365 83.8897 184.365H81.4927V187.977ZM99.2035 182.409H101.575V190.962C101.575 191.899 101.353 192.724 100.91 193.435C100.471 194.147 99.8533 194.703 99.0565 195.104C98.2596 195.5 97.3285 195.698 96.2631 195.698C95.1935 195.698 94.2603 195.5 93.4634 195.104C92.6665 194.703 92.0487 194.147 91.6097 193.435C91.1708 192.724 90.9513 191.899 90.9513 190.962V182.409H93.3228V190.763C93.3228 191.309 93.4421 191.795 93.6808 192.221C93.9237 192.647 94.2646 192.982 94.7035 193.224C95.1424 193.463 95.6623 193.582 96.2631 193.582C96.864 193.582 97.3839 193.463 97.8228 193.224C98.266 192.982 98.6069 192.647 98.8455 192.221C99.0842 191.795 99.2035 191.309 99.2035 190.763V182.409ZM113.859 181.795L109.64 197.469H107.614L111.833 181.795H113.859ZM131.6 188.955C131.6 190.365 131.336 191.573 130.807 192.579C130.283 193.58 129.567 194.347 128.66 194.88C127.756 195.413 126.731 195.679 125.585 195.679C124.439 195.679 123.412 195.413 122.504 194.88C121.601 194.343 120.885 193.574 120.356 192.572C119.832 191.567 119.57 190.361 119.57 188.955C119.57 187.544 119.832 186.338 120.356 185.337C120.885 184.331 121.601 183.562 122.504 183.029C123.412 182.496 124.439 182.23 125.585 182.23C126.731 182.23 127.756 182.496 128.66 183.029C129.567 183.562 130.283 184.331 130.807 185.337C131.336 186.338 131.6 187.544 131.6 188.955ZM129.216 188.955C129.216 187.962 129.06 187.124 128.749 186.442C128.442 185.756 128.016 185.239 127.471 184.889C126.925 184.536 126.297 184.359 125.585 184.359C124.873 184.359 124.245 184.536 123.699 184.889C123.154 185.239 122.726 185.756 122.415 186.442C122.108 187.124 121.954 187.962 121.954 188.955C121.954 189.947 122.108 190.787 122.415 191.473C122.726 192.155 123.154 192.673 123.699 193.026C124.245 193.376 124.873 193.55 125.585 193.55C126.297 193.55 126.925 193.376 127.471 193.026C128.016 192.673 128.442 192.155 128.749 191.473C129.06 190.787 129.216 189.947 129.216 188.955ZM133.842 195.5V182.409H138.853C139.799 182.409 140.586 182.558 141.212 182.857C141.843 183.151 142.314 183.553 142.625 184.065C142.94 184.576 143.098 185.156 143.098 185.803C143.098 186.336 142.995 186.792 142.791 187.171C142.586 187.546 142.311 187.851 141.966 188.085C141.621 188.32 141.235 188.488 140.809 188.59V188.718C141.274 188.744 141.719 188.886 142.145 189.146C142.576 189.402 142.927 189.764 143.2 190.233C143.473 190.702 143.609 191.268 143.609 191.933C143.609 192.611 143.445 193.22 143.117 193.761C142.789 194.298 142.294 194.722 141.634 195.033C140.973 195.344 140.142 195.5 139.141 195.5H133.842ZM136.213 193.518H138.764C139.625 193.518 140.245 193.354 140.624 193.026C141.007 192.694 141.199 192.268 141.199 191.748C141.199 191.36 141.103 191.011 140.912 190.7C140.72 190.384 140.447 190.137 140.093 189.958C139.74 189.775 139.318 189.683 138.828 189.683H136.213V193.518ZM136.213 187.977H138.559C138.968 187.977 139.337 187.902 139.665 187.753C139.993 187.599 140.251 187.384 140.439 187.107C140.63 186.826 140.726 186.494 140.726 186.11C140.726 185.603 140.547 185.185 140.189 184.857C139.836 184.529 139.309 184.365 138.61 184.365H136.213V187.977ZM153.924 182.409H156.296V190.962C156.296 191.899 156.074 192.724 155.631 193.435C155.192 194.147 154.574 194.703 153.777 195.104C152.98 195.5 152.049 195.698 150.984 195.698C149.914 195.698 148.981 195.5 148.184 195.104C147.387 194.703 146.769 194.147 146.33 193.435C145.892 192.724 145.672 191.899 145.672 190.962V182.409H148.044V190.763C148.044 191.309 148.163 191.795 148.401 192.221C148.644 192.647 148.985 192.982 149.424 193.224C149.863 193.463 150.383 193.582 150.984 193.582C151.585 193.582 152.105 193.463 152.544 193.224C152.987 192.982 153.328 192.647 153.566 192.221C153.805 191.795 153.924 191.309 153.924 190.763V182.409ZM165.019 195.5H162.488L167.097 182.409H170.024L174.639 195.5H172.108L168.612 185.094H168.509L165.019 195.5ZM165.102 190.367H172.006V192.272H165.102V190.367ZM186.953 186.826H184.563C184.495 186.434 184.369 186.087 184.186 185.784C184.002 185.477 183.775 185.217 183.502 185.004C183.229 184.791 182.918 184.631 182.569 184.525C182.223 184.414 181.85 184.359 181.45 184.359C180.738 184.359 180.108 184.538 179.558 184.896C179.008 185.249 178.578 185.769 178.267 186.455C177.956 187.137 177.8 187.97 177.8 188.955C177.8 189.956 177.956 190.8 178.267 191.486C178.582 192.168 179.012 192.683 179.558 193.033C180.108 193.378 180.736 193.55 181.444 193.55C181.836 193.55 182.202 193.499 182.543 193.397C182.888 193.29 183.197 193.135 183.47 192.93C183.747 192.726 183.979 192.474 184.167 192.176C184.358 191.878 184.49 191.537 184.563 191.153L186.953 191.166C186.864 191.788 186.67 192.372 186.372 192.918C186.078 193.463 185.692 193.945 185.215 194.362C184.738 194.776 184.179 195.099 183.54 195.334C182.901 195.564 182.191 195.679 181.412 195.679C180.261 195.679 179.234 195.413 178.331 194.88C177.427 194.347 176.716 193.578 176.196 192.572C175.676 191.567 175.416 190.361 175.416 188.955C175.416 187.544 175.678 186.338 176.202 185.337C176.726 184.331 177.44 183.562 178.343 183.029C179.247 182.496 180.27 182.23 181.412 182.23C182.14 182.23 182.818 182.332 183.444 182.537C184.071 182.741 184.629 183.042 185.119 183.438C185.609 183.83 186.012 184.312 186.327 184.883C186.647 185.45 186.855 186.097 186.953 186.826ZM189.125 195.5V182.409H197.639V184.397H191.497V187.951H197.198V189.939H191.497V193.512H197.691V195.5H189.125ZM200.059 195.5V182.409H204.968C205.974 182.409 206.817 182.584 207.499 182.933C208.185 183.283 208.703 183.773 209.052 184.403C209.406 185.03 209.583 185.761 209.583 186.596C209.583 187.435 209.404 188.164 209.046 188.782C208.692 189.396 208.17 189.871 207.48 190.207C206.79 190.54 205.942 190.706 204.936 190.706H201.439V188.737H204.616C205.204 188.737 205.686 188.656 206.061 188.494C206.436 188.328 206.713 188.087 206.892 187.772C207.075 187.452 207.167 187.06 207.167 186.596C207.167 186.131 207.075 185.735 206.892 185.407C206.709 185.075 206.43 184.823 206.055 184.653C205.68 184.478 205.196 184.391 204.604 184.391H202.43V195.5H200.059ZM206.822 189.568L210.062 195.5H207.416L204.233 189.568H206.822ZM211.191 184.397V182.409H221.635V184.397H217.589V195.5H215.237V184.397H211.191ZM228.113 182.409H231.015L234.902 191.895H235.055L238.942 182.409H241.844V195.5H239.568V186.506H239.447L235.829 195.462H234.128L230.51 186.487H230.389V195.5H228.113V182.409ZM248.67 195.692C247.686 195.692 246.836 195.487 246.12 195.078C245.408 194.665 244.861 194.081 244.477 193.327C244.094 192.568 243.902 191.675 243.902 190.648C243.902 189.638 244.094 188.752 244.477 187.989C244.865 187.222 245.406 186.626 246.101 186.2C246.795 185.769 247.611 185.554 248.549 185.554C249.154 185.554 249.725 185.652 250.262 185.848C250.803 186.04 251.28 186.338 251.694 186.743C252.111 187.148 252.439 187.663 252.678 188.29C252.917 188.912 253.036 189.653 253.036 190.514V191.224H244.988V189.664H250.818C250.814 189.221 250.718 188.827 250.53 188.482C250.343 188.132 250.081 187.857 249.744 187.657C249.412 187.457 249.024 187.357 248.581 187.357C248.108 187.357 247.692 187.472 247.334 187.702C246.976 187.928 246.697 188.226 246.497 188.597C246.301 188.963 246.201 189.366 246.197 189.805V191.166C246.197 191.737 246.301 192.227 246.51 192.636C246.719 193.041 247.01 193.352 247.385 193.57C247.76 193.783 248.199 193.889 248.702 193.889C249.039 193.889 249.344 193.842 249.616 193.749C249.889 193.651 250.126 193.508 250.326 193.32C250.526 193.133 250.677 192.901 250.78 192.624L252.94 192.866C252.804 193.437 252.544 193.936 252.16 194.362C251.781 194.784 251.295 195.112 250.703 195.347C250.111 195.577 249.433 195.692 248.67 195.692ZM254.994 195.5V185.682H257.205V187.35H257.32C257.525 186.788 257.864 186.349 258.337 186.033C258.81 185.714 259.374 185.554 260.031 185.554C260.695 185.554 261.256 185.716 261.712 186.04C262.172 186.359 262.496 186.796 262.683 187.35H262.786C263.003 186.805 263.369 186.37 263.885 186.046C264.405 185.718 265.021 185.554 265.732 185.554C266.636 185.554 267.373 185.839 267.944 186.411C268.515 186.982 268.8 187.815 268.8 188.91V195.5H266.48V189.268C266.48 188.658 266.318 188.213 265.994 187.932C265.67 187.646 265.274 187.504 264.805 187.504C264.247 187.504 263.81 187.678 263.495 188.028C263.184 188.373 263.028 188.822 263.028 189.376V195.5H260.759V189.172C260.759 188.665 260.606 188.26 260.299 187.957C259.996 187.655 259.6 187.504 259.11 187.504C258.778 187.504 258.475 187.589 258.202 187.759C257.93 187.925 257.712 188.162 257.55 188.469C257.388 188.771 257.308 189.125 257.308 189.53V195.5H254.994ZM271.25 195.5V182.409H273.564V187.305H273.66C273.779 187.067 273.948 186.813 274.165 186.545C274.382 186.272 274.676 186.04 275.047 185.848C275.418 185.652 275.891 185.554 276.466 185.554C277.225 185.554 277.909 185.748 278.518 186.136C279.132 186.519 279.617 187.088 279.975 187.842C280.338 188.592 280.519 189.513 280.519 190.604C280.519 191.682 280.342 192.598 279.988 193.352C279.634 194.107 279.153 194.682 278.544 195.078C277.934 195.474 277.244 195.673 276.472 195.673C275.91 195.673 275.443 195.579 275.073 195.391C274.702 195.204 274.404 194.978 274.178 194.714C273.956 194.445 273.784 194.192 273.66 193.953H273.526V195.5H271.25ZM273.519 190.591C273.519 191.226 273.609 191.782 273.788 192.259C273.971 192.737 274.233 193.109 274.574 193.378C274.919 193.642 275.337 193.774 275.827 193.774C276.338 193.774 276.767 193.638 277.112 193.365C277.457 193.088 277.717 192.711 277.892 192.234C278.07 191.752 278.16 191.205 278.16 190.591C278.16 189.982 278.073 189.44 277.898 188.967C277.723 188.494 277.463 188.124 277.118 187.855C276.773 187.587 276.343 187.452 275.827 187.452C275.333 187.452 274.913 187.582 274.568 187.842C274.222 188.102 273.96 188.467 273.781 188.935C273.607 189.404 273.519 189.956 273.519 190.591ZM286.832 195.692C285.848 195.692 284.998 195.487 284.282 195.078C283.57 194.665 283.023 194.081 282.639 193.327C282.256 192.568 282.064 191.675 282.064 190.648C282.064 189.638 282.256 188.752 282.639 187.989C283.027 187.222 283.568 186.626 284.263 186.2C284.957 185.769 285.773 185.554 286.711 185.554C287.316 185.554 287.887 185.652 288.424 185.848C288.965 186.04 289.442 186.338 289.856 186.743C290.273 187.148 290.602 187.663 290.84 188.29C291.079 188.912 291.198 189.653 291.198 190.514V191.224H283.151V189.664H288.98C288.976 189.221 288.88 188.827 288.692 188.482C288.505 188.132 288.243 187.857 287.906 187.657C287.574 187.457 287.186 187.357 286.743 187.357C286.27 187.357 285.854 187.472 285.496 187.702C285.138 187.928 284.859 188.226 284.659 188.597C284.463 188.963 284.363 189.366 284.359 189.805V191.166C284.359 191.737 284.463 192.227 284.672 192.636C284.881 193.041 285.173 193.352 285.548 193.57C285.923 193.783 286.362 193.889 286.864 193.889C287.201 193.889 287.506 193.842 287.778 193.749C288.051 193.651 288.288 193.508 288.488 193.32C288.688 193.133 288.839 192.901 288.942 192.624L291.102 192.866C290.966 193.437 290.706 193.936 290.322 194.362C289.943 194.784 289.457 195.112 288.865 195.347C288.273 195.577 287.595 195.692 286.832 195.692ZM293.156 195.5V185.682H295.399V187.318H295.502C295.681 186.751 295.987 186.315 296.422 186.008C296.861 185.697 297.362 185.541 297.924 185.541C298.052 185.541 298.195 185.548 298.352 185.56C298.514 185.569 298.649 185.584 298.755 185.605V187.734C298.657 187.7 298.502 187.67 298.289 187.644C298.08 187.614 297.877 187.599 297.681 187.599C297.259 187.599 296.88 187.691 296.544 187.874C296.211 188.053 295.949 188.303 295.757 188.622C295.566 188.942 295.47 189.31 295.47 189.728V195.5H293.156ZM308.052 188.277L305.943 188.507C305.883 188.294 305.779 188.094 305.63 187.906C305.485 187.719 305.289 187.567 305.042 187.452C304.795 187.337 304.492 187.28 304.134 187.28C303.653 187.28 303.248 187.384 302.92 187.593C302.596 187.802 302.436 188.072 302.44 188.405C302.436 188.69 302.54 188.923 302.753 189.102C302.971 189.281 303.329 189.428 303.827 189.543L305.502 189.901C306.431 190.101 307.121 190.418 307.573 190.853C308.029 191.288 308.259 191.857 308.263 192.56C308.259 193.178 308.078 193.723 307.72 194.196C307.366 194.665 306.874 195.031 306.243 195.295C305.613 195.56 304.888 195.692 304.07 195.692C302.868 195.692 301.901 195.44 301.168 194.938C300.435 194.43 299.998 193.725 299.858 192.822L302.114 192.604C302.216 193.048 302.434 193.382 302.766 193.608C303.099 193.834 303.531 193.947 304.064 193.947C304.613 193.947 305.055 193.834 305.387 193.608C305.724 193.382 305.892 193.103 305.892 192.771C305.892 192.489 305.783 192.257 305.566 192.074C305.353 191.891 305.02 191.75 304.569 191.652L302.894 191.3C301.952 191.104 301.256 190.774 300.804 190.31C300.352 189.841 300.128 189.249 300.133 188.533C300.128 187.928 300.292 187.403 300.625 186.96C300.961 186.513 301.428 186.168 302.025 185.925C302.626 185.678 303.318 185.554 304.102 185.554C305.253 185.554 306.158 185.799 306.819 186.289C307.483 186.779 307.895 187.442 308.052 188.277Z" fill="#203E54"/>
<rect width="360" height="51" transform="translate(0 224)" fill="white"/>
<circle cx="27.5" cy="252.5" r="22.5" fill="#E7A80D"/>
<path d="M25.8409 261.739V245.648H29.9091V261.739H25.8409ZM19.8295 255.727V251.659H35.9205V255.727H19.8295Z" fill="white"/>
<path d="M66.7912 256.5V243.409H71.7003C72.706 243.409 73.5497 243.584 74.2315 243.933C74.9176 244.283 75.4354 244.773 75.7848 245.403C76.1385 246.03 76.3153 246.761 76.3153 247.596C76.3153 248.435 76.1364 249.164 75.7784 249.782C75.4247 250.396 74.9027 250.871 74.2124 251.207C73.522 251.54 72.674 251.706 71.6683 251.706H68.1719V249.737H71.3487C71.9368 249.737 72.4183 249.656 72.7933 249.494C73.1683 249.328 73.4453 249.087 73.6243 248.772C73.8075 248.452 73.8991 248.06 73.8991 247.596C73.8991 247.131 73.8075 246.735 73.6243 246.407C73.4411 246.075 73.1619 245.823 72.7869 245.653C72.4119 245.478 71.9283 245.391 71.3359 245.391H69.1626V256.5H66.7912ZM73.554 250.568L76.7947 256.5H74.1484L70.9652 250.568H73.554ZM82.9343 256.5H78.4982V243.409H83.0238C84.3235 243.409 85.44 243.671 86.3732 244.195C87.3107 244.715 88.0309 245.463 88.5337 246.439C89.0366 247.415 89.288 248.582 89.288 249.942C89.288 251.305 89.0344 252.477 88.5273 253.457C88.0245 254.437 87.2979 255.19 86.3477 255.714C85.4016 256.238 84.2638 256.5 82.9343 256.5ZM80.8697 254.448H82.8192C83.7312 254.448 84.4918 254.282 85.1012 253.95C85.7106 253.613 86.1687 253.112 86.4755 252.447C86.7823 251.778 86.9357 250.943 86.9357 249.942C86.9357 248.94 86.7823 248.109 86.4755 247.449C86.1687 246.784 85.7148 246.288 85.114 245.96C84.5174 245.627 83.7759 245.461 82.8896 245.461H80.8697V254.448ZM99.7933 243.409H102.165V251.962C102.165 252.899 101.943 253.724 101.5 254.435C101.061 255.147 100.443 255.703 99.6463 256.104C98.8494 256.5 97.9183 256.698 96.853 256.698C95.7834 256.698 94.8501 256.5 94.0533 256.104C93.2564 255.703 92.6385 255.147 92.1996 254.435C91.7607 253.724 91.5412 252.899 91.5412 251.962V243.409H93.9126V251.763C93.9126 252.309 94.032 252.795 94.2706 253.221C94.5135 253.647 94.8544 253.982 95.2933 254.224C95.7322 254.463 96.2521 254.582 96.853 254.582C97.4538 254.582 97.9737 254.463 98.4126 254.224C98.8558 253.982 99.1967 253.647 99.4354 253.221C99.674 252.795 99.7933 252.309 99.7933 251.763V243.409ZM110.888 256.5H108.357L112.966 243.409H115.893L120.508 256.5H117.977L114.481 246.094H114.378L110.888 256.5ZM110.971 251.367H117.875V253.272H110.971V251.367ZM132.823 247.826H130.432C130.364 247.434 130.238 247.087 130.055 246.784C129.872 246.477 129.644 246.217 129.371 246.004C129.098 245.791 128.787 245.631 128.438 245.525C128.093 245.414 127.72 245.359 127.319 245.359C126.607 245.359 125.977 245.538 125.427 245.896C124.877 246.249 124.447 246.769 124.136 247.455C123.825 248.137 123.669 248.97 123.669 249.955C123.669 250.956 123.825 251.8 124.136 252.486C124.451 253.168 124.882 253.683 125.427 254.033C125.977 254.378 126.605 254.55 127.313 254.55C127.705 254.55 128.071 254.499 128.412 254.397C128.757 254.29 129.066 254.135 129.339 253.93C129.616 253.726 129.848 253.474 130.036 253.176C130.227 252.878 130.36 252.537 130.432 252.153L132.823 252.166C132.733 252.788 132.539 253.372 132.241 253.918C131.947 254.463 131.561 254.945 131.084 255.362C130.607 255.776 130.048 256.099 129.409 256.334C128.77 256.564 128.061 256.679 127.281 256.679C126.13 256.679 125.103 256.413 124.2 255.88C123.296 255.347 122.585 254.578 122.065 253.572C121.545 252.567 121.285 251.361 121.285 249.955C121.285 248.544 121.547 247.338 122.071 246.337C122.595 245.331 123.309 244.562 124.213 244.029C125.116 243.496 126.139 243.23 127.281 243.23C128.009 243.23 128.687 243.332 129.313 243.537C129.94 243.741 130.498 244.042 130.988 244.438C131.478 244.83 131.881 245.312 132.196 245.883C132.516 246.45 132.725 247.097 132.823 247.826ZM134.994 256.5V243.409H143.509V245.397H137.366V248.951H143.067V250.939H137.366V254.512H143.56V256.5H134.994ZM145.928 256.5V243.409H150.837C151.843 243.409 152.686 243.584 153.368 243.933C154.054 244.283 154.572 244.773 154.922 245.403C155.275 246.03 155.452 246.761 155.452 247.596C155.452 248.435 155.273 249.164 154.915 249.782C154.561 250.396 154.039 250.871 153.349 251.207C152.659 251.54 151.811 251.706 150.805 251.706H147.309V249.737H150.485C151.074 249.737 151.555 249.656 151.93 249.494C152.305 249.328 152.582 249.087 152.761 248.772C152.944 248.452 153.036 248.06 153.036 247.596C153.036 247.131 152.944 246.735 152.761 246.407C152.578 246.075 152.299 245.823 151.924 245.653C151.549 245.478 151.065 245.391 150.473 245.391H148.299V256.5H145.928ZM152.691 250.568L155.931 256.5H153.285L150.102 250.568H152.691ZM157.06 245.397V243.409H167.504V245.397H163.458V256.5H161.106V245.397H157.06ZM173.983 243.409H176.885L180.771 252.895H180.924L184.811 243.409H187.713V256.5H185.437V247.506H185.316L181.698 256.462H179.998L176.38 247.487H176.258V256.5H173.983V243.409ZM194.539 256.692C193.555 256.692 192.705 256.487 191.989 256.078C191.277 255.665 190.73 255.081 190.346 254.327C189.963 253.568 189.771 252.675 189.771 251.648C189.771 250.638 189.963 249.752 190.346 248.989C190.734 248.222 191.275 247.626 191.97 247.2C192.664 246.769 193.48 246.554 194.418 246.554C195.023 246.554 195.594 246.652 196.131 246.848C196.672 247.04 197.15 247.338 197.563 247.743C197.98 248.148 198.309 248.663 198.547 249.29C198.786 249.912 198.905 250.653 198.905 251.514V252.224H190.858V250.664H196.687C196.683 250.221 196.587 249.827 196.4 249.482C196.212 249.132 195.95 248.857 195.613 248.657C195.281 248.457 194.893 248.357 194.45 248.357C193.977 248.357 193.561 248.472 193.203 248.702C192.846 248.928 192.566 249.226 192.366 249.597C192.17 249.963 192.07 250.366 192.066 250.805V252.166C192.066 252.737 192.17 253.227 192.379 253.636C192.588 254.041 192.88 254.352 193.255 254.57C193.63 254.783 194.069 254.889 194.571 254.889C194.908 254.889 195.213 254.842 195.485 254.749C195.758 254.651 195.995 254.508 196.195 254.32C196.395 254.133 196.547 253.901 196.649 253.624L198.809 253.866C198.673 254.437 198.413 254.936 198.029 255.362C197.65 255.784 197.164 256.112 196.572 256.347C195.98 256.577 195.302 256.692 194.539 256.692ZM200.863 256.5V246.682H203.074V248.35H203.189C203.394 247.788 203.733 247.349 204.206 247.033C204.679 246.714 205.243 246.554 205.9 246.554C206.564 246.554 207.125 246.716 207.581 247.04C208.041 247.359 208.365 247.796 208.552 248.35H208.655C208.872 247.805 209.238 247.37 209.754 247.046C210.274 246.718 210.89 246.554 211.601 246.554C212.505 246.554 213.242 246.839 213.813 247.411C214.384 247.982 214.67 248.815 214.67 249.91V256.5H212.349V250.268C212.349 249.658 212.187 249.213 211.863 248.932C211.54 248.646 211.143 248.504 210.675 248.504C210.116 248.504 209.68 248.678 209.364 249.028C209.053 249.373 208.898 249.822 208.898 250.376V256.5H206.628V250.172C206.628 249.665 206.475 249.26 206.168 248.957C205.866 248.655 205.469 248.504 204.979 248.504C204.647 248.504 204.344 248.589 204.072 248.759C203.799 248.925 203.581 249.162 203.42 249.469C203.258 249.771 203.177 250.125 203.177 250.53V256.5H200.863ZM217.119 256.5V243.409H219.433V248.305H219.529C219.648 248.067 219.817 247.813 220.034 247.545C220.251 247.272 220.545 247.04 220.916 246.848C221.287 246.652 221.76 246.554 222.335 246.554C223.094 246.554 223.778 246.748 224.387 247.136C225.001 247.519 225.487 248.088 225.844 248.842C226.207 249.592 226.388 250.513 226.388 251.604C226.388 252.682 226.211 253.598 225.857 254.352C225.504 255.107 225.022 255.682 224.413 256.078C223.803 256.474 223.113 256.673 222.342 256.673C221.779 256.673 221.313 256.579 220.942 256.391C220.571 256.204 220.273 255.978 220.047 255.714C219.825 255.445 219.653 255.192 219.529 254.953H219.395V256.5H217.119ZM219.388 251.591C219.388 252.226 219.478 252.782 219.657 253.259C219.84 253.737 220.102 254.109 220.443 254.378C220.788 254.642 221.206 254.774 221.696 254.774C222.207 254.774 222.636 254.638 222.981 254.365C223.326 254.088 223.586 253.711 223.761 253.234C223.94 252.752 224.029 252.205 224.029 251.591C224.029 250.982 223.942 250.44 223.767 249.967C223.592 249.494 223.332 249.124 222.987 248.855C222.642 248.587 222.212 248.452 221.696 248.452C221.202 248.452 220.782 248.582 220.437 248.842C220.092 249.102 219.83 249.467 219.651 249.935C219.476 250.404 219.388 250.956 219.388 251.591ZM232.702 256.692C231.717 256.692 230.867 256.487 230.151 256.078C229.439 255.665 228.892 255.081 228.508 254.327C228.125 253.568 227.933 252.675 227.933 251.648C227.933 250.638 228.125 249.752 228.508 248.989C228.896 248.222 229.437 247.626 230.132 247.2C230.827 246.769 231.643 246.554 232.58 246.554C233.185 246.554 233.756 246.652 234.293 246.848C234.834 247.04 235.312 247.338 235.725 247.743C236.143 248.148 236.471 248.663 236.709 249.29C236.948 249.912 237.067 250.653 237.067 251.514V252.224H229.02V250.664H234.849C234.845 250.221 234.749 249.827 234.562 249.482C234.374 249.132 234.112 248.857 233.775 248.657C233.443 248.457 233.055 248.357 232.612 248.357C232.139 248.357 231.724 248.472 231.366 248.702C231.008 248.928 230.729 249.226 230.528 249.597C230.332 249.963 230.232 250.366 230.228 250.805V252.166C230.228 252.737 230.332 253.227 230.541 253.636C230.75 254.041 231.042 254.352 231.417 254.57C231.792 254.783 232.231 254.889 232.733 254.889C233.07 254.889 233.375 254.842 233.648 254.749C233.92 254.651 234.157 254.508 234.357 254.32C234.557 254.133 234.709 253.901 234.811 253.624L236.971 253.866C236.835 254.437 236.575 254.936 236.192 255.362C235.812 255.784 235.327 256.112 234.734 256.347C234.142 256.577 233.464 256.692 232.702 256.692ZM239.025 256.5V246.682H241.268V248.318H241.371C241.55 247.751 241.857 247.315 242.291 247.008C242.73 246.697 243.231 246.541 243.793 246.541C243.921 246.541 244.064 246.548 244.222 246.56C244.384 246.569 244.518 246.584 244.624 246.605V248.734C244.526 248.7 244.371 248.67 244.158 248.644C243.949 248.614 243.746 248.599 243.55 248.599C243.129 248.599 242.749 248.691 242.413 248.874C242.08 249.053 241.818 249.303 241.626 249.622C241.435 249.942 241.339 250.31 241.339 250.728V256.5H239.025ZM253.922 249.277L251.812 249.507C251.752 249.294 251.648 249.094 251.499 248.906C251.354 248.719 251.158 248.567 250.911 248.452C250.664 248.337 250.361 248.28 250.003 248.28C249.522 248.28 249.117 248.384 248.789 248.593C248.465 248.802 248.305 249.072 248.309 249.405C248.305 249.69 248.409 249.923 248.623 250.102C248.84 250.281 249.198 250.428 249.696 250.543L251.371 250.901C252.3 251.101 252.99 251.418 253.442 251.853C253.898 252.288 254.128 252.857 254.132 253.56C254.128 254.178 253.947 254.723 253.589 255.196C253.235 255.665 252.743 256.031 252.113 256.295C251.482 256.56 250.757 256.692 249.939 256.692C248.738 256.692 247.77 256.44 247.037 255.938C246.304 255.43 245.868 254.725 245.727 253.822L247.983 253.604C248.086 254.048 248.303 254.382 248.635 254.608C248.968 254.834 249.4 254.947 249.933 254.947C250.483 254.947 250.924 254.834 251.256 254.608C251.593 254.382 251.761 254.103 251.761 253.771C251.761 253.489 251.652 253.257 251.435 253.074C251.222 252.891 250.89 252.75 250.438 252.652L248.763 252.3C247.821 252.104 247.125 251.774 246.673 251.31C246.221 250.841 245.998 250.249 246.002 249.533C245.998 248.928 246.162 248.403 246.494 247.96C246.831 247.513 247.297 247.168 247.894 246.925C248.495 246.678 249.187 246.554 249.971 246.554C251.122 246.554 252.027 246.799 252.688 247.289C253.353 247.779 253.764 248.442 253.922 249.277Z" fill="#203E54"/>
<rect y="454" width="380" height="146" fill="white"/>
<path d="M34.2912 498V484.909H39.3026C40.2486 484.909 41.0348 485.058 41.6612 485.357C42.2919 485.651 42.7628 486.053 43.0739 486.565C43.3892 487.076 43.5469 487.656 43.5469 488.303C43.5469 488.836 43.4446 489.292 43.2401 489.671C43.0355 490.046 42.7607 490.351 42.4155 490.585C42.0703 490.82 41.6847 490.988 41.2585 491.09V491.218C41.723 491.244 42.1683 491.386 42.5945 491.646C43.0249 491.902 43.3764 492.264 43.6491 492.733C43.9219 493.202 44.0582 493.768 44.0582 494.433C44.0582 495.111 43.8942 495.72 43.5661 496.261C43.2379 496.798 42.7436 497.222 42.0831 497.533C41.4226 497.844 40.5916 498 39.5902 498H34.2912ZM36.6626 496.018H39.2131C40.0739 496.018 40.6939 495.854 41.0732 495.526C41.4567 495.194 41.6484 494.768 41.6484 494.248C41.6484 493.86 41.5526 493.511 41.3608 493.2C41.169 492.884 40.8963 492.637 40.5426 492.458C40.1889 492.275 39.767 492.183 39.277 492.183H36.6626V496.018ZM36.6626 490.477H39.0085C39.4176 490.477 39.7862 490.402 40.1143 490.253C40.4425 490.099 40.7003 489.884 40.8878 489.607C41.0795 489.326 41.1754 488.994 41.1754 488.61C41.1754 488.103 40.9964 487.685 40.6385 487.357C40.2848 487.029 39.7585 486.865 39.0597 486.865H36.6626V490.477ZM46.1213 498V484.909H51.1326C52.0787 484.909 52.8649 485.058 53.4913 485.357C54.122 485.651 54.5929 486.053 54.9039 486.565C55.2193 487.076 55.377 487.656 55.377 488.303C55.377 488.836 55.2747 489.292 55.0701 489.671C54.8656 490.046 54.5907 490.351 54.2456 490.585C53.9004 490.82 53.5147 490.988 53.0886 491.09V491.218C53.5531 491.244 53.9984 491.386 54.4245 491.646C54.8549 491.902 55.2065 492.264 55.4792 492.733C55.752 493.202 55.8883 493.768 55.8883 494.433C55.8883 495.111 55.7243 495.72 55.3961 496.261C55.068 496.798 54.5737 497.222 53.9132 497.533C53.2527 497.844 52.4217 498 51.4203 498H46.1213ZM48.4927 496.018H51.0431C51.9039 496.018 52.524 495.854 52.9032 495.526C53.2868 495.194 53.4785 494.768 53.4785 494.248C53.4785 493.86 53.3826 493.511 53.1909 493.2C52.9991 492.884 52.7264 492.637 52.3727 492.458C52.019 492.275 51.5971 492.183 51.1071 492.183H48.4927V496.018ZM48.4927 490.477H50.8386C51.2477 490.477 51.6163 490.402 51.9444 490.253C52.2726 490.099 52.5304 489.884 52.7179 489.607C52.9096 489.326 53.0055 488.994 53.0055 488.61C53.0055 488.103 52.8265 487.685 52.4686 487.357C52.1149 487.029 51.5886 486.865 50.8897 486.865H48.4927V490.477ZM66.2035 484.909H68.5749V493.462C68.5749 494.399 68.3533 495.224 67.9102 495.935C67.4712 496.647 66.8533 497.203 66.0565 497.604C65.2596 498 64.3285 498.198 63.2631 498.198C62.1935 498.198 61.2603 498 60.4634 497.604C59.6665 497.203 59.0487 496.647 58.6097 495.935C58.1708 495.224 57.9513 494.399 57.9513 493.462V484.909H60.3228V493.263C60.3228 493.809 60.4421 494.295 60.6808 494.721C60.9237 495.147 61.2646 495.482 61.7035 495.724C62.1424 495.963 62.6623 496.082 63.2631 496.082C63.864 496.082 64.3839 495.963 64.8228 495.724C65.266 495.482 65.6069 495.147 65.8455 494.721C66.0842 494.295 66.2035 493.809 66.2035 493.263V484.909ZM80.8588 484.295L76.6401 499.969H74.6138L78.8326 484.295H80.8588ZM98.6 491.455C98.6 492.865 98.3358 494.073 97.8074 495.079C97.2832 496.08 96.5673 496.847 95.6596 497.38C94.7562 497.913 93.7314 498.179 92.5851 498.179C91.4387 498.179 90.4118 497.913 89.5041 497.38C88.6007 496.843 87.8848 496.074 87.3564 495.072C86.8322 494.067 86.5701 492.861 86.5701 491.455C86.5701 490.044 86.8322 488.838 87.3564 487.837C87.8848 486.831 88.6007 486.062 89.5041 485.529C90.4118 484.996 91.4387 484.73 92.5851 484.73C93.7314 484.73 94.7562 484.996 95.6596 485.529C96.5673 486.062 97.2832 486.831 97.8074 487.837C98.3358 488.838 98.6 490.044 98.6 491.455ZM96.2157 491.455C96.2157 490.462 96.0602 489.624 95.7491 488.942C95.4423 488.256 95.0162 487.739 94.4707 487.389C93.9252 487.036 93.2967 486.859 92.5851 486.859C91.8734 486.859 91.2449 487.036 90.6994 487.389C90.1539 487.739 89.7257 488.256 89.4146 488.942C89.1078 489.624 88.9544 490.462 88.9544 491.455C88.9544 492.447 89.1078 493.287 89.4146 493.973C89.7257 494.655 90.1539 495.173 90.6994 495.526C91.2449 495.876 91.8734 496.05 92.5851 496.05C93.2967 496.05 93.9252 495.876 94.4707 495.526C95.0162 495.173 95.4423 494.655 95.7491 493.973C96.0602 493.287 96.2157 492.447 96.2157 491.455ZM100.842 498V484.909H105.853C106.799 484.909 107.586 485.058 108.212 485.357C108.843 485.651 109.314 486.053 109.625 486.565C109.94 487.076 110.098 487.656 110.098 488.303C110.098 488.836 109.995 489.292 109.791 489.671C109.586 490.046 109.311 490.351 108.966 490.585C108.621 490.82 108.235 490.988 107.809 491.09V491.218C108.274 491.244 108.719 491.386 109.145 491.646C109.576 491.902 109.927 492.264 110.2 492.733C110.473 493.202 110.609 493.768 110.609 494.433C110.609 495.111 110.445 495.72 110.117 496.261C109.789 496.798 109.294 497.222 108.634 497.533C107.973 497.844 107.142 498 106.141 498H100.842ZM103.213 496.018H105.764C106.625 496.018 107.245 495.854 107.624 495.526C108.007 495.194 108.199 494.768 108.199 494.248C108.199 493.86 108.103 493.511 107.912 493.2C107.72 492.884 107.447 492.637 107.093 492.458C106.74 492.275 106.318 492.183 105.828 492.183H103.213V496.018ZM103.213 490.477H105.559C105.968 490.477 106.337 490.402 106.665 490.253C106.993 490.099 107.251 489.884 107.439 489.607C107.63 489.326 107.726 488.994 107.726 488.61C107.726 488.103 107.547 487.685 107.189 487.357C106.836 487.029 106.309 486.865 105.61 486.865H103.213V490.477ZM120.924 484.909H123.296V493.462C123.296 494.399 123.074 495.224 122.631 495.935C122.192 496.647 121.574 497.203 120.777 497.604C119.98 498 119.049 498.198 117.984 498.198C116.914 498.198 115.981 498 115.184 497.604C114.387 497.203 113.769 496.647 113.33 495.935C112.892 495.224 112.672 494.399 112.672 493.462V484.909H115.044V493.263C115.044 493.809 115.163 494.295 115.401 494.721C115.644 495.147 115.985 495.482 116.424 495.724C116.863 495.963 117.383 496.082 117.984 496.082C118.585 496.082 119.105 495.963 119.544 495.724C119.987 495.482 120.328 495.147 120.566 494.721C120.805 494.295 120.924 493.809 120.924 493.263V484.909ZM141.543 489.326H139.153C139.085 488.934 138.959 488.587 138.776 488.284C138.592 487.977 138.364 487.717 138.092 487.504C137.819 487.291 137.508 487.131 137.158 487.025C136.813 486.914 136.44 486.859 136.04 486.859C135.328 486.859 134.697 487.038 134.148 487.396C133.598 487.749 133.168 488.269 132.857 488.955C132.545 489.637 132.39 490.47 132.39 491.455C132.39 492.456 132.545 493.3 132.857 493.986C133.172 494.668 133.602 495.183 134.148 495.533C134.697 495.878 135.326 496.05 136.033 496.05C136.425 496.05 136.792 495.999 137.133 495.897C137.478 495.79 137.787 495.635 138.06 495.43C138.337 495.226 138.569 494.974 138.756 494.676C138.948 494.378 139.08 494.037 139.153 493.653L141.543 493.666C141.454 494.288 141.26 494.872 140.962 495.418C140.668 495.963 140.282 496.445 139.805 496.862C139.327 497.276 138.769 497.599 138.13 497.834C137.491 498.064 136.781 498.179 136.001 498.179C134.851 498.179 133.824 497.913 132.92 497.38C132.017 496.847 131.305 496.078 130.786 495.072C130.266 494.067 130.006 492.861 130.006 491.455C130.006 490.044 130.268 488.838 130.792 487.837C131.316 486.831 132.03 486.062 132.933 485.529C133.837 484.996 134.859 484.73 136.001 484.73C136.73 484.73 137.408 484.832 138.034 485.037C138.661 485.241 139.219 485.542 139.709 485.938C140.199 486.33 140.602 486.812 140.917 487.383C141.237 487.95 141.445 488.597 141.543 489.326ZM146.438 498.198C145.816 498.198 145.256 498.087 144.757 497.866C144.263 497.64 143.871 497.308 143.581 496.869C143.295 496.43 143.153 495.888 143.153 495.245C143.153 494.691 143.255 494.233 143.459 493.871C143.664 493.509 143.943 493.219 144.297 493.001C144.65 492.784 145.049 492.62 145.492 492.509C145.939 492.394 146.402 492.311 146.879 492.26C147.454 492.2 147.921 492.147 148.279 492.1C148.637 492.049 148.897 491.972 149.059 491.87C149.225 491.763 149.308 491.599 149.308 491.378V491.339C149.308 490.858 149.165 490.485 148.88 490.221C148.594 489.957 148.183 489.825 147.646 489.825C147.079 489.825 146.63 489.948 146.297 490.195C145.969 490.442 145.748 490.734 145.633 491.071L143.472 490.764C143.643 490.168 143.924 489.669 144.316 489.268C144.708 488.864 145.187 488.561 145.754 488.361C146.321 488.156 146.947 488.054 147.633 488.054C148.106 488.054 148.577 488.109 149.046 488.22C149.515 488.331 149.943 488.514 150.331 488.77C150.719 489.021 151.03 489.364 151.264 489.799C151.503 490.234 151.622 490.777 151.622 491.429V498H149.398V496.651H149.321C149.18 496.924 148.982 497.18 148.726 497.418C148.475 497.653 148.157 497.842 147.774 497.987C147.395 498.128 146.949 498.198 146.438 498.198ZM147.039 496.498C147.503 496.498 147.906 496.406 148.247 496.223C148.588 496.036 148.85 495.788 149.033 495.482C149.221 495.175 149.314 494.84 149.314 494.478V493.321C149.242 493.381 149.118 493.436 148.944 493.487C148.773 493.538 148.581 493.583 148.368 493.621C148.155 493.66 147.944 493.694 147.736 493.724C147.527 493.754 147.346 493.779 147.192 493.8C146.847 493.847 146.538 493.924 146.265 494.031C145.993 494.137 145.778 494.286 145.62 494.478C145.462 494.665 145.383 494.908 145.383 495.207C145.383 495.633 145.539 495.955 145.85 496.172C146.161 496.389 146.557 496.498 147.039 496.498ZM156.263 484.909V498H153.949V484.909H156.263ZM162.989 498.192C162.004 498.192 161.154 497.987 160.438 497.578C159.727 497.165 159.179 496.581 158.795 495.827C158.412 495.068 158.22 494.175 158.22 493.148C158.22 492.138 158.412 491.252 158.795 490.489C159.183 489.722 159.724 489.126 160.419 488.7C161.114 488.269 161.93 488.054 162.867 488.054C163.472 488.054 164.043 488.152 164.58 488.348C165.121 488.54 165.599 488.838 166.012 489.243C166.43 489.648 166.758 490.163 166.996 490.79C167.235 491.412 167.354 492.153 167.354 493.014V493.724H159.307V492.164H165.136C165.132 491.721 165.036 491.327 164.849 490.982C164.661 490.632 164.399 490.357 164.062 490.157C163.73 489.957 163.342 489.857 162.899 489.857C162.426 489.857 162.011 489.972 161.653 490.202C161.295 490.428 161.016 490.726 160.815 491.097C160.619 491.463 160.519 491.866 160.515 492.305V493.666C160.515 494.237 160.619 494.727 160.828 495.136C161.037 495.541 161.329 495.852 161.704 496.07C162.079 496.283 162.518 496.389 163.021 496.389C163.357 496.389 163.662 496.342 163.935 496.249C164.207 496.151 164.444 496.008 164.644 495.82C164.844 495.633 164.996 495.401 165.098 495.124L167.259 495.366C167.122 495.937 166.862 496.436 166.479 496.862C166.099 497.284 165.614 497.612 165.021 497.847C164.429 498.077 163.751 498.192 162.989 498.192ZM171.626 492.247V498H169.312V488.182H171.524V489.85H171.639C171.865 489.3 172.225 488.864 172.719 488.54C173.218 488.216 173.833 488.054 174.566 488.054C175.244 488.054 175.834 488.199 176.337 488.489C176.844 488.778 177.236 489.198 177.513 489.748C177.794 490.298 177.933 490.964 177.928 491.749V498H175.615V492.107C175.615 491.45 175.444 490.937 175.103 490.566C174.767 490.195 174.3 490.01 173.703 490.01C173.298 490.01 172.938 490.099 172.623 490.278C172.312 490.453 172.067 490.707 171.888 491.039C171.713 491.371 171.626 491.774 171.626 492.247ZM183.924 498.173C183.153 498.173 182.463 497.974 181.853 497.578C181.244 497.182 180.762 496.607 180.409 495.852C180.055 495.098 179.878 494.182 179.878 493.104C179.878 492.013 180.057 491.092 180.415 490.342C180.777 489.588 181.265 489.019 181.879 488.636C182.492 488.248 183.176 488.054 183.931 488.054C184.506 488.054 184.979 488.152 185.35 488.348C185.72 488.54 186.014 488.772 186.232 489.045C186.449 489.313 186.617 489.567 186.737 489.805H186.833V484.909H189.153V498H186.877V496.453H186.737C186.617 496.692 186.445 496.945 186.219 497.214C185.993 497.478 185.695 497.704 185.324 497.891C184.953 498.079 184.487 498.173 183.924 498.173ZM184.57 496.274C185.06 496.274 185.477 496.142 185.823 495.878C186.168 495.609 186.43 495.237 186.609 494.759C186.788 494.282 186.877 493.726 186.877 493.091C186.877 492.456 186.788 491.904 186.609 491.435C186.434 490.967 186.174 490.602 185.829 490.342C185.488 490.082 185.068 489.952 184.57 489.952C184.054 489.952 183.624 490.087 183.279 490.355C182.933 490.624 182.673 490.994 182.499 491.467C182.324 491.94 182.237 492.482 182.237 493.091C182.237 493.705 182.324 494.252 182.499 494.734C182.678 495.211 182.94 495.588 183.285 495.865C183.634 496.138 184.063 496.274 184.57 496.274ZM194.444 498.198C193.822 498.198 193.261 498.087 192.763 497.866C192.268 497.64 191.876 497.308 191.587 496.869C191.301 496.43 191.158 495.888 191.158 495.245C191.158 494.691 191.261 494.233 191.465 493.871C191.67 493.509 191.949 493.219 192.303 493.001C192.656 492.784 193.055 492.62 193.498 492.509C193.945 492.394 194.408 492.311 194.885 492.26C195.46 492.2 195.927 492.147 196.285 492.1C196.643 492.049 196.903 491.972 197.065 491.87C197.231 491.763 197.314 491.599 197.314 491.378V491.339C197.314 490.858 197.171 490.485 196.886 490.221C196.6 489.957 196.189 489.825 195.652 489.825C195.085 489.825 194.636 489.948 194.303 490.195C193.975 490.442 193.754 490.734 193.638 491.071L191.478 490.764C191.648 490.168 191.93 489.669 192.322 489.268C192.714 488.864 193.193 488.561 193.76 488.361C194.327 488.156 194.953 488.054 195.639 488.054C196.112 488.054 196.583 488.109 197.052 488.22C197.521 488.331 197.949 488.514 198.337 488.77C198.724 489.021 199.036 489.364 199.27 489.799C199.509 490.234 199.628 490.777 199.628 491.429V498H197.403V496.651H197.327C197.186 496.924 196.988 497.18 196.732 497.418C196.481 497.653 196.163 497.842 195.78 497.987C195.401 498.128 194.955 498.198 194.444 498.198ZM195.045 496.498C195.509 496.498 195.912 496.406 196.253 496.223C196.594 496.036 196.856 495.788 197.039 495.482C197.227 495.175 197.32 494.84 197.32 494.478V493.321C197.248 493.381 197.124 493.436 196.95 493.487C196.779 493.538 196.587 493.583 196.374 493.621C196.161 493.66 195.95 493.694 195.741 493.724C195.533 493.754 195.352 493.779 195.198 493.8C194.853 493.847 194.544 493.924 194.271 494.031C193.999 494.137 193.783 494.286 193.626 494.478C193.468 494.665 193.389 494.908 193.389 495.207C193.389 495.633 193.545 495.955 193.856 496.172C194.167 496.389 194.563 496.498 195.045 496.498ZM201.955 498V488.182H204.198V489.818H204.3C204.479 489.251 204.786 488.815 205.221 488.508C205.66 488.197 206.161 488.041 206.723 488.041C206.851 488.041 206.994 488.048 207.151 488.06C207.313 488.069 207.447 488.084 207.554 488.105V490.234C207.456 490.2 207.3 490.17 207.087 490.144C206.879 490.114 206.676 490.099 206.48 490.099C206.058 490.099 205.679 490.191 205.342 490.374C205.01 490.553 204.748 490.803 204.556 491.122C204.364 491.442 204.268 491.81 204.268 492.228V498H201.955Z" fill="#203E54"/>
<path d="M34.2912 560V546.909H39.2003C40.206 546.909 41.0497 547.084 41.7315 547.433C42.4176 547.783 42.9354 548.273 43.2848 548.903C43.6385 549.53 43.8153 550.261 43.8153 551.096C43.8153 551.935 43.6364 552.664 43.2784 553.282C42.9247 553.896 42.4027 554.371 41.7124 554.707C41.022 555.04 40.174 555.206 39.1683 555.206H35.6719V553.237H38.8487C39.4368 553.237 39.9183 553.156 40.2933 552.994C40.6683 552.828 40.9453 552.587 41.1243 552.272C41.3075 551.952 41.3991 551.56 41.3991 551.096C41.3991 550.631 41.3075 550.235 41.1243 549.907C40.9411 549.575 40.6619 549.323 40.2869 549.153C39.9119 548.978 39.4283 548.891 38.8359 548.891H36.6626V560H34.2912ZM41.054 554.068L44.2947 560H41.6484L38.4652 554.068H41.054ZM50.4343 560H45.9982V546.909H50.5238C51.8235 546.909 52.94 547.171 53.8732 547.695C54.8107 548.215 55.5309 548.963 56.0337 549.939C56.5366 550.915 56.788 552.082 56.788 553.442C56.788 554.805 56.5344 555.977 56.0273 556.957C55.5245 557.937 54.7979 558.69 53.8477 559.214C52.9016 559.738 51.7638 560 50.4343 560ZM48.3697 557.948H50.3192C51.2312 557.948 51.9918 557.782 52.6012 557.45C53.2106 557.113 53.6687 556.612 53.9755 555.947C54.2823 555.278 54.4357 554.443 54.4357 553.442C54.4357 552.44 54.2823 551.609 53.9755 550.949C53.6687 550.284 53.2148 549.788 52.614 549.46C52.0174 549.127 51.2759 548.961 50.3896 548.961H48.3697V557.948ZM67.2933 546.909H69.6648V555.462C69.6648 556.399 69.4432 557.224 69 557.935C68.5611 558.647 67.9432 559.203 67.1463 559.604C66.3494 560 65.4183 560.198 64.353 560.198C63.2834 560.198 62.3501 560 61.5533 559.604C60.7564 559.203 60.1385 558.647 59.6996 557.935C59.2607 557.224 59.0412 556.399 59.0412 555.462V546.909H61.4126V555.263C61.4126 555.809 61.532 556.295 61.7706 556.721C62.0135 557.147 62.3544 557.482 62.7933 557.724C63.2322 557.963 63.7521 558.082 64.353 558.082C64.9538 558.082 65.4737 557.963 65.9126 557.724C66.3558 557.482 66.6967 557.147 66.9354 556.721C67.174 556.295 67.2933 555.809 67.2933 555.263V546.909ZM84.416 552.502V554.407H75.416V552.502H84.416ZM91.8532 560H89.3219L93.9306 546.909H96.8581L101.473 560H98.9419L95.4455 549.594H95.3432L91.8532 560ZM91.9363 554.867H98.8397V556.772H91.9363V554.867ZM106.44 560.173C105.669 560.173 104.978 559.974 104.369 559.578C103.759 559.182 103.278 558.607 102.924 557.852C102.57 557.098 102.394 556.182 102.394 555.104C102.394 554.013 102.573 553.092 102.931 552.342C103.293 551.588 103.781 551.019 104.394 550.636C105.008 550.248 105.692 550.054 106.446 550.054C107.021 550.054 107.494 550.152 107.865 550.348C108.236 550.54 108.53 550.772 108.747 551.045C108.965 551.313 109.133 551.567 109.252 551.805H109.348V546.909H111.669V560H109.393V558.453H109.252C109.133 558.692 108.96 558.945 108.735 559.214C108.509 559.478 108.21 559.704 107.84 559.891C107.469 560.079 107.002 560.173 106.44 560.173ZM107.085 558.274C107.575 558.274 107.993 558.142 108.338 557.878C108.683 557.609 108.945 557.237 109.124 556.759C109.303 556.282 109.393 555.726 109.393 555.091C109.393 554.456 109.303 553.904 109.124 553.435C108.95 552.967 108.69 552.602 108.345 552.342C108.004 552.082 107.584 551.952 107.085 551.952C106.57 551.952 106.139 552.087 105.794 552.355C105.449 552.624 105.189 552.994 105.014 553.467C104.84 553.94 104.752 554.482 104.752 555.091C104.752 555.705 104.84 556.252 105.014 556.734C105.193 557.211 105.455 557.588 105.801 557.865C106.15 558.138 106.578 558.274 107.085 558.274ZM118.701 560V546.909H121.073V552.451H127.139V546.909H129.517V560H127.139V554.439H121.073V560H118.701ZM136.276 560.192C135.317 560.192 134.487 559.981 133.783 559.559C133.08 559.137 132.535 558.547 132.147 557.788C131.763 557.03 131.572 556.143 131.572 555.129C131.572 554.115 131.763 553.227 132.147 552.464C132.535 551.701 133.08 551.109 133.783 550.687C134.487 550.265 135.317 550.054 136.276 550.054C137.235 550.054 138.066 550.265 138.769 550.687C139.472 551.109 140.016 551.701 140.399 552.464C140.787 553.227 140.981 554.115 140.981 555.129C140.981 556.143 140.787 557.03 140.399 557.788C140.016 558.547 139.472 559.137 138.769 559.559C138.066 559.981 137.235 560.192 136.276 560.192ZM136.289 558.338C136.809 558.338 137.244 558.195 137.593 557.91C137.942 557.62 138.202 557.232 138.373 556.746C138.548 556.261 138.635 555.719 138.635 555.123C138.635 554.522 138.548 553.979 138.373 553.493C138.202 553.003 137.942 552.613 137.593 552.323C137.244 552.033 136.809 551.888 136.289 551.888C135.756 551.888 135.313 552.033 134.96 552.323C134.61 552.613 134.348 553.003 134.173 553.493C134.003 553.979 133.918 554.522 133.918 555.123C133.918 555.719 134.003 556.261 134.173 556.746C134.348 557.232 134.61 557.62 134.96 557.91C135.313 558.195 135.756 558.338 136.289 558.338ZM147.227 560.192C146.247 560.192 145.406 559.977 144.703 559.546C144.004 559.116 143.465 558.521 143.085 557.763C142.71 557 142.523 556.122 142.523 555.129C142.523 554.132 142.715 553.252 143.098 552.489C143.482 551.722 144.023 551.126 144.722 550.7C145.425 550.269 146.256 550.054 147.215 550.054C148.012 550.054 148.717 550.201 149.33 550.495C149.948 550.785 150.441 551.196 150.807 551.729C151.173 552.257 151.382 552.875 151.433 553.582H149.222C149.132 553.109 148.919 552.715 148.583 552.4C148.25 552.08 147.805 551.92 147.247 551.92C146.774 551.92 146.358 552.048 146 552.304C145.642 552.555 145.363 552.918 145.163 553.391C144.967 553.864 144.869 554.43 144.869 555.091C144.869 555.76 144.967 556.335 145.163 556.817C145.359 557.294 145.634 557.663 145.987 557.923C146.345 558.178 146.765 558.306 147.247 558.306C147.588 558.306 147.892 558.242 148.161 558.114C148.433 557.982 148.661 557.793 148.845 557.545C149.028 557.298 149.154 556.998 149.222 556.644H151.433C151.378 557.339 151.173 557.955 150.82 558.491C150.466 559.024 149.985 559.442 149.375 559.744C148.766 560.043 148.05 560.192 147.227 560.192ZM157.901 560V546.909H162.912C163.858 546.909 164.644 547.058 165.271 547.357C165.901 547.651 166.372 548.053 166.683 548.565C166.999 549.076 167.156 549.656 167.156 550.303C167.156 550.836 167.054 551.292 166.849 551.671C166.645 552.046 166.37 552.351 166.025 552.585C165.68 552.82 165.294 552.988 164.868 553.09V553.218C165.332 553.244 165.778 553.386 166.204 553.646C166.634 553.902 166.986 554.264 167.259 554.733C167.531 555.202 167.668 555.768 167.668 556.433C167.668 557.111 167.504 557.72 167.175 558.261C166.847 558.798 166.353 559.222 165.692 559.533C165.032 559.844 164.201 560 163.2 560H157.901ZM160.272 558.018H162.822C163.683 558.018 164.303 557.854 164.683 557.526C165.066 557.194 165.258 556.768 165.258 556.248C165.258 555.86 165.162 555.511 164.97 555.2C164.778 554.884 164.506 554.637 164.152 554.458C163.798 554.275 163.376 554.183 162.886 554.183H160.272V558.018ZM160.272 552.477H162.618C163.027 552.477 163.396 552.402 163.724 552.253C164.052 552.099 164.31 551.884 164.497 551.607C164.689 551.326 164.785 550.994 164.785 550.61C164.785 550.103 164.606 549.685 164.248 549.357C163.894 549.029 163.368 548.865 162.669 548.865H160.272V552.477ZM172.454 560.198C171.831 560.198 171.271 560.087 170.773 559.866C170.278 559.64 169.886 559.308 169.596 558.869C169.311 558.43 169.168 557.888 169.168 557.245C169.168 556.691 169.27 556.233 169.475 555.871C169.68 555.509 169.959 555.219 170.312 555.001C170.666 554.784 171.064 554.62 171.508 554.509C171.955 554.394 172.417 554.311 172.895 554.26C173.47 554.2 173.937 554.147 174.295 554.1C174.653 554.049 174.912 553.972 175.074 553.87C175.241 553.763 175.324 553.599 175.324 553.378V553.339C175.324 552.858 175.181 552.485 174.895 552.221C174.61 551.957 174.199 551.825 173.662 551.825C173.095 551.825 172.645 551.948 172.313 552.195C171.985 552.442 171.763 552.734 171.648 553.071L169.488 552.764C169.658 552.168 169.939 551.669 170.331 551.268C170.724 550.864 171.203 550.561 171.77 550.361C172.336 550.156 172.963 550.054 173.649 550.054C174.122 550.054 174.593 550.109 175.062 550.22C175.53 550.331 175.959 550.514 176.346 550.77C176.734 551.021 177.045 551.364 177.28 551.799C177.518 552.234 177.638 552.777 177.638 553.429V560H175.413V558.651H175.336C175.196 558.924 174.998 559.18 174.742 559.418C174.491 559.653 174.173 559.842 173.79 559.987C173.41 560.128 172.965 560.198 172.454 560.198ZM173.055 558.498C173.519 558.498 173.922 558.406 174.263 558.223C174.604 558.036 174.866 557.788 175.049 557.482C175.236 557.175 175.33 556.84 175.33 556.478V555.321C175.258 555.381 175.134 555.436 174.959 555.487C174.789 555.538 174.597 555.583 174.384 555.621C174.171 555.66 173.96 555.694 173.751 555.724C173.542 555.754 173.361 555.779 173.208 555.8C172.863 555.847 172.554 555.924 172.281 556.031C172.008 556.137 171.793 556.286 171.635 556.478C171.478 556.665 171.399 556.908 171.399 557.207C171.399 557.633 171.555 557.955 171.866 558.172C172.177 558.389 172.573 558.498 173.055 558.498ZM187.724 552.777L185.615 553.007C185.555 552.794 185.451 552.594 185.302 552.406C185.157 552.219 184.961 552.067 184.714 551.952C184.466 551.837 184.164 551.78 183.806 551.78C183.324 551.78 182.92 551.884 182.591 552.093C182.268 552.302 182.108 552.572 182.112 552.905C182.108 553.19 182.212 553.423 182.425 553.602C182.643 553.781 183.001 553.928 183.499 554.043L185.174 554.401C186.103 554.601 186.793 554.918 187.245 555.353C187.701 555.788 187.931 556.357 187.935 557.06C187.931 557.678 187.75 558.223 187.392 558.696C187.038 559.165 186.546 559.531 185.915 559.795C185.285 560.06 184.56 560.192 183.742 560.192C182.54 560.192 181.573 559.94 180.84 559.438C180.107 558.93 179.67 558.225 179.53 557.322L181.786 557.104C181.888 557.548 182.106 557.882 182.438 558.108C182.77 558.334 183.203 558.447 183.736 558.447C184.285 558.447 184.726 558.334 185.059 558.108C185.395 557.882 185.564 557.603 185.564 557.271C185.564 556.989 185.455 556.757 185.238 556.574C185.025 556.391 184.692 556.25 184.241 556.152L182.566 555.8C181.624 555.604 180.927 555.274 180.476 554.81C180.024 554.341 179.8 553.749 179.805 553.033C179.8 552.428 179.964 551.903 180.297 551.46C180.633 551.013 181.1 550.668 181.697 550.425C182.297 550.178 182.99 550.054 183.774 550.054C184.925 550.054 185.83 550.299 186.491 550.789C187.155 551.279 187.567 551.942 187.724 552.777ZM189.843 560V550.182H192.157V560H189.843ZM191.007 548.788C190.64 548.788 190.325 548.667 190.061 548.424C189.796 548.177 189.664 547.881 189.664 547.536C189.664 547.186 189.796 546.89 190.061 546.647C190.325 546.4 190.64 546.276 191.007 546.276C191.377 546.276 191.693 546.4 191.953 546.647C192.217 546.89 192.349 547.186 192.349 547.536C192.349 547.881 192.217 548.177 191.953 548.424C191.693 548.667 191.377 548.788 191.007 548.788ZM202.297 552.777L200.187 553.007C200.127 552.794 200.023 552.594 199.874 552.406C199.729 552.219 199.533 552.067 199.286 551.952C199.039 551.837 198.736 551.78 198.378 551.78C197.897 551.78 197.492 551.884 197.164 552.093C196.84 552.302 196.68 552.572 196.684 552.905C196.68 553.19 196.784 553.423 196.998 553.602C197.215 553.781 197.573 553.928 198.071 554.043L199.746 554.401C200.675 554.601 201.365 554.918 201.817 555.353C202.273 555.788 202.503 556.357 202.507 557.06C202.503 557.678 202.322 558.223 201.964 558.696C201.61 559.165 201.118 559.531 200.488 559.795C199.857 560.06 199.132 560.192 198.314 560.192C197.113 560.192 196.145 559.94 195.412 559.438C194.679 558.93 194.243 558.225 194.102 557.322L196.358 557.104C196.461 557.548 196.678 557.882 197.01 558.108C197.343 558.334 197.775 558.447 198.308 558.447C198.858 558.447 199.299 558.334 199.631 558.108C199.968 557.882 200.136 557.603 200.136 557.271C200.136 556.989 200.027 556.757 199.81 556.574C199.597 556.391 199.265 556.25 198.813 556.152L197.138 555.8C196.196 555.604 195.5 555.274 195.048 554.81C194.596 554.341 194.373 553.749 194.377 553.033C194.373 552.428 194.537 551.903 194.869 551.46C195.206 551.013 195.672 550.668 196.269 550.425C196.87 550.178 197.562 550.054 198.346 550.054C199.497 550.054 200.402 550.299 201.063 550.789C201.728 551.279 202.139 551.942 202.297 552.777Z" fill="#203E54"/>
<rect y="315" width="380" height="140" fill="#E7A80D"/>
<circle cx="309" cy="385" r="50" fill="white"/>
<path d="M327.9 363.4H325.2V360.7C325.2 359.08 324.12 358 322.5 358C320.88 358 319.8 359.08 319.8 360.7V363.4H298.2V360.7C298.2 359.08 297.12 358 295.5 358C293.88 358 292.8 359.08 292.8 360.7V363.4H290.1C285.51 363.4 282 366.91 282 371.5V374.2H336V371.5C336 366.91 332.49 363.4 327.9 363.4ZM282 403.9C282 408.49 285.51 412 290.1 412H327.9C332.49 412 336 408.49 336 403.9V379.6H282V403.9ZM322.5 385C324.12 385 325.2 386.08 325.2 387.7C325.2 389.32 324.12 390.4 322.5 390.4C320.88 390.4 319.8 389.32 319.8 387.7C319.8 386.08 320.88 385 322.5 385ZM322.5 395.8C324.12 395.8 325.2 396.88 325.2 398.5C325.2 400.12 324.12 401.2 322.5 401.2C320.88 401.2 319.8 400.12 319.8 398.5C319.8 396.88 320.88 395.8 322.5 395.8ZM309 385C310.62 385 311.7 386.08 311.7 387.7C311.7 389.32 310.62 390.4 309 390.4C307.38 390.4 306.3 389.32 306.3 387.7C306.3 386.08 307.38 385 309 385ZM309 395.8C310.62 395.8 311.7 396.88 311.7 398.5C311.7 400.12 310.62 401.2 309 401.2C307.38 401.2 306.3 400.12 306.3 398.5C306.3 396.88 307.38 395.8 309 395.8ZM295.5 385C297.12 385 298.2 386.08 298.2 387.7C298.2 389.32 297.12 390.4 295.5 390.4C293.88 390.4 292.8 389.32 292.8 387.7C292.8 386.08 293.88 385 295.5 385ZM295.5 395.8C297.12 395.8 298.2 396.88 298.2 398.5C298.2 400.12 297.12 401.2 295.5 401.2C293.88 401.2 292.8 400.12 292.8 398.5C292.8 396.88 293.88 395.8 295.5 395.8Z" fill="#E7A80D"/>
<rect y="304" width="156" height="36" fill="#D0006F"/>
<path d="M45.108 319.29H42.983C42.9223 318.941 42.8106 318.633 42.6477 318.364C42.4848 318.091 42.2822 317.86 42.0398 317.67C41.7973 317.481 41.5208 317.339 41.2102 317.244C40.9034 317.146 40.572 317.097 40.2159 317.097C39.5833 317.097 39.0227 317.256 38.5341 317.574C38.0455 317.888 37.6629 318.35 37.3864 318.96C37.1098 319.566 36.9716 320.307 36.9716 321.182C36.9716 322.072 37.1098 322.822 37.3864 323.432C37.6667 324.038 38.0492 324.496 38.5341 324.807C39.0227 325.114 39.5814 325.267 40.2102 325.267C40.5587 325.267 40.8845 325.222 41.1875 325.131C41.4943 325.036 41.7689 324.898 42.0114 324.716C42.2576 324.534 42.464 324.311 42.6307 324.045C42.8011 323.78 42.9186 323.477 42.983 323.136L45.108 323.148C45.0284 323.701 44.8561 324.22 44.5909 324.705C44.3295 325.189 43.9867 325.617 43.5625 325.989C43.1383 326.356 42.642 326.644 42.0739 326.852C41.5057 327.057 40.875 327.159 40.1818 327.159C39.1591 327.159 38.2462 326.922 37.4432 326.449C36.6402 325.975 36.0076 325.292 35.5455 324.398C35.0833 323.504 34.8523 322.432 34.8523 321.182C34.8523 319.928 35.0852 318.856 35.5511 317.966C36.017 317.072 36.6515 316.388 37.4545 315.915C38.2576 315.441 39.1667 315.205 40.1818 315.205C40.8295 315.205 41.4318 315.295 41.9886 315.477C42.5455 315.659 43.0417 315.926 43.4773 316.278C43.9129 316.627 44.2708 317.055 44.5511 317.562C44.8352 318.066 45.0208 318.642 45.108 319.29ZM48.392 327H46.142L50.2386 315.364H52.8409L56.9432 327H54.6932L51.5852 317.75H51.4943L48.392 327ZM48.4659 322.438H54.6023V324.131H48.4659V322.438ZM58.4759 327V315.364H60.5838V325.233H65.7088V327H58.4759ZM67.5384 327V315.364H75.1065V317.131H69.6463V320.29H74.7145V322.057H69.6463V325.233H75.152V327H67.5384ZM86.8196 315.364V327H84.9446L79.4616 319.074H79.3651V327H77.2571V315.364H79.1435L84.6207 323.295H84.723V315.364H86.8196ZM93.0597 327H89.1165V315.364H93.1392C94.2945 315.364 95.2869 315.597 96.1165 316.062C96.9498 316.525 97.59 317.189 98.0369 318.057C98.4839 318.924 98.7074 319.962 98.7074 321.17C98.7074 322.383 98.482 323.424 98.0312 324.295C97.5843 325.167 96.9384 325.835 96.0938 326.301C95.2528 326.767 94.2415 327 93.0597 327ZM91.2244 325.176H92.9574C93.768 325.176 94.4441 325.028 94.9858 324.733C95.5275 324.434 95.9347 323.989 96.2074 323.398C96.4801 322.803 96.6165 322.061 96.6165 321.17C96.6165 320.28 96.4801 319.542 96.2074 318.955C95.9347 318.364 95.5313 317.922 94.9972 317.631C94.4669 317.335 93.8078 317.188 93.0199 317.188H91.2244V325.176ZM101.58 327H99.3295L103.426 315.364H106.028L110.131 327H107.881L104.773 317.75H104.682L101.58 327ZM101.653 322.438H107.79V324.131H101.653V322.438ZM111.663 327V315.364H116.027C116.921 315.364 117.671 315.519 118.277 315.83C118.887 316.14 119.347 316.576 119.658 317.136C119.972 317.693 120.129 318.343 120.129 319.085C120.129 319.831 119.97 320.479 119.652 321.028C119.338 321.574 118.874 321.996 118.26 322.295C117.646 322.591 116.893 322.739 115.999 322.739H112.891V320.989H115.714C116.237 320.989 116.665 320.917 116.999 320.773C117.332 320.625 117.578 320.411 117.737 320.131C117.9 319.847 117.982 319.498 117.982 319.085C117.982 318.672 117.9 318.32 117.737 318.028C117.574 317.733 117.326 317.509 116.993 317.358C116.66 317.203 116.23 317.125 115.703 317.125H113.771V327H111.663ZM117.675 321.727L120.555 327H118.203L115.374 321.727H117.675Z" fill="#EAE8E8"/>
</svg>
