<svg width="380" height="600" viewBox="0 0 380 600" fill="none" xmlns="http://www.w3.org/2000/svg">
<rect y="12" width="380" height="140" fill="#D3DD48"/>
<circle cx="309" cy="82" r="50" fill="white"/>
<path fill-rule="evenodd" clip-rule="evenodd" d="M315.833 59.6458C315.833 59.2891 315.544 59 315.188 59H297.104C293.181 59 290 62.1806 290 66.1042V102.271C290 106.194 293.181 109.375 297.104 109.375H322.938C326.861 109.375 330.042 106.194 330.042 102.271V76.8174C330.042 76.4607 329.753 76.1716 329.396 76.1716H317.771C316.701 76.1716 315.833 75.3041 315.833 74.2341V59.6458ZM317.771 84.8333C318.841 84.8333 319.708 85.7008 319.708 86.7708C319.708 87.8409 318.841 88.7083 317.771 88.7083H302.271C301.201 88.7083 300.333 87.8409 300.333 86.7708C300.333 85.7008 301.201 84.8333 302.271 84.8333H317.771ZM317.771 95.1667C318.841 95.1667 319.708 96.0341 319.708 97.1042C319.708 98.1742 318.841 99.0417 317.771 99.0417H302.271C301.201 99.0417 300.333 98.1742 300.333 97.1042C300.333 96.0341 301.201 95.1667 302.271 95.1667H317.771Z" fill="#D3DD48"/>
<path d="M319.708 60.4832C319.708 60.0066 320.206 59.7039 320.577 60.0033C320.889 60.2555 321.17 60.5509 321.41 60.8847L329.194 71.7292C329.371 71.9761 329.179 72.2966 328.875 72.2966H320.354C319.997 72.2966 319.708 72.0074 319.708 71.6507V60.4832Z" fill="#D3DD48"/>
<rect width="156" height="36" fill="#D0006F"/>
<path d="M29.1477 23V11.3636H33.5114C34.4053 11.3636 35.1553 11.5189 35.7614 11.8295C36.3712 12.1402 36.8314 12.5758 37.142 13.1364C37.4564 13.6932 37.6136 14.3428 37.6136 15.0852C37.6136 15.8314 37.4545 16.4792 37.1364 17.0284C36.822 17.5739 36.358 17.9962 35.7443 18.2955C35.1307 18.5909 34.3769 18.7386 33.483 18.7386H30.375V16.9886H33.1989C33.7216 16.9886 34.1496 16.9167 34.483 16.7727C34.8163 16.625 35.0625 16.411 35.2216 16.1307C35.3845 15.8466 35.4659 15.4981 35.4659 15.0852C35.4659 14.6723 35.3845 14.3201 35.2216 14.0284C35.0587 13.733 34.8106 13.5095 34.4773 13.358C34.1439 13.2027 33.714 13.125 33.1875 13.125H31.2557V23H29.1477ZM35.1591 17.7273L38.0398 23H35.6875L32.858 17.7273H35.1591ZM39.554 23V11.3636H47.1222V13.1307H41.6619V16.2898H46.7301V18.0568H41.6619V21.233H47.1676V23H39.554ZM55.5966 14.5625C55.5436 14.0663 55.3201 13.6799 54.9261 13.4034C54.536 13.1269 54.0284 12.9886 53.4034 12.9886C52.964 12.9886 52.5871 13.0549 52.2727 13.1875C51.9583 13.3201 51.7178 13.5 51.5511 13.7273C51.3845 13.9545 51.2992 14.214 51.2955 14.5057C51.2955 14.7481 51.3504 14.9583 51.4602 15.1364C51.5739 15.3144 51.7273 15.4659 51.9205 15.5909C52.1136 15.7121 52.3277 15.8144 52.5625 15.8977C52.7973 15.9811 53.0341 16.0511 53.2727 16.108L54.3636 16.3807C54.803 16.483 55.2254 16.6212 55.6307 16.7955C56.0398 16.9697 56.4053 17.1894 56.7273 17.4545C57.053 17.7197 57.3106 18.0398 57.5 18.4148C57.6894 18.7898 57.7841 19.2292 57.7841 19.733C57.7841 20.4148 57.6098 21.0152 57.2614 21.5341C56.9129 22.0492 56.4091 22.4527 55.75 22.7443C55.0947 23.0322 54.3011 23.1761 53.3693 23.1761C52.464 23.1761 51.678 23.036 51.0114 22.7557C50.3485 22.4754 49.8295 22.0663 49.4545 21.5284C49.0833 20.9905 48.8826 20.3352 48.8523 19.5625H50.9261C50.9564 19.9678 51.0814 20.3049 51.3011 20.5739C51.5208 20.8428 51.8068 21.0436 52.1591 21.1761C52.5152 21.3087 52.9129 21.375 53.3523 21.375C53.8106 21.375 54.2121 21.3068 54.5568 21.1705C54.9053 21.0303 55.178 20.8371 55.375 20.5909C55.572 20.3409 55.6723 20.0492 55.6761 19.7159C55.6723 19.4129 55.5833 19.1629 55.4091 18.9659C55.2348 18.7652 54.9905 18.5985 54.6761 18.4659C54.3655 18.3295 54.0019 18.2083 53.5852 18.1023L52.2614 17.7614C51.303 17.5152 50.5455 17.142 49.9886 16.642C49.4356 16.1383 49.1591 15.4697 49.1591 14.6364C49.1591 13.9508 49.3447 13.3504 49.7159 12.8352C50.0909 12.3201 50.6004 11.9205 51.2443 11.6364C51.8883 11.3485 52.6174 11.2045 53.4318 11.2045C54.2576 11.2045 54.9811 11.3485 55.6023 11.6364C56.2273 11.9205 56.7178 12.3163 57.0739 12.8239C57.4299 13.3277 57.6136 13.9072 57.625 14.5625H55.5966ZM70.0611 17.1818C70.0611 18.4356 69.8262 19.5095 69.3565 20.4034C68.8906 21.2936 68.2543 21.9754 67.4474 22.4489C66.6444 22.9223 65.7334 23.1591 64.7145 23.1591C63.6955 23.1591 62.7827 22.9223 61.9759 22.4489C61.1728 21.9716 60.5365 21.2879 60.0668 20.3977C59.6009 19.5038 59.3679 18.4318 59.3679 17.1818C59.3679 15.928 59.6009 14.8561 60.0668 13.9659C60.5365 13.072 61.1728 12.3883 61.9759 11.9148C62.7827 11.4413 63.6955 11.2045 64.7145 11.2045C65.7334 11.2045 66.6444 11.4413 67.4474 11.9148C68.2543 12.3883 68.8906 13.072 69.3565 13.9659C69.8262 14.8561 70.0611 15.928 70.0611 17.1818ZM67.9418 17.1818C67.9418 16.2992 67.8035 15.5549 67.527 14.9489C67.2543 14.339 66.8755 13.8788 66.3906 13.5682C65.9058 13.2538 65.3471 13.0966 64.7145 13.0966C64.0819 13.0966 63.5232 13.2538 63.0384 13.5682C62.5535 13.8788 62.1728 14.339 61.8963 14.9489C61.6236 15.5549 61.4872 16.2992 61.4872 17.1818C61.4872 18.0644 61.6236 18.8106 61.8963 19.4205C62.1728 20.0265 62.5535 20.4867 63.0384 20.8011C63.5232 21.1117 64.0819 21.267 64.7145 21.267C65.3471 21.267 65.9058 21.1117 66.3906 20.8011C66.8755 20.4867 67.2543 20.0265 67.527 19.4205C67.8035 18.8106 67.9418 18.0644 67.9418 17.1818ZM79.3892 11.3636H81.4972V18.9659C81.4972 19.7992 81.3002 20.5322 80.9062 21.1648C80.5161 21.7973 79.9669 22.2917 79.2585 22.6477C78.5502 23 77.7225 23.1761 76.7756 23.1761C75.8248 23.1761 74.9953 23 74.2869 22.6477C73.5786 22.2917 73.0294 21.7973 72.6392 21.1648C72.2491 20.5322 72.054 19.7992 72.054 18.9659V11.3636H74.1619V18.7898C74.1619 19.2746 74.268 19.7064 74.4801 20.0852C74.696 20.464 74.9991 20.7614 75.3892 20.9773C75.7794 21.1894 76.2415 21.2955 76.7756 21.2955C77.3097 21.2955 77.7718 21.1894 78.1619 20.9773C78.5559 20.7614 78.8589 20.464 79.071 20.0852C79.2831 19.7064 79.3892 19.2746 79.3892 18.7898V11.3636ZM83.7884 23V11.3636H88.152C89.0459 11.3636 89.7959 11.5189 90.402 11.8295C91.0118 12.1402 91.4721 12.5758 91.7827 13.1364C92.0971 13.6932 92.2543 14.3428 92.2543 15.0852C92.2543 15.8314 92.0952 16.4792 91.777 17.0284C91.4626 17.5739 90.9986 17.9962 90.3849 18.2955C89.7713 18.5909 89.0175 18.7386 88.1236 18.7386H85.0156V16.9886H87.8395C88.3622 16.9886 88.7902 16.9167 89.1236 16.7727C89.4569 16.625 89.7031 16.411 89.8622 16.1307C90.0251 15.8466 90.1065 15.4981 90.1065 15.0852C90.1065 14.6723 90.0251 14.3201 89.8622 14.0284C89.6993 13.733 89.4512 13.5095 89.1179 13.358C88.7846 13.2027 88.3546 13.125 87.8281 13.125H85.8963V23H83.7884ZM89.7997 17.7273L92.6804 23H90.3281L87.4986 17.7273H89.7997ZM104.155 15.2898H102.03C101.969 14.9413 101.857 14.6326 101.695 14.3636C101.532 14.0909 101.329 13.8598 101.087 13.6705C100.844 13.4811 100.568 13.339 100.257 13.2443C99.9503 13.1458 99.6188 13.0966 99.2628 13.0966C98.6302 13.0966 98.0696 13.2557 97.581 13.5739C97.0923 13.8883 96.7098 14.3504 96.4332 14.9602C96.1567 15.5663 96.0185 16.3068 96.0185 17.1818C96.0185 18.072 96.1567 18.822 96.4332 19.4318C96.7135 20.0379 97.0961 20.4962 97.581 20.8068C98.0696 21.1136 98.6283 21.267 99.2571 21.267C99.6056 21.267 99.9313 21.2216 100.234 21.1307C100.541 21.036 100.816 20.8977 101.058 20.7159C101.304 20.5341 101.511 20.3106 101.678 20.0455C101.848 19.7803 101.965 19.4773 102.03 19.1364L104.155 19.1477C104.075 19.7008 103.903 20.2197 103.638 20.7045C103.376 21.1894 103.034 21.6174 102.609 21.9886C102.185 22.3561 101.689 22.6439 101.121 22.8523C100.553 23.0568 99.9219 23.1591 99.2287 23.1591C98.206 23.1591 97.2931 22.9223 96.4901 22.4489C95.687 21.9754 95.0545 21.2917 94.5923 20.3977C94.1302 19.5038 93.8991 18.4318 93.8991 17.1818C93.8991 15.928 94.1321 14.8561 94.598 13.9659C95.0639 13.072 95.6984 12.3883 96.5014 11.9148C97.3045 11.4413 98.2135 11.2045 99.2287 11.2045C99.8764 11.2045 100.479 11.2955 101.036 11.4773C101.592 11.6591 102.089 11.9261 102.524 12.2784C102.96 12.6269 103.318 13.0549 103.598 13.5625C103.882 14.0663 104.068 14.642 104.155 15.2898ZM106.085 23V11.3636H113.653V13.1307H108.193V16.2898H113.261V18.0568H108.193V21.233H113.699V23H106.085ZM122.128 14.5625C122.075 14.0663 121.851 13.6799 121.457 13.4034C121.067 13.1269 120.56 12.9886 119.935 12.9886C119.495 12.9886 119.118 13.0549 118.804 13.1875C118.49 13.3201 118.249 13.5 118.082 13.7273C117.916 13.9545 117.83 14.214 117.827 14.5057C117.827 14.7481 117.882 14.9583 117.991 15.1364C118.105 15.3144 118.259 15.4659 118.452 15.5909C118.645 15.7121 118.859 15.8144 119.094 15.8977C119.329 15.9811 119.565 16.0511 119.804 16.108L120.895 16.3807C121.334 16.483 121.757 16.6212 122.162 16.7955C122.571 16.9697 122.937 17.1894 123.259 17.4545C123.584 17.7197 123.842 18.0398 124.031 18.4148C124.221 18.7898 124.315 19.2292 124.315 19.733C124.315 20.4148 124.141 21.0152 123.793 21.5341C123.444 22.0492 122.94 22.4527 122.281 22.7443C121.626 23.0322 120.832 23.1761 119.901 23.1761C118.995 23.1761 118.209 23.036 117.543 22.7557C116.88 22.4754 116.361 22.0663 115.986 21.5284C115.615 20.9905 115.414 20.3352 115.384 19.5625H117.457C117.488 19.9678 117.613 20.3049 117.832 20.5739C118.052 20.8428 118.338 21.0436 118.69 21.1761C119.046 21.3087 119.444 21.375 119.884 21.375C120.342 21.375 120.743 21.3068 121.088 21.1705C121.437 21.0303 121.709 20.8371 121.906 20.5909C122.103 20.3409 122.204 20.0492 122.207 19.7159C122.204 19.4129 122.115 19.1629 121.94 18.9659C121.766 18.7652 121.522 18.5985 121.207 18.4659C120.897 18.3295 120.533 18.2083 120.116 18.1023L118.793 17.7614C117.834 17.5152 117.077 17.142 116.52 16.642C115.967 16.1383 115.69 15.4697 115.69 14.6364C115.69 13.9508 115.876 13.3504 116.247 12.8352C116.622 12.3201 117.132 11.9205 117.776 11.6364C118.42 11.3485 119.149 11.2045 119.963 11.2045C120.789 11.2045 121.512 11.3485 122.134 11.6364C122.759 11.9205 123.249 12.3163 123.605 12.8239C123.961 13.3277 124.145 13.9072 124.156 14.5625H122.128Z" fill="#EAE8E8"/>
<rect width="380" height="51" transform="translate(0 166)" fill="white"/>
<circle cx="27.5" cy="191.5" r="22.5" fill="#E7A80D"/>
<path d="M25.8409 200.739V184.648H29.9091V200.739H25.8409ZM19.8295 194.727V190.659H35.9205V194.727H19.8295Z" fill="white"/>
<path d="M67.2912 198.5V185.409H72.3026C73.2486 185.409 74.0348 185.558 74.6612 185.857C75.2919 186.151 75.7628 186.553 76.0739 187.065C76.3892 187.576 76.5469 188.156 76.5469 188.803C76.5469 189.336 76.4446 189.792 76.2401 190.171C76.0355 190.546 75.7607 190.851 75.4155 191.085C75.0703 191.32 74.6847 191.488 74.2585 191.59V191.718C74.723 191.744 75.1683 191.886 75.5945 192.146C76.0249 192.402 76.3764 192.764 76.6491 193.233C76.9219 193.702 77.0582 194.268 77.0582 194.933C77.0582 195.611 76.8942 196.22 76.5661 196.761C76.2379 197.298 75.7436 197.722 75.0831 198.033C74.4226 198.344 73.5916 198.5 72.5902 198.5H67.2912ZM69.6626 196.518H72.2131C73.0739 196.518 73.6939 196.354 74.0732 196.026C74.4567 195.694 74.6484 195.268 74.6484 194.748C74.6484 194.36 74.5526 194.011 74.3608 193.7C74.169 193.384 73.8963 193.137 73.5426 192.958C73.1889 192.775 72.767 192.683 72.277 192.683H69.6626V196.518ZM69.6626 190.977H72.0085C72.4176 190.977 72.7862 190.902 73.1143 190.753C73.4425 190.599 73.7003 190.384 73.8878 190.107C74.0795 189.826 74.1754 189.494 74.1754 189.11C74.1754 188.603 73.9964 188.185 73.6385 187.857C73.2848 187.529 72.7585 187.365 72.0597 187.365H69.6626V190.977ZM79.1213 198.5V185.409H84.1326C85.0787 185.409 85.8649 185.558 86.4913 185.857C87.122 186.151 87.5929 186.553 87.9039 187.065C88.2193 187.576 88.377 188.156 88.377 188.803C88.377 189.336 88.2747 189.792 88.0701 190.171C87.8656 190.546 87.5907 190.851 87.2456 191.085C86.9004 191.32 86.5147 191.488 86.0886 191.59V191.718C86.5531 191.744 86.9984 191.886 87.4245 192.146C87.8549 192.402 88.2065 192.764 88.4792 193.233C88.752 193.702 88.8883 194.268 88.8883 194.933C88.8883 195.611 88.7243 196.22 88.3961 196.761C88.068 197.298 87.5737 197.722 86.9132 198.033C86.2527 198.344 85.4217 198.5 84.4203 198.5H79.1213ZM81.4927 196.518H84.0431C84.9039 196.518 85.524 196.354 85.9032 196.026C86.2868 195.694 86.4785 195.268 86.4785 194.748C86.4785 194.36 86.3826 194.011 86.1909 193.7C85.9991 193.384 85.7264 193.137 85.3727 192.958C85.019 192.775 84.5971 192.683 84.1071 192.683H81.4927V196.518ZM81.4927 190.977H83.8386C84.2477 190.977 84.6163 190.902 84.9444 190.753C85.2726 190.599 85.5304 190.384 85.7179 190.107C85.9096 189.826 86.0055 189.494 86.0055 189.11C86.0055 188.603 85.8265 188.185 85.4686 187.857C85.1149 187.529 84.5886 187.365 83.8897 187.365H81.4927V190.977ZM99.2035 185.409H101.575V193.962C101.575 194.899 101.353 195.724 100.91 196.435C100.471 197.147 99.8533 197.703 99.0565 198.104C98.2596 198.5 97.3285 198.698 96.2631 198.698C95.1935 198.698 94.2603 198.5 93.4634 198.104C92.6665 197.703 92.0487 197.147 91.6097 196.435C91.1708 195.724 90.9513 194.899 90.9513 193.962V185.409H93.3228V193.763C93.3228 194.309 93.4421 194.795 93.6808 195.221C93.9237 195.647 94.2646 195.982 94.7035 196.224C95.1424 196.463 95.6623 196.582 96.2631 196.582C96.864 196.582 97.3839 196.463 97.8228 196.224C98.266 195.982 98.6069 195.647 98.8455 195.221C99.0842 194.795 99.2035 194.309 99.2035 193.763V185.409ZM113.859 184.795L109.64 200.469H107.614L111.833 184.795H113.859ZM131.6 191.955C131.6 193.365 131.336 194.573 130.807 195.579C130.283 196.58 129.567 197.347 128.66 197.88C127.756 198.413 126.731 198.679 125.585 198.679C124.439 198.679 123.412 198.413 122.504 197.88C121.601 197.343 120.885 196.574 120.356 195.572C119.832 194.567 119.57 193.361 119.57 191.955C119.57 190.544 119.832 189.338 120.356 188.337C120.885 187.331 121.601 186.562 122.504 186.029C123.412 185.496 124.439 185.23 125.585 185.23C126.731 185.23 127.756 185.496 128.66 186.029C129.567 186.562 130.283 187.331 130.807 188.337C131.336 189.338 131.6 190.544 131.6 191.955ZM129.216 191.955C129.216 190.962 129.06 190.124 128.749 189.442C128.442 188.756 128.016 188.239 127.471 187.889C126.925 187.536 126.297 187.359 125.585 187.359C124.873 187.359 124.245 187.536 123.699 187.889C123.154 188.239 122.726 188.756 122.415 189.442C122.108 190.124 121.954 190.962 121.954 191.955C121.954 192.947 122.108 193.787 122.415 194.473C122.726 195.155 123.154 195.673 123.699 196.026C124.245 196.376 124.873 196.55 125.585 196.55C126.297 196.55 126.925 196.376 127.471 196.026C128.016 195.673 128.442 195.155 128.749 194.473C129.06 193.787 129.216 192.947 129.216 191.955ZM133.842 198.5V185.409H138.853C139.799 185.409 140.586 185.558 141.212 185.857C141.843 186.151 142.314 186.553 142.625 187.065C142.94 187.576 143.098 188.156 143.098 188.803C143.098 189.336 142.995 189.792 142.791 190.171C142.586 190.546 142.311 190.851 141.966 191.085C141.621 191.32 141.235 191.488 140.809 191.59V191.718C141.274 191.744 141.719 191.886 142.145 192.146C142.576 192.402 142.927 192.764 143.2 193.233C143.473 193.702 143.609 194.268 143.609 194.933C143.609 195.611 143.445 196.22 143.117 196.761C142.789 197.298 142.294 197.722 141.634 198.033C140.973 198.344 140.142 198.5 139.141 198.5H133.842ZM136.213 196.518H138.764C139.625 196.518 140.245 196.354 140.624 196.026C141.007 195.694 141.199 195.268 141.199 194.748C141.199 194.36 141.103 194.011 140.912 193.7C140.72 193.384 140.447 193.137 140.093 192.958C139.74 192.775 139.318 192.683 138.828 192.683H136.213V196.518ZM136.213 190.977H138.559C138.968 190.977 139.337 190.902 139.665 190.753C139.993 190.599 140.251 190.384 140.439 190.107C140.63 189.826 140.726 189.494 140.726 189.11C140.726 188.603 140.547 188.185 140.189 187.857C139.836 187.529 139.309 187.365 138.61 187.365H136.213V190.977ZM153.924 185.409H156.296V193.962C156.296 194.899 156.074 195.724 155.631 196.435C155.192 197.147 154.574 197.703 153.777 198.104C152.98 198.5 152.049 198.698 150.984 198.698C149.914 198.698 148.981 198.5 148.184 198.104C147.387 197.703 146.769 197.147 146.33 196.435C145.892 195.724 145.672 194.899 145.672 193.962V185.409H148.044V193.763C148.044 194.309 148.163 194.795 148.401 195.221C148.644 195.647 148.985 195.982 149.424 196.224C149.863 196.463 150.383 196.582 150.984 196.582C151.585 196.582 152.105 196.463 152.544 196.224C152.987 195.982 153.328 195.647 153.566 195.221C153.805 194.795 153.924 194.309 153.924 193.763V185.409ZM163.338 198.5V185.409H168.247C169.253 185.409 170.097 185.584 170.778 185.933C171.464 186.283 171.982 186.773 172.332 187.403C172.685 188.03 172.862 188.761 172.862 189.596C172.862 190.435 172.683 191.164 172.325 191.782C171.972 192.396 171.45 192.871 170.759 193.207C170.069 193.54 169.221 193.706 168.215 193.706H164.719V191.737H167.896C168.484 191.737 168.965 191.656 169.34 191.494C169.715 191.328 169.992 191.087 170.171 190.772C170.354 190.452 170.446 190.06 170.446 189.596C170.446 189.131 170.354 188.735 170.171 188.407C169.988 188.075 169.709 187.823 169.334 187.653C168.959 187.478 168.475 187.391 167.883 187.391H165.71V198.5H163.338ZM170.101 192.568L173.342 198.5H170.695L167.512 192.568H170.101ZM179.149 198.692C178.164 198.692 177.314 198.487 176.598 198.078C175.887 197.665 175.339 197.081 174.956 196.327C174.572 195.568 174.38 194.675 174.38 193.648C174.38 192.638 174.572 191.752 174.956 190.989C175.343 190.222 175.885 189.626 176.579 189.2C177.274 188.769 178.09 188.554 179.027 188.554C179.632 188.554 180.203 188.652 180.74 188.848C181.282 189.04 181.759 189.338 182.172 189.743C182.59 190.148 182.918 190.663 183.157 191.29C183.395 191.912 183.515 192.653 183.515 193.514V194.224H175.467V192.664H181.297C181.292 192.221 181.196 191.827 181.009 191.482C180.821 191.132 180.559 190.857 180.223 190.657C179.89 190.457 179.502 190.357 179.059 190.357C178.586 190.357 178.171 190.472 177.813 190.702C177.455 190.928 177.176 191.226 176.975 191.597C176.779 191.963 176.679 192.366 176.675 192.805V194.166C176.675 194.737 176.779 195.227 176.988 195.636C177.197 196.041 177.489 196.352 177.864 196.57C178.239 196.783 178.678 196.889 179.181 196.889C179.517 196.889 179.822 196.842 180.095 196.749C180.368 196.651 180.604 196.508 180.804 196.32C181.005 196.133 181.156 195.901 181.258 195.624L183.419 195.866C183.282 196.437 183.022 196.936 182.639 197.362C182.26 197.784 181.774 198.112 181.181 198.347C180.589 198.577 179.912 198.692 179.149 198.692ZM193.232 191.277L191.123 191.507C191.063 191.294 190.959 191.094 190.809 190.906C190.665 190.719 190.469 190.567 190.221 190.452C189.974 190.337 189.672 190.28 189.314 190.28C188.832 190.28 188.427 190.384 188.099 190.593C187.775 190.802 187.616 191.072 187.62 191.405C187.616 191.69 187.72 191.923 187.933 192.102C188.15 192.281 188.508 192.428 189.007 192.543L190.682 192.901C191.611 193.101 192.301 193.418 192.753 193.853C193.209 194.288 193.439 194.857 193.443 195.56C193.439 196.178 193.258 196.723 192.9 197.196C192.546 197.665 192.054 198.031 191.423 198.295C190.792 198.56 190.068 198.692 189.25 198.692C188.048 198.692 187.081 198.44 186.348 197.938C185.615 197.43 185.178 196.725 185.037 195.822L187.294 195.604C187.396 196.048 187.613 196.382 187.946 196.608C188.278 196.834 188.711 196.947 189.243 196.947C189.793 196.947 190.234 196.834 190.567 196.608C190.903 196.382 191.072 196.103 191.072 195.771C191.072 195.489 190.963 195.257 190.746 195.074C190.532 194.891 190.2 194.75 189.748 194.652L188.074 194.3C187.132 194.104 186.435 193.774 185.983 193.31C185.532 192.841 185.308 192.249 185.312 191.533C185.308 190.928 185.472 190.403 185.805 189.96C186.141 189.513 186.608 189.168 187.204 188.925C187.805 188.678 188.498 188.554 189.282 188.554C190.432 188.554 191.338 188.799 191.998 189.289C192.663 189.779 193.074 190.442 193.232 191.277ZM199.634 198.692C198.675 198.692 197.844 198.481 197.141 198.059C196.438 197.637 195.892 197.047 195.504 196.288C195.121 195.53 194.929 194.643 194.929 193.629C194.929 192.615 195.121 191.727 195.504 190.964C195.892 190.201 196.438 189.609 197.141 189.187C197.844 188.765 198.675 188.554 199.634 188.554C200.593 188.554 201.423 188.765 202.127 189.187C202.83 189.609 203.373 190.201 203.757 190.964C204.144 191.727 204.338 192.615 204.338 193.629C204.338 194.643 204.144 195.53 203.757 196.288C203.373 197.047 202.83 197.637 202.127 198.059C201.423 198.481 200.593 198.692 199.634 198.692ZM199.646 196.838C200.166 196.838 200.601 196.695 200.95 196.41C201.3 196.12 201.56 195.732 201.73 195.246C201.905 194.761 201.992 194.219 201.992 193.623C201.992 193.022 201.905 192.479 201.73 191.993C201.56 191.503 201.3 191.113 200.95 190.823C200.601 190.533 200.166 190.388 199.646 190.388C199.114 190.388 198.671 190.533 198.317 190.823C197.968 191.113 197.705 191.503 197.531 191.993C197.36 192.479 197.275 193.022 197.275 193.623C197.275 194.219 197.36 194.761 197.531 195.246C197.705 195.732 197.968 196.12 198.317 196.41C198.671 196.695 199.114 196.838 199.646 196.838ZM212.56 194.371V188.682H214.874V198.5H212.63V196.755H212.528C212.306 197.305 211.942 197.754 211.435 198.104C210.932 198.453 210.312 198.628 209.575 198.628C208.931 198.628 208.363 198.485 207.868 198.2C207.378 197.91 206.995 197.49 206.718 196.94C206.441 196.386 206.302 195.717 206.302 194.933V188.682H208.616V194.575C208.616 195.197 208.787 195.692 209.127 196.058C209.468 196.425 209.916 196.608 210.47 196.608C210.811 196.608 211.141 196.525 211.461 196.359C211.78 196.192 212.042 195.945 212.247 195.617C212.456 195.285 212.56 194.869 212.56 194.371ZM217.253 198.5V188.682H219.497V190.318H219.599C219.778 189.751 220.085 189.315 220.52 189.008C220.959 188.697 221.459 188.541 222.022 188.541C222.15 188.541 222.292 188.548 222.45 188.56C222.612 188.569 222.746 188.584 222.853 188.605V190.734C222.755 190.7 222.599 190.67 222.386 190.644C222.177 190.614 221.975 190.599 221.779 190.599C221.357 190.599 220.978 190.691 220.641 190.874C220.309 191.053 220.047 191.303 219.855 191.622C219.663 191.942 219.567 192.31 219.567 192.728V198.5H217.253ZM228.268 198.692C227.288 198.692 226.447 198.477 225.744 198.046C225.045 197.616 224.506 197.021 224.126 196.263C223.751 195.5 223.564 194.622 223.564 193.629C223.564 192.632 223.756 191.752 224.139 190.989C224.523 190.222 225.064 189.626 225.763 189.2C226.466 188.769 227.297 188.554 228.256 188.554C229.053 188.554 229.758 188.701 230.371 188.995C230.989 189.285 231.482 189.696 231.848 190.229C232.214 190.757 232.423 191.375 232.474 192.082H230.263C230.173 191.609 229.96 191.215 229.624 190.9C229.291 190.58 228.846 190.42 228.288 190.42C227.815 190.42 227.399 190.548 227.041 190.804C226.683 191.055 226.404 191.418 226.204 191.891C226.008 192.364 225.91 192.93 225.91 193.591C225.91 194.26 226.008 194.835 226.204 195.317C226.4 195.794 226.675 196.163 227.028 196.423C227.386 196.678 227.806 196.806 228.288 196.806C228.629 196.806 228.933 196.742 229.202 196.614C229.474 196.482 229.702 196.293 229.886 196.045C230.069 195.798 230.195 195.498 230.263 195.144H232.474C232.419 195.839 232.214 196.455 231.861 196.991C231.507 197.524 231.026 197.942 230.416 198.244C229.807 198.543 229.091 198.692 228.268 198.692ZM238.721 198.692C237.737 198.692 236.887 198.487 236.171 198.078C235.459 197.665 234.911 197.081 234.528 196.327C234.144 195.568 233.953 194.675 233.953 193.648C233.953 192.638 234.144 191.752 234.528 190.989C234.916 190.222 235.457 189.626 236.151 189.2C236.846 188.769 237.662 188.554 238.6 188.554C239.205 188.554 239.776 188.652 240.313 188.848C240.854 189.04 241.331 189.338 241.744 189.743C242.162 190.148 242.49 190.663 242.729 191.29C242.968 191.912 243.087 192.653 243.087 193.514V194.224H235.039V192.664H240.869C240.865 192.221 240.769 191.827 240.581 191.482C240.394 191.132 240.132 190.857 239.795 190.657C239.463 190.457 239.075 190.357 238.632 190.357C238.159 190.357 237.743 190.472 237.385 190.702C237.027 190.928 236.748 191.226 236.548 191.597C236.352 191.963 236.252 192.366 236.247 192.805V194.166C236.247 194.737 236.352 195.227 236.561 195.636C236.769 196.041 237.061 196.352 237.436 196.57C237.811 196.783 238.25 196.889 238.753 196.889C239.09 196.889 239.394 196.842 239.667 196.749C239.94 196.651 240.176 196.508 240.377 196.32C240.577 196.133 240.728 195.901 240.83 195.624L242.991 195.866C242.855 196.437 242.595 196.936 242.211 197.362C241.832 197.784 241.346 198.112 240.754 198.347C240.161 198.577 239.484 198.692 238.721 198.692ZM252.804 191.277L250.695 191.507C250.635 191.294 250.531 191.094 250.382 190.906C250.237 190.719 250.041 190.567 249.794 190.452C249.547 190.337 249.244 190.28 248.886 190.28C248.404 190.28 248 190.384 247.672 190.593C247.348 190.802 247.188 191.072 247.192 191.405C247.188 191.69 247.292 191.923 247.505 192.102C247.723 192.281 248.081 192.428 248.579 192.543L250.254 192.901C251.183 193.101 251.873 193.418 252.325 193.853C252.781 194.288 253.011 194.857 253.015 195.56C253.011 196.178 252.83 196.723 252.472 197.196C252.118 197.665 251.626 198.031 250.995 198.295C250.365 198.56 249.64 198.692 248.822 198.692C247.62 198.692 246.653 198.44 245.92 197.938C245.187 197.43 244.75 196.725 244.61 195.822L246.866 195.604C246.968 196.048 247.186 196.382 247.518 196.608C247.85 196.834 248.283 196.947 248.816 196.947C249.365 196.947 249.806 196.834 250.139 196.608C250.475 196.382 250.644 196.103 250.644 195.771C250.644 195.489 250.535 195.257 250.318 195.074C250.105 194.891 249.772 194.75 249.321 194.652L247.646 194.3C246.704 194.104 246.007 193.774 245.556 193.31C245.104 192.841 244.88 192.249 244.885 191.533C244.88 190.928 245.044 190.403 245.377 189.96C245.713 189.513 246.18 189.168 246.777 188.925C247.377 188.678 248.07 188.554 248.854 188.554C250.005 188.554 250.91 188.799 251.571 189.289C252.235 189.779 252.647 190.442 252.804 191.277Z" fill="#203E54"/>
<rect width="380" height="51" transform="translate(0 235)" fill="white"/>
<circle cx="27.5" cy="260.5" r="22.5" fill="#E7A80D"/>
<path d="M25.8409 269.739V253.648H29.9091V269.739H25.8409ZM19.8295 263.727V259.659H35.9205V263.727H19.8295Z" fill="white"/>
<path d="M67.2912 267.5V254.409H72.2003C73.206 254.409 74.0497 254.584 74.7315 254.933C75.4176 255.283 75.9354 255.773 76.2848 256.403C76.6385 257.03 76.8153 257.761 76.8153 258.596C76.8153 259.435 76.6364 260.164 76.2784 260.782C75.9247 261.396 75.4027 261.871 74.7124 262.207C74.022 262.54 73.174 262.706 72.1683 262.706H68.6719V260.737H71.8487C72.4368 260.737 72.9183 260.656 73.2933 260.494C73.6683 260.328 73.9453 260.087 74.1243 259.772C74.3075 259.452 74.3991 259.06 74.3991 258.596C74.3991 258.131 74.3075 257.735 74.1243 257.407C73.9411 257.075 73.6619 256.823 73.2869 256.653C72.9119 256.478 72.4283 256.391 71.8359 256.391H69.6626V267.5H67.2912ZM74.054 261.568L77.2947 267.5H74.6484L71.4652 261.568H74.054ZM83.4343 267.5H78.9982V254.409H83.5238C84.8235 254.409 85.94 254.671 86.8732 255.195C87.8107 255.715 88.5309 256.463 89.0337 257.439C89.5366 258.415 89.788 259.582 89.788 260.942C89.788 262.305 89.5344 263.477 89.0273 264.457C88.5245 265.437 87.7979 266.19 86.8477 266.714C85.9016 267.238 84.7638 267.5 83.4343 267.5ZM81.3697 265.448H83.3192C84.2312 265.448 84.9918 265.282 85.6012 264.95C86.2106 264.613 86.6687 264.112 86.9755 263.447C87.2823 262.778 87.4357 261.943 87.4357 260.942C87.4357 259.94 87.2823 259.109 86.9755 258.449C86.6687 257.784 86.2148 257.288 85.614 256.96C85.0174 256.627 84.2759 256.461 83.3896 256.461H81.3697V265.448ZM100.293 254.409H102.665V262.962C102.665 263.899 102.443 264.724 102 265.435C101.561 266.147 100.943 266.703 100.146 267.104C99.3494 267.5 98.4183 267.698 97.353 267.698C96.2834 267.698 95.3501 267.5 94.5533 267.104C93.7564 266.703 93.1385 266.147 92.6996 265.435C92.2607 264.724 92.0412 263.899 92.0412 262.962V254.409H94.4126V262.763C94.4126 263.309 94.532 263.795 94.7706 264.221C95.0135 264.647 95.3544 264.982 95.7933 265.224C96.2322 265.463 96.7521 265.582 97.353 265.582C97.9538 265.582 98.4737 265.463 98.9126 265.224C99.3558 264.982 99.6967 264.647 99.9354 264.221C100.174 263.795 100.293 263.309 100.293 262.763V254.409ZM109.707 267.5V254.409H114.616C115.622 254.409 116.466 254.584 117.148 254.933C117.834 255.283 118.351 255.773 118.701 256.403C119.055 257.03 119.231 257.761 119.231 258.596C119.231 259.435 119.052 260.164 118.694 260.782C118.341 261.396 117.819 261.871 117.128 262.207C116.438 262.54 115.59 262.706 114.584 262.706H111.088V260.737H114.265C114.853 260.737 115.334 260.656 115.709 260.494C116.084 260.328 116.361 260.087 116.54 259.772C116.724 259.452 116.815 259.06 116.815 258.596C116.815 258.131 116.724 257.735 116.54 257.407C116.357 257.075 116.078 256.823 115.703 256.653C115.328 256.478 114.844 256.391 114.252 256.391H112.079V267.5H109.707ZM116.47 261.568L119.711 267.5H117.064L113.881 261.568H116.47ZM125.518 267.692C124.534 267.692 123.683 267.487 122.968 267.078C122.256 266.665 121.708 266.081 121.325 265.327C120.941 264.568 120.749 263.675 120.749 262.648C120.749 261.638 120.941 260.752 121.325 259.989C121.713 259.222 122.254 258.626 122.948 258.2C123.643 257.769 124.459 257.554 125.396 257.554C126.002 257.554 126.573 257.652 127.11 257.848C127.651 258.04 128.128 258.338 128.541 258.743C128.959 259.148 129.287 259.663 129.526 260.29C129.764 260.912 129.884 261.653 129.884 262.514V263.224H121.836V261.664H127.666C127.661 261.221 127.566 260.827 127.378 260.482C127.191 260.132 126.928 259.857 126.592 259.657C126.259 259.457 125.872 259.357 125.428 259.357C124.955 259.357 124.54 259.472 124.182 259.702C123.824 259.928 123.545 260.226 123.345 260.597C123.149 260.963 123.048 261.366 123.044 261.805V263.166C123.044 263.737 123.149 264.227 123.357 264.636C123.566 265.041 123.858 265.352 124.233 265.57C124.608 265.783 125.047 265.889 125.55 265.889C125.887 265.889 126.191 265.842 126.464 265.749C126.737 265.651 126.973 265.508 127.173 265.32C127.374 265.133 127.525 264.901 127.627 264.624L129.788 264.866C129.651 265.437 129.392 265.936 129.008 266.362C128.629 266.784 128.143 267.112 127.551 267.347C126.958 267.577 126.281 267.692 125.518 267.692ZM139.601 260.277L137.492 260.507C137.432 260.294 137.328 260.094 137.179 259.906C137.034 259.719 136.838 259.567 136.591 259.452C136.343 259.337 136.041 259.28 135.683 259.28C135.201 259.28 134.797 259.384 134.468 259.593C134.145 259.802 133.985 260.072 133.989 260.405C133.985 260.69 134.089 260.923 134.302 261.102C134.52 261.281 134.877 261.428 135.376 261.543L137.051 261.901C137.98 262.101 138.67 262.418 139.122 262.853C139.578 263.288 139.808 263.857 139.812 264.56C139.808 265.178 139.627 265.723 139.269 266.196C138.915 266.665 138.423 267.031 137.792 267.295C137.162 267.56 136.437 267.692 135.619 267.692C134.417 267.692 133.45 267.44 132.717 266.938C131.984 266.43 131.547 265.725 131.407 264.822L133.663 264.604C133.765 265.048 133.983 265.382 134.315 265.608C134.647 265.834 135.08 265.947 135.613 265.947C136.162 265.947 136.603 265.834 136.936 265.608C137.272 265.382 137.441 265.103 137.441 264.771C137.441 264.489 137.332 264.257 137.115 264.074C136.902 263.891 136.569 263.75 136.118 263.652L134.443 263.3C133.501 263.104 132.804 262.774 132.353 262.31C131.901 261.841 131.677 261.249 131.681 260.533C131.677 259.928 131.841 259.403 132.174 258.96C132.51 258.513 132.977 258.168 133.574 257.925C134.174 257.678 134.867 257.554 135.651 257.554C136.801 257.554 137.707 257.799 138.368 258.289C139.032 258.779 139.444 259.442 139.601 260.277ZM146.003 267.692C145.044 267.692 144.213 267.481 143.51 267.059C142.807 266.637 142.261 266.047 141.874 265.288C141.49 264.53 141.298 263.643 141.298 262.629C141.298 261.615 141.49 260.727 141.874 259.964C142.261 259.201 142.807 258.609 143.51 258.187C144.213 257.765 145.044 257.554 146.003 257.554C146.962 257.554 147.793 257.765 148.496 258.187C149.199 258.609 149.742 259.201 150.126 259.964C150.513 260.727 150.707 261.615 150.707 262.629C150.707 263.643 150.513 264.53 150.126 265.288C149.742 266.047 149.199 266.637 148.496 267.059C147.793 267.481 146.962 267.692 146.003 267.692ZM146.016 265.838C146.536 265.838 146.97 265.695 147.32 265.41C147.669 265.12 147.929 264.732 148.099 264.246C148.274 263.761 148.362 263.219 148.362 262.623C148.362 262.022 148.274 261.479 148.099 260.993C147.929 260.503 147.669 260.113 147.32 259.823C146.97 259.533 146.536 259.388 146.016 259.388C145.483 259.388 145.04 259.533 144.686 259.823C144.337 260.113 144.075 260.503 143.9 260.993C143.729 261.479 143.644 262.022 143.644 262.623C143.644 263.219 143.729 263.761 143.9 264.246C144.075 264.732 144.337 265.12 144.686 265.41C145.04 265.695 145.483 265.838 146.016 265.838ZM158.929 263.371V257.682H161.243V267.5H158.999V265.755H158.897C158.676 266.305 158.311 266.754 157.804 267.104C157.301 267.453 156.681 267.628 155.944 267.628C155.301 267.628 154.732 267.485 154.237 267.2C153.747 266.91 153.364 266.49 153.087 265.94C152.81 265.386 152.671 264.717 152.671 263.933V257.682H154.985V263.575C154.985 264.197 155.156 264.692 155.497 265.058C155.838 265.425 156.285 265.608 156.839 265.608C157.18 265.608 157.51 265.525 157.83 265.359C158.149 265.192 158.411 264.945 158.616 264.617C158.825 264.285 158.929 263.869 158.929 263.371ZM163.623 267.5V257.682H165.866V259.318H165.968C166.147 258.751 166.454 258.315 166.889 258.008C167.328 257.697 167.828 257.541 168.391 257.541C168.519 257.541 168.662 257.548 168.819 257.56C168.981 257.569 169.115 257.584 169.222 257.605V259.734C169.124 259.7 168.968 259.67 168.755 259.644C168.547 259.614 168.344 259.599 168.148 259.599C167.726 259.599 167.347 259.691 167.01 259.874C166.678 260.053 166.416 260.303 166.224 260.622C166.032 260.942 165.936 261.31 165.936 261.728V267.5H163.623ZM174.638 267.692C173.657 267.692 172.816 267.477 172.113 267.046C171.414 266.616 170.875 266.021 170.496 265.263C170.121 264.5 169.933 263.622 169.933 262.629C169.933 261.632 170.125 260.752 170.508 259.989C170.892 259.222 171.433 258.626 172.132 258.2C172.835 257.769 173.666 257.554 174.625 257.554C175.422 257.554 176.127 257.701 176.741 257.995C177.358 258.285 177.851 258.696 178.217 259.229C178.584 259.757 178.792 260.375 178.844 261.082H176.632C176.542 260.609 176.329 260.215 175.993 259.9C175.66 259.58 175.215 259.42 174.657 259.42C174.184 259.42 173.768 259.548 173.41 259.804C173.052 260.055 172.773 260.418 172.573 260.891C172.377 261.364 172.279 261.93 172.279 262.591C172.279 263.26 172.377 263.835 172.573 264.317C172.769 264.794 173.044 265.163 173.398 265.423C173.756 265.678 174.175 265.806 174.657 265.806C174.998 265.806 175.302 265.742 175.571 265.614C175.844 265.482 176.072 265.293 176.255 265.045C176.438 264.798 176.564 264.498 176.632 264.144H178.844C178.788 264.839 178.584 265.455 178.23 265.991C177.876 266.524 177.395 266.942 176.785 267.244C176.176 267.543 175.46 267.692 174.638 267.692ZM185.09 267.692C184.106 267.692 183.256 267.487 182.54 267.078C181.828 266.665 181.281 266.081 180.897 265.327C180.513 264.568 180.322 263.675 180.322 262.648C180.322 261.638 180.513 260.752 180.897 259.989C181.285 259.222 181.826 258.626 182.521 258.2C183.215 257.769 184.031 257.554 184.969 257.554C185.574 257.554 186.145 257.652 186.682 257.848C187.223 258.04 187.7 258.338 188.114 258.743C188.531 259.148 188.859 259.663 189.098 260.29C189.337 260.912 189.456 261.653 189.456 262.514V263.224H181.408V261.664H187.238C187.234 261.221 187.138 260.827 186.95 260.482C186.763 260.132 186.501 259.857 186.164 259.657C185.832 259.457 185.444 259.357 185.001 259.357C184.528 259.357 184.112 259.472 183.754 259.702C183.396 259.928 183.117 260.226 182.917 260.597C182.721 260.963 182.621 261.366 182.616 261.805V263.166C182.616 263.737 182.721 264.227 182.93 264.636C183.138 265.041 183.43 265.352 183.805 265.57C184.18 265.783 184.619 265.889 185.122 265.889C185.459 265.889 185.763 265.842 186.036 265.749C186.309 265.651 186.545 265.508 186.746 265.32C186.946 265.133 187.097 264.901 187.2 264.624L189.36 264.866C189.224 265.437 188.964 265.936 188.58 266.362C188.201 266.784 187.715 267.112 187.123 267.347C186.531 267.577 185.853 267.692 185.09 267.692ZM199.173 260.277L197.064 260.507C197.004 260.294 196.9 260.094 196.751 259.906C196.606 259.719 196.41 259.567 196.163 259.452C195.916 259.337 195.613 259.28 195.255 259.28C194.774 259.28 194.369 259.384 194.041 259.593C193.717 259.802 193.557 260.072 193.561 260.405C193.557 260.69 193.661 260.923 193.874 261.102C194.092 261.281 194.45 261.428 194.948 261.543L196.623 261.901C197.552 262.101 198.242 262.418 198.694 262.853C199.15 263.288 199.38 263.857 199.384 264.56C199.38 265.178 199.199 265.723 198.841 266.196C198.487 266.665 197.995 267.031 197.365 267.295C196.734 267.56 196.009 267.692 195.191 267.692C193.99 267.692 193.022 267.44 192.289 266.938C191.556 266.43 191.119 265.725 190.979 264.822L193.235 264.604C193.338 265.048 193.555 265.382 193.887 265.608C194.22 265.834 194.652 265.947 195.185 265.947C195.735 265.947 196.176 265.834 196.508 265.608C196.845 265.382 197.013 265.103 197.013 264.771C197.013 264.489 196.904 264.257 196.687 264.074C196.474 263.891 196.142 263.75 195.69 263.652L194.015 263.3C193.073 263.104 192.377 262.774 191.925 262.31C191.473 261.841 191.249 261.249 191.254 260.533C191.249 259.928 191.414 259.403 191.746 258.96C192.083 258.513 192.549 258.168 193.146 257.925C193.747 257.678 194.439 257.554 195.223 257.554C196.374 257.554 197.279 257.799 197.94 258.289C198.605 258.779 199.016 259.442 199.173 260.277Z" fill="#203E54"/>
<rect y="454" width="380" height="146" fill="white"/>
<path d="M29.2912 498V484.909H34.3026C35.2486 484.909 36.0348 485.058 36.6612 485.357C37.2919 485.651 37.7628 486.053 38.0739 486.565C38.3892 487.076 38.5469 487.656 38.5469 488.303C38.5469 488.836 38.4446 489.292 38.2401 489.671C38.0355 490.046 37.7607 490.351 37.4155 490.585C37.0703 490.82 36.6847 490.988 36.2585 491.09V491.218C36.723 491.244 37.1683 491.386 37.5945 491.646C38.0249 491.902 38.3764 492.264 38.6491 492.733C38.9219 493.202 39.0582 493.768 39.0582 494.433C39.0582 495.111 38.8942 495.72 38.5661 496.261C38.2379 496.798 37.7436 497.222 37.0831 497.533C36.4226 497.844 35.5916 498 34.5902 498H29.2912ZM31.6626 496.018H34.2131C35.0739 496.018 35.6939 495.854 36.0732 495.526C36.4567 495.194 36.6484 494.768 36.6484 494.248C36.6484 493.86 36.5526 493.511 36.3608 493.2C36.169 492.884 35.8963 492.637 35.5426 492.458C35.1889 492.275 34.767 492.183 34.277 492.183H31.6626V496.018ZM31.6626 490.477H34.0085C34.4176 490.477 34.7862 490.402 35.1143 490.253C35.4425 490.099 35.7003 489.884 35.8878 489.607C36.0795 489.326 36.1754 488.994 36.1754 488.61C36.1754 488.103 35.9964 487.685 35.6385 487.357C35.2848 487.029 34.7585 486.865 34.0597 486.865H31.6626V490.477ZM41.1213 498V484.909H46.1326C47.0787 484.909 47.8649 485.058 48.4913 485.357C49.122 485.651 49.5929 486.053 49.9039 486.565C50.2193 487.076 50.377 487.656 50.377 488.303C50.377 488.836 50.2747 489.292 50.0701 489.671C49.8656 490.046 49.5907 490.351 49.2456 490.585C48.9004 490.82 48.5147 490.988 48.0886 491.09V491.218C48.5531 491.244 48.9984 491.386 49.4245 491.646C49.8549 491.902 50.2065 492.264 50.4792 492.733C50.752 493.202 50.8883 493.768 50.8883 494.433C50.8883 495.111 50.7243 495.72 50.3961 496.261C50.068 496.798 49.5737 497.222 48.9132 497.533C48.2527 497.844 47.4217 498 46.4203 498H41.1213ZM43.4927 496.018H46.0431C46.9039 496.018 47.524 495.854 47.9032 495.526C48.2868 495.194 48.4785 494.768 48.4785 494.248C48.4785 493.86 48.3826 493.511 48.1909 493.2C47.9991 492.884 47.7264 492.637 47.3727 492.458C47.019 492.275 46.5971 492.183 46.1071 492.183H43.4927V496.018ZM43.4927 490.477H45.8386C46.2477 490.477 46.6163 490.402 46.9444 490.253C47.2726 490.099 47.5304 489.884 47.7179 489.607C47.9096 489.326 48.0055 488.994 48.0055 488.61C48.0055 488.103 47.8265 487.685 47.4686 487.357C47.1149 487.029 46.5886 486.865 45.8897 486.865H43.4927V490.477ZM61.2035 484.909H63.5749V493.462C63.5749 494.399 63.3533 495.224 62.9102 495.935C62.4712 496.647 61.8533 497.203 61.0565 497.604C60.2596 498 59.3285 498.198 58.2631 498.198C57.1935 498.198 56.2603 498 55.4634 497.604C54.6665 497.203 54.0487 496.647 53.6097 495.935C53.1708 495.224 52.9513 494.399 52.9513 493.462V484.909H55.3228V493.263C55.3228 493.809 55.4421 494.295 55.6808 494.721C55.9237 495.147 56.2646 495.482 56.7035 495.724C57.1424 495.963 57.6623 496.082 58.2631 496.082C58.864 496.082 59.3839 495.963 59.8228 495.724C60.266 495.482 60.6069 495.147 60.8455 494.721C61.0842 494.295 61.2035 493.809 61.2035 493.263V484.909ZM75.8588 484.295L71.6401 499.969H69.6138L73.8326 484.295H75.8588ZM93.6 491.455C93.6 492.865 93.3358 494.073 92.8074 495.079C92.2832 496.08 91.5673 496.847 90.6596 497.38C89.7562 497.913 88.7314 498.179 87.5851 498.179C86.4387 498.179 85.4118 497.913 84.5041 497.38C83.6007 496.843 82.8848 496.074 82.3564 495.072C81.8322 494.067 81.5701 492.861 81.5701 491.455C81.5701 490.044 81.8322 488.838 82.3564 487.837C82.8848 486.831 83.6007 486.062 84.5041 485.529C85.4118 484.996 86.4387 484.73 87.5851 484.73C88.7314 484.73 89.7562 484.996 90.6596 485.529C91.5673 486.062 92.2832 486.831 92.8074 487.837C93.3358 488.838 93.6 490.044 93.6 491.455ZM91.2157 491.455C91.2157 490.462 91.0602 489.624 90.7491 488.942C90.4423 488.256 90.0162 487.739 89.4707 487.389C88.9252 487.036 88.2967 486.859 87.5851 486.859C86.8734 486.859 86.2449 487.036 85.6994 487.389C85.1539 487.739 84.7257 488.256 84.4146 488.942C84.1078 489.624 83.9544 490.462 83.9544 491.455C83.9544 492.447 84.1078 493.287 84.4146 493.973C84.7257 494.655 85.1539 495.173 85.6994 495.526C86.2449 495.876 86.8734 496.05 87.5851 496.05C88.2967 496.05 88.9252 495.876 89.4707 495.526C90.0162 495.173 90.4423 494.655 90.7491 493.973C91.0602 493.287 91.2157 492.447 91.2157 491.455ZM95.842 498V484.909H100.853C101.799 484.909 102.586 485.058 103.212 485.357C103.843 485.651 104.314 486.053 104.625 486.565C104.94 487.076 105.098 487.656 105.098 488.303C105.098 488.836 104.995 489.292 104.791 489.671C104.586 490.046 104.311 490.351 103.966 490.585C103.621 490.82 103.235 490.988 102.809 491.09V491.218C103.274 491.244 103.719 491.386 104.145 491.646C104.576 491.902 104.927 492.264 105.2 492.733C105.473 493.202 105.609 493.768 105.609 494.433C105.609 495.111 105.445 495.72 105.117 496.261C104.789 496.798 104.294 497.222 103.634 497.533C102.973 497.844 102.142 498 101.141 498H95.842ZM98.2134 496.018H100.764C101.625 496.018 102.245 495.854 102.624 495.526C103.007 495.194 103.199 494.768 103.199 494.248C103.199 493.86 103.103 493.511 102.912 493.2C102.72 492.884 102.447 492.637 102.093 492.458C101.74 492.275 101.318 492.183 100.828 492.183H98.2134V496.018ZM98.2134 490.477H100.559C100.968 490.477 101.337 490.402 101.665 490.253C101.993 490.099 102.251 489.884 102.439 489.607C102.63 489.326 102.726 488.994 102.726 488.61C102.726 488.103 102.547 487.685 102.189 487.357C101.836 487.029 101.309 486.865 100.61 486.865H98.2134V490.477ZM115.924 484.909H118.296V493.462C118.296 494.399 118.074 495.224 117.631 495.935C117.192 496.647 116.574 497.203 115.777 497.604C114.98 498 114.049 498.198 112.984 498.198C111.914 498.198 110.981 498 110.184 497.604C109.387 497.203 108.769 496.647 108.33 495.935C107.892 495.224 107.672 494.399 107.672 493.462V484.909H110.044V493.263C110.044 493.809 110.163 494.295 110.401 494.721C110.644 495.147 110.985 495.482 111.424 495.724C111.863 495.963 112.383 496.082 112.984 496.082C113.585 496.082 114.105 495.963 114.544 495.724C114.987 495.482 115.328 495.147 115.566 494.721C115.805 494.295 115.924 493.809 115.924 493.263V484.909ZM130.215 493.602H132.363L133.635 495.251L134.543 496.325L136.722 499.125H134.421L132.938 497.246L132.305 496.351L130.215 493.602ZM137.036 491.455C137.036 492.865 136.771 494.073 136.243 495.079C135.719 496.08 135.003 496.847 134.095 497.38C133.192 497.913 132.167 498.179 131.021 498.179C129.874 498.179 128.847 497.913 127.94 497.38C127.036 496.843 126.32 496.074 125.792 495.072C125.268 494.067 125.006 492.861 125.006 491.455C125.006 490.044 125.268 488.838 125.792 487.837C126.32 486.831 127.036 486.062 127.94 485.529C128.847 484.996 129.874 484.73 131.021 484.73C132.167 484.73 133.192 484.996 134.095 485.529C135.003 486.062 135.719 486.831 136.243 487.837C136.771 488.838 137.036 490.044 137.036 491.455ZM134.651 491.455C134.651 490.462 134.496 489.624 134.185 488.942C133.878 488.256 133.452 487.739 132.906 487.389C132.361 487.036 131.732 486.859 131.021 486.859C130.309 486.859 129.68 487.036 129.135 487.389C128.589 487.739 128.161 488.256 127.85 488.942C127.543 489.624 127.39 490.462 127.39 491.455C127.39 492.447 127.543 493.287 127.85 493.973C128.161 494.655 128.589 495.173 129.135 495.526C129.68 495.876 130.309 496.05 131.021 496.05C131.732 496.05 132.361 495.876 132.906 495.526C133.452 495.173 133.878 494.655 134.185 493.973C134.496 493.287 134.651 492.447 134.651 491.455ZM145.451 493.871V488.182H147.765V498H145.521V496.255H145.419C145.197 496.805 144.833 497.254 144.326 497.604C143.823 497.953 143.203 498.128 142.466 498.128C141.822 498.128 141.253 497.985 140.759 497.7C140.269 497.41 139.885 496.99 139.608 496.44C139.331 495.886 139.193 495.217 139.193 494.433V488.182H141.507V494.075C141.507 494.697 141.677 495.192 142.018 495.558C142.359 495.925 142.806 496.108 143.36 496.108C143.701 496.108 144.032 496.025 144.351 495.859C144.671 495.692 144.933 495.445 145.137 495.117C145.346 494.785 145.451 494.369 145.451 493.871ZM154.491 498.192C153.506 498.192 152.656 497.987 151.94 497.578C151.229 497.165 150.681 496.581 150.297 495.827C149.914 495.068 149.722 494.175 149.722 493.148C149.722 492.138 149.914 491.252 150.297 490.489C150.685 489.722 151.226 489.126 151.921 488.7C152.616 488.269 153.432 488.054 154.369 488.054C154.974 488.054 155.545 488.152 156.082 488.348C156.623 488.54 157.101 488.838 157.514 489.243C157.932 489.648 158.26 490.163 158.498 490.79C158.737 491.412 158.856 492.153 158.856 493.014V493.724H150.809V492.164H156.638C156.634 491.721 156.538 491.327 156.351 490.982C156.163 490.632 155.901 490.357 155.564 490.157C155.232 489.957 154.844 489.857 154.401 489.857C153.928 489.857 153.513 489.972 153.155 490.202C152.797 490.428 152.518 490.726 152.317 491.097C152.121 491.463 152.021 491.866 152.017 492.305V493.666C152.017 494.237 152.121 494.727 152.33 495.136C152.539 495.541 152.831 495.852 153.206 496.07C153.581 496.283 154.02 496.389 154.523 496.389C154.859 496.389 155.164 496.342 155.437 496.249C155.709 496.151 155.946 496.008 156.146 495.82C156.346 495.633 156.498 495.401 156.6 495.124L158.76 495.366C158.624 495.937 158.364 496.436 157.981 496.862C157.601 497.284 157.116 497.612 156.523 497.847C155.931 498.077 155.253 498.192 154.491 498.192ZM168.574 490.777L166.464 491.007C166.405 490.794 166.3 490.594 166.151 490.406C166.006 490.219 165.81 490.067 165.563 489.952C165.316 489.837 165.013 489.78 164.656 489.78C164.174 489.78 163.769 489.884 163.441 490.093C163.117 490.302 162.957 490.572 162.962 490.905C162.957 491.19 163.062 491.423 163.275 491.602C163.492 491.781 163.85 491.928 164.349 492.043L166.023 492.401C166.952 492.601 167.643 492.918 168.094 493.353C168.55 493.788 168.781 494.357 168.785 495.06C168.781 495.678 168.599 496.223 168.241 496.696C167.888 497.165 167.396 497.531 166.765 497.795C166.134 498.06 165.41 498.192 164.592 498.192C163.39 498.192 162.423 497.94 161.69 497.438C160.957 496.93 160.52 496.225 160.379 495.322L162.636 495.104C162.738 495.548 162.955 495.882 163.288 496.108C163.62 496.334 164.053 496.447 164.585 496.447C165.135 496.447 165.576 496.334 165.908 496.108C166.245 495.882 166.413 495.603 166.413 495.271C166.413 494.989 166.305 494.757 166.087 494.574C165.874 494.391 165.542 494.25 165.09 494.152L163.415 493.8C162.474 493.604 161.777 493.274 161.325 492.81C160.874 492.341 160.65 491.749 160.654 491.033C160.65 490.428 160.814 489.903 161.146 489.46C161.483 489.013 161.95 488.668 162.546 488.425C163.147 488.178 163.839 488.054 164.624 488.054C165.774 488.054 166.68 488.299 167.34 488.789C168.005 489.279 168.416 489.942 168.574 490.777ZM175.596 488.182V489.972H169.951V488.182H175.596ZM171.345 485.83H173.659V495.047C173.659 495.358 173.706 495.597 173.799 495.763C173.897 495.925 174.025 496.036 174.183 496.095C174.341 496.155 174.515 496.185 174.707 496.185C174.852 496.185 174.984 496.174 175.103 496.153C175.227 496.131 175.321 496.112 175.385 496.095L175.775 497.904C175.651 497.947 175.474 497.994 175.244 498.045C175.018 498.096 174.741 498.126 174.413 498.134C173.833 498.151 173.311 498.064 172.847 497.872C172.382 497.676 172.014 497.374 171.741 496.964C171.473 496.555 171.341 496.044 171.345 495.43V485.83ZM177.531 498V488.182H179.845V498H177.531ZM178.694 486.788C178.328 486.788 178.012 486.667 177.748 486.424C177.484 486.177 177.352 485.881 177.352 485.536C177.352 485.186 177.484 484.89 177.748 484.647C178.012 484.4 178.328 484.276 178.694 484.276C179.065 484.276 179.38 484.4 179.64 484.647C179.904 484.89 180.036 485.186 180.036 485.536C180.036 485.881 179.904 486.177 179.64 486.424C179.38 486.667 179.065 486.788 178.694 486.788ZM186.507 498.192C185.548 498.192 184.717 497.981 184.014 497.559C183.311 497.137 182.765 496.547 182.377 495.788C181.994 495.03 181.802 494.143 181.802 493.129C181.802 492.115 181.994 491.227 182.377 490.464C182.765 489.701 183.311 489.109 184.014 488.687C184.717 488.265 185.548 488.054 186.507 488.054C187.466 488.054 188.297 488.265 189 488.687C189.703 489.109 190.246 489.701 190.63 490.464C191.017 491.227 191.211 492.115 191.211 493.129C191.211 494.143 191.017 495.03 190.63 495.788C190.246 496.547 189.703 497.137 189 497.559C188.297 497.981 187.466 498.192 186.507 498.192ZM186.52 496.338C187.039 496.338 187.474 496.195 187.824 495.91C188.173 495.62 188.433 495.232 188.603 494.746C188.778 494.261 188.865 493.719 188.865 493.123C188.865 492.522 188.778 491.979 188.603 491.493C188.433 491.003 188.173 490.613 187.824 490.323C187.474 490.033 187.039 489.888 186.52 489.888C185.987 489.888 185.544 490.033 185.19 490.323C184.841 490.613 184.578 491.003 184.404 491.493C184.233 491.979 184.148 492.522 184.148 493.123C184.148 493.719 184.233 494.261 184.404 494.746C184.578 495.232 184.841 495.62 185.19 495.91C185.544 496.195 185.987 496.338 186.52 496.338ZM195.489 492.247V498H193.175V488.182H195.387V489.85H195.502C195.728 489.3 196.088 488.864 196.582 488.54C197.081 488.216 197.697 488.054 198.43 488.054C199.107 488.054 199.697 488.199 200.2 488.489C200.707 488.778 201.099 489.198 201.376 489.748C201.657 490.298 201.796 490.964 201.792 491.749V498H199.478V492.107C199.478 491.45 199.307 490.937 198.966 490.566C198.63 490.195 198.163 490.01 197.567 490.01C197.162 490.01 196.802 490.099 196.486 490.278C196.175 490.453 195.93 490.707 195.751 491.039C195.577 491.371 195.489 491.774 195.489 492.247ZM211.904 490.777L209.795 491.007C209.735 490.794 209.631 490.594 209.481 490.406C209.336 490.219 209.14 490.067 208.893 489.952C208.646 489.837 208.344 489.78 207.986 489.78C207.504 489.78 207.099 489.884 206.771 490.093C206.447 490.302 206.287 490.572 206.292 490.905C206.287 491.19 206.392 491.423 206.605 491.602C206.822 491.781 207.18 491.928 207.679 492.043L209.354 492.401C210.282 492.601 210.973 492.918 211.425 493.353C211.881 493.788 212.111 494.357 212.115 495.06C212.111 495.678 211.93 496.223 211.572 496.696C211.218 497.165 210.726 497.531 210.095 497.795C209.464 498.06 208.74 498.192 207.922 498.192C206.72 498.192 205.753 497.94 205.02 497.438C204.287 496.93 203.85 496.225 203.709 495.322L205.966 495.104C206.068 495.548 206.285 495.882 206.618 496.108C206.95 496.334 207.383 496.447 207.915 496.447C208.465 496.447 208.906 496.334 209.238 496.108C209.575 495.882 209.743 495.603 209.743 495.271C209.743 494.989 209.635 494.757 209.417 494.574C209.204 494.391 208.872 494.25 208.42 494.152L206.746 493.8C205.804 493.604 205.107 493.274 204.655 492.81C204.204 492.341 203.98 491.749 203.984 491.033C203.98 490.428 204.144 489.903 204.476 489.46C204.813 489.013 205.28 488.668 205.876 488.425C206.477 488.178 207.17 488.054 207.954 488.054C209.104 488.054 210.01 488.299 210.67 488.789C211.335 489.279 211.746 489.942 211.904 490.777Z" fill="#203E54"/>
<path d="M29.2912 558V544.909H34.2003C35.206 544.909 36.0497 545.084 36.7315 545.433C37.4176 545.783 37.9354 546.273 38.2848 546.903C38.6385 547.53 38.8153 548.261 38.8153 549.096C38.8153 549.935 38.6364 550.664 38.2784 551.282C37.9247 551.896 37.4027 552.371 36.7124 552.707C36.022 553.04 35.174 553.206 34.1683 553.206H30.6719V551.237H33.8487C34.4368 551.237 34.9183 551.156 35.2933 550.994C35.6683 550.828 35.9453 550.587 36.1243 550.272C36.3075 549.952 36.3991 549.56 36.3991 549.096C36.3991 548.631 36.3075 548.235 36.1243 547.907C35.9411 547.575 35.6619 547.323 35.2869 547.153C34.9119 546.978 34.4283 546.891 33.8359 546.891H31.6626V558H29.2912ZM36.054 552.068L39.2947 558H36.6484L33.4652 552.068H36.054ZM45.4343 558H40.9982V544.909H45.5238C46.8235 544.909 47.94 545.171 48.8732 545.695C49.8107 546.215 50.5309 546.963 51.0337 547.939C51.5366 548.915 51.788 550.082 51.788 551.442C51.788 552.805 51.5344 553.977 51.0273 554.957C50.5245 555.937 49.7979 556.69 48.8477 557.214C47.9016 557.738 46.7638 558 45.4343 558ZM43.3697 555.948H45.3192C46.2312 555.948 46.9918 555.782 47.6012 555.45C48.2106 555.113 48.6687 554.612 48.9755 553.947C49.2823 553.278 49.4357 552.443 49.4357 551.442C49.4357 550.44 49.2823 549.609 48.9755 548.949C48.6687 548.284 48.2148 547.788 47.614 547.46C47.0174 547.127 46.2759 546.961 45.3896 546.961H43.3697V555.948ZM62.2933 544.909H64.6648V553.462C64.6648 554.399 64.4432 555.224 64 555.935C63.5611 556.647 62.9432 557.203 62.1463 557.604C61.3494 558 60.4183 558.198 59.353 558.198C58.2834 558.198 57.3501 558 56.5533 557.604C55.7564 557.203 55.1385 556.647 54.6996 555.935C54.2607 555.224 54.0412 554.399 54.0412 553.462V544.909H56.4126V553.263C56.4126 553.809 56.532 554.295 56.7706 554.721C57.0135 555.147 57.3544 555.482 57.7933 555.724C58.2322 555.963 58.7521 556.082 59.353 556.082C59.9538 556.082 60.4737 555.963 60.9126 555.724C61.3558 555.482 61.6967 555.147 61.9354 554.721C62.174 554.295 62.2933 553.809 62.2933 553.263V544.909ZM76.5843 553.602H78.7321L80.0041 555.251L80.9118 556.325L83.0914 559.125H80.7903L79.3074 557.246L78.6745 556.351L76.5843 553.602ZM83.4047 551.455C83.4047 552.865 83.1404 554.073 82.612 555.079C82.0879 556.08 81.372 556.847 80.4643 557.38C79.5609 557.913 78.536 558.179 77.3897 558.179C76.2434 558.179 75.2164 557.913 74.3088 557.38C73.4054 556.843 72.6895 556.074 72.161 555.072C71.6369 554.067 71.3748 552.861 71.3748 551.455C71.3748 550.044 71.6369 548.838 72.161 547.837C72.6895 546.831 73.4054 546.062 74.3088 545.529C75.2164 544.996 76.2434 544.73 77.3897 544.73C78.536 544.73 79.5609 544.996 80.4643 545.529C81.372 546.062 82.0879 546.831 82.612 547.837C83.1404 548.838 83.4047 550.044 83.4047 551.455ZM81.0204 551.455C81.0204 550.462 80.8649 549.624 80.5538 548.942C80.247 548.256 79.8208 547.739 79.2754 547.389C78.7299 547.036 78.1014 546.859 77.3897 546.859C76.6781 546.859 76.0495 547.036 75.5041 547.389C74.9586 547.739 74.5304 548.256 74.2193 548.942C73.9125 549.624 73.7591 550.462 73.7591 551.455C73.7591 552.447 73.9125 553.287 74.2193 553.973C74.5304 554.655 74.9586 555.173 75.5041 555.526C76.0495 555.876 76.6781 556.05 77.3897 556.05C78.1014 556.05 78.7299 555.876 79.2754 555.526C79.8208 555.173 80.247 554.655 80.5538 553.973C80.8649 553.287 81.0204 552.447 81.0204 551.455ZM91.8198 553.871V548.182H94.1337V558H91.8901V556.255H91.7878C91.5662 556.805 91.2019 557.254 90.6948 557.604C90.1919 557.953 89.5719 558.128 88.8347 558.128C88.1912 558.128 87.6223 557.985 87.128 557.7C86.638 557.41 86.2544 556.99 85.9775 556.44C85.7005 555.886 85.562 555.217 85.562 554.433V548.182H87.8759V554.075C87.8759 554.697 88.0463 555.192 88.3873 555.558C88.7282 555.925 89.1756 556.108 89.7296 556.108C90.0705 556.108 90.4007 556.025 90.7203 555.859C91.04 555.692 91.302 555.445 91.5066 555.117C91.7154 554.785 91.8198 554.369 91.8198 553.871ZM100.86 558.192C99.8754 558.192 99.0252 557.987 98.3093 557.578C97.5977 557.165 97.0501 556.581 96.6665 555.827C96.283 555.068 96.0913 554.175 96.0913 553.148C96.0913 552.138 96.283 551.252 96.6665 550.489C97.0543 549.722 97.5955 549.126 98.2901 548.7C98.9847 548.269 99.8008 548.054 100.738 548.054C101.343 548.054 101.914 548.152 102.451 548.348C102.993 548.54 103.47 548.838 103.883 549.243C104.301 549.648 104.629 550.163 104.868 550.79C105.106 551.412 105.225 552.153 105.225 553.014V553.724H97.1779V552.164H103.007C103.003 551.721 102.907 551.327 102.72 550.982C102.532 550.632 102.27 550.357 101.934 550.157C101.601 549.957 101.213 549.857 100.77 549.857C100.297 549.857 99.8817 549.972 99.5238 550.202C99.1658 550.428 98.8867 550.726 98.6864 551.097C98.4904 551.463 98.3903 551.866 98.386 552.305V553.666C98.386 554.237 98.4904 554.727 98.6992 555.136C98.908 555.541 99.1999 555.852 99.5749 556.07C99.9499 556.283 100.389 556.389 100.892 556.389C101.228 556.389 101.533 556.342 101.806 556.249C102.078 556.151 102.315 556.008 102.515 555.82C102.716 555.633 102.867 555.401 102.969 555.124L105.13 555.366C104.993 555.937 104.733 556.436 104.35 556.862C103.971 557.284 103.485 557.612 102.892 557.847C102.3 558.077 101.623 558.192 100.86 558.192ZM114.943 550.777L112.834 551.007C112.774 550.794 112.67 550.594 112.52 550.406C112.376 550.219 112.18 550.067 111.932 549.952C111.685 549.837 111.383 549.78 111.025 549.78C110.543 549.78 110.138 549.884 109.81 550.093C109.486 550.302 109.327 550.572 109.331 550.905C109.327 551.19 109.431 551.423 109.644 551.602C109.861 551.781 110.219 551.928 110.718 552.043L112.393 552.401C113.322 552.601 114.012 552.918 114.464 553.353C114.92 553.788 115.15 554.357 115.154 555.06C115.15 555.678 114.969 556.223 114.611 556.696C114.257 557.165 113.765 557.531 113.134 557.795C112.503 558.06 111.779 558.192 110.961 558.192C109.759 558.192 108.792 557.94 108.059 557.438C107.326 556.93 106.889 556.225 106.748 555.322L109.005 555.104C109.107 555.548 109.324 555.882 109.657 556.108C109.989 556.334 110.422 556.447 110.954 556.447C111.504 556.447 111.945 556.334 112.278 556.108C112.614 555.882 112.782 555.603 112.782 555.271C112.782 554.989 112.674 554.757 112.456 554.574C112.243 554.391 111.911 554.25 111.459 554.152L109.785 553.8C108.843 553.604 108.146 553.274 107.694 552.81C107.243 552.341 107.019 551.749 107.023 551.033C107.019 550.428 107.183 549.903 107.515 549.46C107.852 549.013 108.319 548.668 108.915 548.425C109.516 548.178 110.209 548.054 110.993 548.054C112.143 548.054 113.049 548.299 113.709 548.789C114.374 549.279 114.785 549.942 114.943 550.777ZM121.965 548.182V549.972H116.32V548.182H121.965ZM117.714 545.83H120.028V555.047C120.028 555.358 120.075 555.597 120.169 555.763C120.267 555.925 120.394 556.036 120.552 556.095C120.71 556.155 120.884 556.185 121.076 556.185C121.221 556.185 121.353 556.174 121.472 556.153C121.596 556.131 121.69 556.112 121.754 556.095L122.144 557.904C122.02 557.947 121.843 557.994 121.613 558.045C121.387 558.096 121.11 558.126 120.782 558.134C120.203 558.151 119.681 558.064 119.216 557.872C118.752 557.676 118.383 557.374 118.11 556.964C117.842 556.555 117.71 556.044 117.714 555.43V545.83ZM123.9 558V548.182H126.214V558H123.9ZM125.063 546.788C124.697 546.788 124.381 546.667 124.117 546.424C123.853 546.177 123.721 545.881 123.721 545.536C123.721 545.186 123.853 544.89 124.117 544.647C124.381 544.4 124.697 544.276 125.063 544.276C125.434 544.276 125.749 544.4 126.009 544.647C126.273 544.89 126.406 545.186 126.406 545.536C126.406 545.881 126.273 546.177 126.009 546.424C125.749 546.667 125.434 546.788 125.063 546.788ZM132.876 558.192C131.917 558.192 131.086 557.981 130.383 557.559C129.68 557.137 129.134 556.547 128.747 555.788C128.363 555.03 128.171 554.143 128.171 553.129C128.171 552.115 128.363 551.227 128.747 550.464C129.134 549.701 129.68 549.109 130.383 548.687C131.086 548.265 131.917 548.054 132.876 548.054C133.835 548.054 134.666 548.265 135.369 548.687C136.072 549.109 136.615 549.701 136.999 550.464C137.387 551.227 137.58 552.115 137.58 553.129C137.58 554.143 137.387 555.03 136.999 555.788C136.615 556.547 136.072 557.137 135.369 557.559C134.666 557.981 133.835 558.192 132.876 558.192ZM132.889 556.338C133.409 556.338 133.843 556.195 134.193 555.91C134.542 555.62 134.802 555.232 134.972 554.746C135.147 554.261 135.235 553.719 135.235 553.123C135.235 552.522 135.147 551.979 134.972 551.493C134.802 551.003 134.542 550.613 134.193 550.323C133.843 550.033 133.409 549.888 132.889 549.888C132.356 549.888 131.913 550.033 131.559 550.323C131.21 550.613 130.948 551.003 130.773 551.493C130.602 551.979 130.517 552.522 130.517 553.123C130.517 553.719 130.602 554.261 130.773 554.746C130.948 555.232 131.21 555.62 131.559 555.91C131.913 556.195 132.356 556.338 132.889 556.338ZM141.858 552.247V558H139.544V548.182H141.756V549.85H141.871C142.097 549.3 142.457 548.864 142.951 548.54C143.45 548.216 144.066 548.054 144.799 548.054C145.476 548.054 146.066 548.199 146.569 548.489C147.076 548.778 147.468 549.198 147.745 549.748C148.027 550.298 148.165 550.964 148.161 551.749V558H145.847V552.107C145.847 551.45 145.676 550.937 145.336 550.566C144.999 550.195 144.532 550.01 143.936 550.01C143.531 550.01 143.171 550.099 142.855 550.278C142.544 550.453 142.299 550.707 142.12 551.039C141.946 551.371 141.858 551.774 141.858 552.247ZM158.273 550.777L156.164 551.007C156.104 550.794 156 550.594 155.85 550.406C155.706 550.219 155.51 550.067 155.262 549.952C155.015 549.837 154.713 549.78 154.355 549.78C153.873 549.78 153.468 549.884 153.14 550.093C152.816 550.302 152.657 550.572 152.661 550.905C152.657 551.19 152.761 551.423 152.974 551.602C153.191 551.781 153.549 551.928 154.048 552.043L155.723 552.401C156.652 552.601 157.342 552.918 157.794 553.353C158.25 553.788 158.48 554.357 158.484 555.06C158.48 555.678 158.299 556.223 157.941 556.696C157.587 557.165 157.095 557.531 156.464 557.795C155.833 558.06 155.109 558.192 154.291 558.192C153.089 558.192 152.122 557.94 151.389 557.438C150.656 556.93 150.219 556.225 150.078 555.322L152.335 555.104C152.437 555.548 152.654 555.882 152.987 556.108C153.319 556.334 153.752 556.447 154.284 556.447C154.834 556.447 155.275 556.334 155.608 556.108C155.944 555.882 156.113 555.603 156.113 555.271C156.113 554.989 156.004 554.757 155.787 554.574C155.574 554.391 155.241 554.25 154.789 554.152L153.115 553.8C152.173 553.604 151.476 553.274 151.025 552.81C150.573 552.341 150.349 551.749 150.353 551.033C150.349 550.428 150.513 549.903 150.846 549.46C151.182 549.013 151.649 548.668 152.245 548.425C152.846 548.178 153.539 548.054 154.323 548.054C155.473 548.054 156.379 548.299 157.039 548.789C157.704 549.279 158.115 549.942 158.273 550.777Z" fill="#203E54"/>
<rect y="315" width="380" height="140" fill="#9DB0AC"/>
<circle cx="309" cy="385" r="50" fill="white"/>
<path d="M329.5 366H288.167C285.325 366 283.026 368.325 283.026 371.167L283 402.167C283 405.008 285.325 407.333 288.167 407.333H329.5C332.342 407.333 334.667 405.008 334.667 402.167V371.167C334.667 368.325 332.342 366 329.5 366ZM329.5 376.333L308.833 389.25L288.167 376.333V371.167L308.833 384.083L329.5 371.167V376.333Z" fill="#9DB0AC"/>
<rect y="304" width="156" height="36" fill="#D0006F"/>
<path d="M13.5376 318.617C13.4912 318.183 13.2957 317.845 12.951 317.603C12.6096 317.361 12.1655 317.24 11.6186 317.24C11.2341 317.24 10.9044 317.298 10.6293 317.414C10.3542 317.53 10.1437 317.687 9.99787 317.886C9.85204 318.085 9.77746 318.312 9.77415 318.567C9.77415 318.78 9.82221 318.964 9.91832 319.119C10.0178 319.275 10.152 319.408 10.321 319.517C10.4901 319.623 10.6773 319.713 10.8828 319.786C11.0883 319.858 11.2955 319.92 11.5043 319.969L12.4588 320.208C12.8433 320.298 13.2128 320.419 13.5675 320.571C13.9254 320.723 14.2453 320.916 14.527 321.148C14.812 321.38 15.0374 321.66 15.2031 321.988C15.3688 322.316 15.4517 322.701 15.4517 323.141C15.4517 323.738 15.2992 324.263 14.9943 324.717C14.6894 325.168 14.2486 325.521 13.6719 325.776C13.0985 326.028 12.4041 326.154 11.5888 326.154C10.7966 326.154 10.1089 326.031 9.52557 325.786C8.94555 325.541 8.49148 325.183 8.16335 324.712C7.83854 324.242 7.66288 323.668 7.63636 322.992H9.45099C9.47751 323.347 9.58688 323.642 9.77912 323.877C9.97135 324.112 10.2216 324.288 10.5298 324.404C10.8414 324.52 11.1894 324.578 11.5739 324.578C11.9749 324.578 12.3262 324.518 12.6278 324.399C12.9328 324.277 13.1714 324.107 13.3438 323.892C13.5161 323.673 13.6039 323.418 13.6072 323.126C13.6039 322.861 13.526 322.643 13.3736 322.47C13.2211 322.295 13.0073 322.149 12.7322 322.033C12.4605 321.913 12.1423 321.807 11.7777 321.714L10.6193 321.416C9.78078 321.201 9.1179 320.874 8.63068 320.437C8.14678 319.996 7.90483 319.411 7.90483 318.682C7.90483 318.082 8.06723 317.557 8.39205 317.106C8.72017 316.655 9.16596 316.305 9.7294 316.057C10.2929 315.805 10.9309 315.679 11.6435 315.679C12.366 315.679 12.9991 315.805 13.5426 316.057C14.0895 316.305 14.5187 316.652 14.8303 317.096C15.1418 317.537 15.3026 318.044 15.3125 318.617H13.5376ZM23.5144 315.818H25.3588V322.47C25.3588 323.199 25.1865 323.841 24.8418 324.394C24.5004 324.948 24.0198 325.38 23.4 325.692C22.7802 326 22.056 326.154 21.2275 326.154C20.3955 326.154 19.6697 326 19.0499 325.692C18.4301 325.38 17.9495 324.948 17.6081 324.394C17.2667 323.841 17.0961 323.199 17.0961 322.47V315.818H18.9405V322.316C18.9405 322.74 19.0333 323.118 19.2189 323.45C19.4078 323.781 19.673 324.041 20.0144 324.23C20.3558 324.416 20.7601 324.509 21.2275 324.509C21.6948 324.509 22.0991 324.416 22.4405 324.23C22.7852 324.041 23.0504 323.781 23.236 323.45C23.4216 323.118 23.5144 322.74 23.5144 322.316V315.818ZM27.3636 326V315.818H31.2614C31.9972 315.818 32.6087 315.934 33.0959 316.166C33.5864 316.395 33.9527 316.708 34.1946 317.106C34.4399 317.504 34.5625 317.954 34.5625 318.458C34.5625 318.872 34.483 319.227 34.3239 319.522C34.1648 319.814 33.951 320.051 33.6825 320.233C33.4141 320.415 33.1141 320.546 32.7827 320.626V320.725C33.1439 320.745 33.4903 320.856 33.8217 321.058C34.1565 321.257 34.4299 321.539 34.642 321.903C34.8542 322.268 34.9602 322.709 34.9602 323.226C34.9602 323.753 34.8326 324.227 34.5774 324.648C34.3222 325.065 33.9377 325.395 33.424 325.637C32.9103 325.879 32.264 326 31.4851 326H27.3636ZM29.2081 324.459H31.1918C31.8613 324.459 32.3435 324.331 32.6385 324.076C32.9368 323.817 33.0859 323.486 33.0859 323.082C33.0859 322.78 33.0114 322.508 32.8622 322.266C32.7131 322.021 32.5009 321.829 32.2259 321.69C31.9508 321.547 31.6226 321.476 31.2415 321.476H29.2081V324.459ZM29.2081 320.148H31.0327C31.3509 320.148 31.6375 320.09 31.8928 319.974C32.148 319.855 32.3485 319.688 32.4943 319.472C32.6435 319.254 32.718 318.995 32.718 318.697C32.718 318.302 32.5788 317.978 32.3004 317.722C32.0253 317.467 31.616 317.339 31.0724 317.339H29.2081V320.148ZM36.5648 315.818H38.8219L41.8446 323.196H41.964L44.9867 315.818H47.2438V326H45.4739V319.005H45.3794L42.5655 325.97H41.2431L38.4292 318.99H38.3347V326H36.5648V315.818ZM51.0968 315.818V326H49.2523V315.818H51.0968ZM52.6467 317.364V315.818H60.7702V317.364H57.6232V326H55.7937V317.364H52.6467ZM69.6023 322.58H71.2727L72.2621 323.862L72.968 324.697L74.6634 326.875H72.8736L71.7202 325.413L71.228 324.717L69.6023 322.58ZM74.907 320.909C74.907 322.006 74.7015 322.946 74.2905 323.728C73.8828 324.507 73.326 325.103 72.62 325.518C71.9174 325.932 71.1203 326.139 70.2287 326.139C69.3371 326.139 68.5384 325.932 67.8324 325.518C67.1297 325.1 66.5729 324.502 66.1619 323.723C65.7543 322.941 65.5504 322.003 65.5504 320.909C65.5504 319.812 65.7543 318.874 66.1619 318.095C66.5729 317.313 67.1297 316.715 67.8324 316.3C68.5384 315.886 69.3371 315.679 70.2287 315.679C71.1203 315.679 71.9174 315.886 72.62 316.3C73.326 316.715 73.8828 317.313 74.2905 318.095C74.7015 318.874 74.907 319.812 74.907 320.909ZM73.0526 320.909C73.0526 320.137 72.9316 319.486 72.6896 318.955C72.451 318.422 72.1196 318.019 71.6953 317.747C71.2711 317.472 70.7822 317.335 70.2287 317.335C69.6752 317.335 69.1863 317.472 68.7621 317.747C68.3378 318.019 68.0047 318.422 67.7628 318.955C67.5241 319.486 67.4048 320.137 67.4048 320.909C67.4048 321.681 67.5241 322.334 67.7628 322.868C68.0047 323.398 68.3378 323.801 68.7621 324.076C69.1863 324.348 69.6752 324.484 70.2287 324.484C70.7822 324.484 71.2711 324.348 71.6953 324.076C72.1196 323.801 72.451 323.398 72.6896 322.868C72.9316 322.334 73.0526 321.681 73.0526 320.909ZM83.0827 315.818H84.9272V322.47C84.9272 323.199 84.7549 323.841 84.4102 324.394C84.0688 324.948 83.5882 325.38 82.9684 325.692C82.3486 326 81.6244 326.154 80.7958 326.154C79.9639 326.154 79.238 326 78.6183 325.692C77.9985 325.38 77.5179 324.948 77.1765 324.394C76.8351 323.841 76.6644 323.199 76.6644 322.47V315.818H78.5089V322.316C78.5089 322.74 78.6017 323.118 78.7873 323.45C78.9762 323.781 79.2414 324.041 79.5827 324.23C79.9241 324.416 80.3285 324.509 80.7958 324.509C81.2631 324.509 81.6675 324.416 82.0089 324.23C82.3536 324.041 82.6187 323.781 82.8043 323.45C82.9899 323.118 83.0827 322.74 83.0827 322.316V315.818ZM86.932 326V315.818H93.5542V317.364H88.7765V320.129H93.2111V321.675H88.7765V324.454H93.5939V326H86.932ZM100.969 318.617C100.923 318.183 100.727 317.845 100.383 317.603C100.041 317.361 99.5971 317.24 99.0502 317.24C98.6658 317.24 98.336 317.298 98.0609 317.414C97.7858 317.53 97.5753 317.687 97.4295 317.886C97.2837 318.085 97.2091 318.312 97.2058 318.567C97.2058 318.78 97.2538 318.964 97.35 319.119C97.4494 319.275 97.5836 319.408 97.7527 319.517C97.9217 319.623 98.109 319.713 98.3145 319.786C98.5199 319.858 98.7271 319.92 98.9359 319.969L99.8904 320.208C100.275 320.298 100.644 320.419 100.999 320.571C101.357 320.723 101.677 320.916 101.959 321.148C102.244 321.38 102.469 321.66 102.635 321.988C102.8 322.316 102.883 322.701 102.883 323.141C102.883 323.738 102.731 324.263 102.426 324.717C102.121 325.168 101.68 325.521 101.104 325.776C100.53 326.028 99.8358 326.154 99.0204 326.154C98.2283 326.154 97.5405 326.031 96.9572 325.786C96.3772 325.541 95.9231 325.183 95.595 324.712C95.2702 324.242 95.0945 323.668 95.068 322.992H96.8826C96.9092 323.347 97.0185 323.642 97.2108 323.877C97.403 324.112 97.6532 324.288 97.9615 324.404C98.273 324.52 98.621 324.578 99.0055 324.578C99.4065 324.578 99.7579 324.518 100.059 324.399C100.364 324.277 100.603 324.107 100.775 323.892C100.948 323.673 101.036 323.418 101.039 323.126C101.036 322.861 100.958 322.643 100.805 322.47C100.653 322.295 100.439 322.149 100.164 322.033C99.8921 321.913 99.5739 321.807 99.2093 321.714L98.051 321.416C97.2124 321.201 96.5495 320.874 96.0623 320.437C95.5784 319.996 95.3365 319.411 95.3365 318.682C95.3365 318.082 95.4989 317.557 95.8237 317.106C96.1518 316.655 96.5976 316.305 97.161 316.057C97.7245 315.805 98.3625 315.679 99.0751 315.679C99.7976 315.679 100.431 315.805 100.974 316.057C101.521 316.305 101.95 316.652 102.262 317.096C102.573 317.537 102.734 318.044 102.744 318.617H100.969ZM104.08 317.364V315.818H112.204V317.364H109.057V326H107.227V317.364H104.08ZM115.614 315.818V326H113.77V315.818H115.614ZM126.71 320.909C126.71 322.006 126.504 322.946 126.093 323.728C125.686 324.507 125.129 325.103 124.423 325.518C123.72 325.932 122.923 326.139 122.031 326.139C121.14 326.139 120.341 325.932 119.635 325.518C118.932 325.1 118.376 324.502 117.965 323.723C117.557 322.941 117.353 322.003 117.353 320.909C117.353 319.812 117.557 318.874 117.965 318.095C118.376 317.313 118.932 316.715 119.635 316.3C120.341 315.886 121.14 315.679 122.031 315.679C122.923 315.679 123.72 315.886 124.423 316.3C125.129 316.715 125.686 317.313 126.093 318.095C126.504 318.874 126.71 319.812 126.71 320.909ZM124.855 320.909C124.855 320.137 124.734 319.486 124.492 318.955C124.254 318.422 123.922 318.019 123.498 317.747C123.074 317.472 122.585 317.335 122.031 317.335C121.478 317.335 120.989 317.472 120.565 317.747C120.141 318.019 119.807 318.422 119.566 318.955C119.327 319.486 119.208 320.137 119.208 320.909C119.208 321.681 119.327 322.334 119.566 322.868C119.807 323.398 120.141 323.801 120.565 324.076C120.989 324.348 121.478 324.484 122.031 324.484C122.585 324.484 123.074 324.348 123.498 324.076C123.922 323.801 124.254 323.398 124.492 322.868C124.734 322.334 124.855 321.681 124.855 320.909ZM136.821 315.818V326H135.18L130.382 319.065H130.298V326H128.453V315.818H130.104L134.897 322.759H134.986V315.818H136.821ZM144.364 318.617C144.317 318.183 144.122 317.845 143.777 317.603C143.436 317.361 142.992 317.24 142.445 317.24C142.06 317.24 141.731 317.298 141.455 317.414C141.18 317.53 140.97 317.687 140.824 317.886C140.678 318.085 140.604 318.312 140.6 318.567C140.6 318.78 140.648 318.964 140.744 319.119C140.844 319.275 140.978 319.408 141.147 319.517C141.316 319.623 141.503 319.713 141.709 319.786C141.914 319.858 142.122 319.92 142.33 319.969L143.285 320.208C143.669 320.298 144.039 320.419 144.394 320.571C144.752 320.723 145.071 320.916 145.353 321.148C145.638 321.38 145.864 321.66 146.029 321.988C146.195 322.316 146.278 322.701 146.278 323.141C146.278 323.738 146.125 324.263 145.82 324.717C145.516 325.168 145.075 325.521 144.498 325.776C143.925 326.028 143.23 326.154 142.415 326.154C141.623 326.154 140.935 326.031 140.352 325.786C139.772 325.541 139.318 325.183 138.99 324.712C138.665 324.242 138.489 323.668 138.463 322.992H140.277C140.304 323.347 140.413 323.642 140.605 323.877C140.798 324.112 141.048 324.288 141.356 324.404C141.668 324.52 142.016 324.578 142.4 324.578C142.801 324.578 143.152 324.518 143.454 324.399C143.759 324.277 143.998 324.107 144.17 323.892C144.342 323.673 144.43 323.418 144.433 323.126C144.43 322.861 144.352 322.643 144.2 322.47C144.047 322.295 143.834 322.149 143.558 322.033C143.287 321.913 142.968 321.807 142.604 321.714L141.445 321.416C140.607 321.201 139.944 320.874 139.457 320.437C138.973 319.996 138.731 319.411 138.731 318.682C138.731 318.082 138.893 317.557 139.218 317.106C139.546 316.655 139.992 316.305 140.556 316.057C141.119 315.805 141.757 315.679 142.47 315.679C143.192 315.679 143.825 315.805 144.369 316.057C144.916 316.305 145.345 316.652 145.656 317.096C145.968 317.537 146.129 318.044 146.139 318.617H144.364Z" fill="#EAE8E8"/>
</svg>
