<svg width="900" height="750" viewBox="0 0 900 750" fill="none" xmlns="http://www.w3.org/2000/svg">
<rect width="900" height="750" fill="white"/>
<circle cx="179" cy="133" r="102" fill="#3DC4D6" fill-opacity="0.6"/>
<circle cx="281" cy="252" r="102" fill="#D3DD48" fill-opacity="0.6"/>
<circle cx="574" cy="133" r="102" fill="#3DC4D6" fill-opacity="0.6"/>
<rect x="588" y="172" width="176" height="176" rx="10" fill="#D3DD48" fill-opacity="0.6"/>
<path d="M109.009 143V122.636H116.804C118.276 122.636 119.499 122.868 120.473 123.332C121.454 123.79 122.187 124.416 122.67 125.212C123.161 126.007 123.406 126.909 123.406 127.916C123.406 128.745 123.247 129.454 122.929 130.044C122.611 130.627 122.183 131.101 121.646 131.466C121.109 131.83 120.509 132.092 119.847 132.251V132.45C120.569 132.49 121.262 132.712 121.925 133.116C122.594 133.514 123.141 134.078 123.565 134.807C123.99 135.536 124.202 136.418 124.202 137.452C124.202 138.506 123.946 139.454 123.436 140.295C122.926 141.131 122.157 141.79 121.129 142.274C120.102 142.758 118.809 143 117.251 143H109.009ZM112.697 139.918H116.665C118.004 139.918 118.968 139.662 119.558 139.152C120.155 138.635 120.453 137.972 120.453 137.163C120.453 136.56 120.304 136.017 120.006 135.533C119.707 135.042 119.283 134.658 118.733 134.379C118.183 134.094 117.527 133.952 116.764 133.952H112.697V139.918ZM112.697 131.297H116.347C116.983 131.297 117.556 131.181 118.067 130.949C118.577 130.71 118.978 130.375 119.27 129.945C119.568 129.507 119.717 128.99 119.717 128.393C119.717 127.605 119.439 126.955 118.882 126.445C118.332 125.934 117.513 125.679 116.426 125.679H112.697V131.297ZM127.411 143V122.636H135.206C136.678 122.636 137.901 122.868 138.875 123.332C139.856 123.79 140.589 124.416 141.073 125.212C141.563 126.007 141.809 126.909 141.809 127.916C141.809 128.745 141.65 129.454 141.331 130.044C141.013 130.627 140.586 131.101 140.049 131.466C139.512 131.83 138.912 132.092 138.249 132.251V132.45C138.971 132.49 139.664 132.712 140.327 133.116C140.997 133.514 141.543 134.078 141.968 134.807C142.392 135.536 142.604 136.418 142.604 137.452C142.604 138.506 142.349 139.454 141.838 140.295C141.328 141.131 140.559 141.79 139.532 142.274C138.504 142.758 137.212 143 135.654 143H127.411ZM131.1 139.918H135.067C136.406 139.918 137.371 139.662 137.961 139.152C138.557 138.635 138.855 137.972 138.855 137.163C138.855 136.56 138.706 136.017 138.408 135.533C138.11 135.042 137.685 134.658 137.135 134.379C136.585 134.094 135.929 133.952 135.167 133.952H131.1V139.918ZM131.1 131.297H134.749C135.385 131.297 135.959 131.181 136.469 130.949C136.98 130.71 137.381 130.375 137.672 129.945C137.971 129.507 138.12 128.99 138.12 128.393C138.12 127.605 137.841 126.955 137.284 126.445C136.734 125.934 135.916 125.679 134.828 125.679H131.1V131.297ZM158.65 122.636H162.339V135.94C162.339 137.399 161.994 138.681 161.305 139.788C160.622 140.895 159.661 141.76 158.421 142.384C157.182 143 155.733 143.308 154.076 143.308C152.412 143.308 150.96 143 149.721 142.384C148.481 141.76 147.52 140.895 146.837 139.788C146.155 138.681 145.813 137.399 145.813 135.94V122.636H149.502V135.632C149.502 136.481 149.688 137.236 150.059 137.899C150.437 138.562 150.967 139.082 151.65 139.46C152.333 139.831 153.141 140.017 154.076 140.017C155.011 140.017 155.819 139.831 156.502 139.46C157.192 139.082 157.722 138.562 158.093 137.899C158.464 137.236 158.65 136.481 158.65 135.632V122.636ZM181.447 121.682L174.885 146.062H171.733L178.295 121.682H181.447ZM209.044 132.818C209.044 135.012 208.633 136.892 207.811 138.456C206.996 140.014 205.882 141.207 204.471 142.036C203.065 142.864 201.471 143.278 199.688 143.278C197.905 143.278 196.307 142.864 194.895 142.036C193.49 141.2 192.376 140.004 191.554 138.446C190.739 136.882 190.331 135.006 190.331 132.818C190.331 130.624 190.739 128.748 191.554 127.19C192.376 125.626 193.49 124.429 194.895 123.601C196.307 122.772 197.905 122.358 199.688 122.358C201.471 122.358 203.065 122.772 204.471 123.601C205.882 124.429 206.996 125.626 207.811 127.19C208.633 128.748 209.044 130.624 209.044 132.818ZM205.336 132.818C205.336 131.274 205.094 129.971 204.61 128.911C204.132 127.843 203.47 127.038 202.621 126.494C201.773 125.944 200.795 125.669 199.688 125.669C198.581 125.669 197.603 125.944 196.755 126.494C195.906 127.038 195.24 127.843 194.756 128.911C194.279 129.971 194.04 131.274 194.04 132.818C194.04 134.363 194.279 135.669 194.756 136.736C195.24 137.796 195.906 138.602 196.755 139.152C197.603 139.696 198.581 139.967 199.688 139.967C200.795 139.967 201.773 139.696 202.621 139.152C203.47 138.602 204.132 137.796 204.61 136.736C205.094 135.669 205.336 134.363 205.336 132.818ZM212.532 143V122.636H220.327C221.799 122.636 223.022 122.868 223.996 123.332C224.978 123.79 225.71 124.416 226.194 125.212C226.684 126.007 226.93 126.909 226.93 127.916C226.93 128.745 226.771 129.454 226.452 130.044C226.134 130.627 225.707 131.101 225.17 131.466C224.633 131.83 224.033 132.092 223.37 132.251V132.45C224.093 132.49 224.785 132.712 225.448 133.116C226.118 133.514 226.665 134.078 227.089 134.807C227.513 135.536 227.725 136.418 227.725 137.452C227.725 138.506 227.47 139.454 226.96 140.295C226.449 141.131 225.68 141.79 224.653 142.274C223.625 142.758 222.333 143 220.775 143H212.532ZM216.221 139.918H220.188C221.527 139.918 222.492 139.662 223.082 139.152C223.678 138.635 223.977 137.972 223.977 137.163C223.977 136.56 223.827 136.017 223.529 135.533C223.231 135.042 222.807 134.658 222.256 134.379C221.706 134.094 221.05 133.952 220.288 133.952H216.221V139.918ZM216.221 131.297H219.87C220.506 131.297 221.08 131.181 221.59 130.949C222.101 130.71 222.502 130.375 222.793 129.945C223.092 129.507 223.241 128.99 223.241 128.393C223.241 127.605 222.962 126.955 222.406 126.445C221.855 125.934 221.037 125.679 219.95 125.679H216.221V131.297ZM243.771 122.636H247.46V135.94C247.46 137.399 247.115 138.681 246.426 139.788C245.743 140.895 244.782 141.76 243.542 142.384C242.303 143 240.854 143.308 239.197 143.308C237.533 143.308 236.082 143 234.842 142.384C233.602 141.76 232.641 140.895 231.958 139.788C231.276 138.681 230.934 137.399 230.934 135.94V122.636H234.623V135.632C234.623 136.481 234.809 137.236 235.18 137.899C235.558 138.562 236.088 139.082 236.771 139.46C237.454 139.831 238.262 140.017 239.197 140.017C240.132 140.017 240.94 139.831 241.623 139.46C242.313 139.082 242.843 138.562 243.214 137.899C243.585 137.236 243.771 136.481 243.771 135.632V122.636Z" fill="#203E54"/>
<path d="M504.009 147V126.636H511.804C513.276 126.636 514.499 126.868 515.473 127.332C516.454 127.79 517.187 128.416 517.67 129.212C518.161 130.007 518.406 130.909 518.406 131.916C518.406 132.745 518.247 133.454 517.929 134.044C517.611 134.627 517.183 135.101 516.646 135.466C516.109 135.83 515.509 136.092 514.847 136.251V136.45C515.569 136.49 516.262 136.712 516.925 137.116C517.594 137.514 518.141 138.078 518.565 138.807C518.99 139.536 519.202 140.418 519.202 141.452C519.202 142.506 518.946 143.454 518.436 144.295C517.926 145.131 517.157 145.79 516.129 146.274C515.102 146.758 513.809 147 512.251 147H504.009ZM507.697 143.918H511.665C513.004 143.918 513.968 143.662 514.558 143.152C515.155 142.635 515.453 141.972 515.453 141.163C515.453 140.56 515.304 140.017 515.006 139.533C514.707 139.042 514.283 138.658 513.733 138.379C513.183 138.094 512.527 137.952 511.764 137.952H507.697V143.918ZM507.697 135.297H511.347C511.983 135.297 512.556 135.181 513.067 134.949C513.577 134.71 513.978 134.375 514.27 133.945C514.568 133.507 514.717 132.99 514.717 132.393C514.717 131.605 514.439 130.955 513.882 130.445C513.332 129.934 512.513 129.679 511.426 129.679H507.697V135.297ZM522.411 147V126.636H530.206C531.678 126.636 532.901 126.868 533.875 127.332C534.856 127.79 535.589 128.416 536.073 129.212C536.563 130.007 536.809 130.909 536.809 131.916C536.809 132.745 536.65 133.454 536.331 134.044C536.013 134.627 535.586 135.101 535.049 135.466C534.512 135.83 533.912 136.092 533.249 136.251V136.45C533.971 136.49 534.664 136.712 535.327 137.116C535.997 137.514 536.543 138.078 536.968 138.807C537.392 139.536 537.604 140.418 537.604 141.452C537.604 142.506 537.349 143.454 536.838 144.295C536.328 145.131 535.559 145.79 534.532 146.274C533.504 146.758 532.212 147 530.654 147H522.411ZM526.1 143.918H530.067C531.406 143.918 532.371 143.662 532.961 143.152C533.557 142.635 533.855 141.972 533.855 141.163C533.855 140.56 533.706 140.017 533.408 139.533C533.11 139.042 532.685 138.658 532.135 138.379C531.585 138.094 530.929 137.952 530.167 137.952H526.1V143.918ZM526.1 135.297H529.749C530.385 135.297 530.959 135.181 531.469 134.949C531.98 134.71 532.381 134.375 532.672 133.945C532.971 133.507 533.12 132.99 533.12 132.393C533.12 131.605 532.841 130.955 532.284 130.445C531.734 129.934 530.916 129.679 529.828 129.679H526.1V135.297ZM553.65 126.636H557.339V139.94C557.339 141.399 556.994 142.681 556.305 143.788C555.622 144.895 554.661 145.76 553.421 146.384C552.182 147 550.733 147.308 549.076 147.308C547.412 147.308 545.96 147 544.721 146.384C543.481 145.76 542.52 144.895 541.837 143.788C541.155 142.681 540.813 141.399 540.813 139.94V126.636H544.502V139.632C544.502 140.481 544.688 141.236 545.059 141.899C545.437 142.562 545.967 143.082 546.65 143.46C547.333 143.831 548.141 144.017 549.076 144.017C550.011 144.017 550.819 143.831 551.502 143.46C552.192 143.082 552.722 142.562 553.093 141.899C553.464 141.236 553.65 140.481 553.65 139.632V126.636ZM576.447 125.682L569.885 150.062H566.733L573.295 125.682H576.447ZM604.044 136.818C604.044 139.012 603.633 140.892 602.811 142.456C601.996 144.014 600.882 145.207 599.471 146.036C598.065 146.864 596.471 147.278 594.688 147.278C592.905 147.278 591.307 146.864 589.895 146.036C588.49 145.2 587.376 144.004 586.554 142.446C585.739 140.882 585.331 139.006 585.331 136.818C585.331 134.624 585.739 132.748 586.554 131.19C587.376 129.626 588.49 128.429 589.895 127.601C591.307 126.772 592.905 126.358 594.688 126.358C596.471 126.358 598.065 126.772 599.471 127.601C600.882 128.429 601.996 129.626 602.811 131.19C603.633 132.748 604.044 134.624 604.044 136.818ZM600.336 136.818C600.336 135.274 600.094 133.971 599.61 132.911C599.132 131.843 598.47 131.038 597.621 130.494C596.773 129.944 595.795 129.669 594.688 129.669C593.581 129.669 592.603 129.944 591.755 130.494C590.906 131.038 590.24 131.843 589.756 132.911C589.279 133.971 589.04 135.274 589.04 136.818C589.04 138.363 589.279 139.669 589.756 140.736C590.24 141.796 590.906 142.602 591.755 143.152C592.603 143.696 593.581 143.967 594.688 143.967C595.795 143.967 596.773 143.696 597.621 143.152C598.47 142.602 599.132 141.796 599.61 140.736C600.094 139.669 600.336 138.363 600.336 136.818ZM607.532 147V126.636H615.327C616.799 126.636 618.022 126.868 618.996 127.332C619.978 127.79 620.71 128.416 621.194 129.212C621.684 130.007 621.93 130.909 621.93 131.916C621.93 132.745 621.771 133.454 621.452 134.044C621.134 134.627 620.707 135.101 620.17 135.466C619.633 135.83 619.033 136.092 618.37 136.251V136.45C619.093 136.49 619.785 136.712 620.448 137.116C621.118 137.514 621.665 138.078 622.089 138.807C622.513 139.536 622.725 140.418 622.725 141.452C622.725 142.506 622.47 143.454 621.96 144.295C621.449 145.131 620.68 145.79 619.653 146.274C618.625 146.758 617.333 147 615.775 147H607.532ZM611.221 143.918H615.188C616.527 143.918 617.492 143.662 618.082 143.152C618.678 142.635 618.977 141.972 618.977 141.163C618.977 140.56 618.827 140.017 618.529 139.533C618.231 139.042 617.807 138.658 617.256 138.379C616.706 138.094 616.05 137.952 615.288 137.952H611.221V143.918ZM611.221 135.297H614.87C615.506 135.297 616.08 135.181 616.59 134.949C617.101 134.71 617.502 134.375 617.793 133.945C618.092 133.507 618.241 132.99 618.241 132.393C618.241 131.605 617.962 130.955 617.406 130.445C616.855 129.934 616.037 129.679 614.95 129.679H611.221V135.297ZM638.771 126.636H642.46V139.94C642.46 141.399 642.115 142.681 641.426 143.788C640.743 144.895 639.782 145.76 638.542 146.384C637.303 147 635.854 147.308 634.197 147.308C632.533 147.308 631.082 147 629.842 146.384C628.602 145.76 627.641 144.895 626.958 143.788C626.276 142.681 625.934 141.399 625.934 139.94V126.636H629.623V139.632C629.623 140.481 629.809 141.236 630.18 141.899C630.558 142.562 631.088 143.082 631.771 143.46C632.454 143.831 633.262 144.017 634.197 144.017C635.132 144.017 635.94 143.831 636.623 143.46C637.313 143.082 637.843 142.562 638.214 141.899C638.585 141.236 638.771 140.481 638.771 139.632V126.636Z" fill="#203E54"/>
<path d="M251.152 265V243.182H259.334C261.01 243.182 262.416 243.473 263.553 244.055C264.696 244.638 265.559 245.455 266.141 246.506C266.731 247.55 267.026 248.768 267.026 250.16C267.026 251.559 266.727 252.773 266.131 253.803C265.541 254.826 264.671 255.618 263.521 256.179C262.37 256.733 260.957 257.01 259.281 257.01H253.453V253.729H258.748C259.728 253.729 260.531 253.594 261.156 253.324C261.781 253.047 262.242 252.646 262.54 252.12C262.846 251.587 262.999 250.934 262.999 250.16C262.999 249.386 262.846 248.725 262.54 248.178C262.235 247.624 261.77 247.205 261.145 246.921C260.52 246.63 259.714 246.484 258.727 246.484H255.104V265H251.152ZM262.423 255.114L267.825 265H263.414L258.109 255.114H262.423ZM278.057 265H270.664V243.182H278.206C280.373 243.182 282.233 243.619 283.789 244.492C285.351 245.359 286.551 246.605 287.39 248.232C288.228 249.858 288.647 251.804 288.647 254.07C288.647 256.342 288.224 258.295 287.379 259.929C286.541 261.562 285.33 262.816 283.746 263.69C282.169 264.563 280.273 265 278.057 265ZM274.616 261.58H277.865C279.385 261.58 280.653 261.303 281.669 260.749C282.684 260.188 283.448 259.354 283.959 258.246C284.471 257.131 284.726 255.739 284.726 254.07C284.726 252.401 284.471 251.016 283.959 249.915C283.448 248.807 282.691 247.979 281.69 247.433C280.696 246.879 279.46 246.602 277.983 246.602H274.616V261.58ZM306.156 243.182H310.108V257.436C310.108 258.999 309.739 260.373 309 261.559C308.268 262.745 307.239 263.672 305.911 264.339C304.582 265 303.031 265.33 301.255 265.33C299.472 265.33 297.917 265 296.589 264.339C295.261 263.672 294.231 262.745 293.499 261.559C292.768 260.373 292.402 258.999 292.402 257.436V243.182H296.354V257.106C296.354 258.015 296.553 258.825 296.951 259.535C297.356 260.245 297.924 260.803 298.656 261.207C299.387 261.605 300.254 261.804 301.255 261.804C302.256 261.804 303.123 261.605 303.854 261.207C304.593 260.803 305.161 260.245 305.559 259.535C305.957 258.825 306.156 258.015 306.156 257.106V243.182Z" fill="#203E54"/>
<path d="M646.152 271V249.182H654.334C656.01 249.182 657.416 249.473 658.553 250.055C659.696 250.638 660.559 251.455 661.141 252.506C661.731 253.55 662.026 254.768 662.026 256.16C662.026 257.559 661.727 258.773 661.131 259.803C660.541 260.826 659.671 261.618 658.521 262.179C657.37 262.733 655.957 263.01 654.281 263.01H648.453V259.729H653.748C654.728 259.729 655.531 259.594 656.156 259.324C656.781 259.047 657.242 258.646 657.54 258.12C657.846 257.587 657.999 256.934 657.999 256.16C657.999 255.386 657.846 254.725 657.54 254.178C657.235 253.624 656.77 253.205 656.145 252.921C655.52 252.63 654.714 252.484 653.727 252.484H650.104V271H646.152ZM657.423 261.114L662.825 271H658.414L653.109 261.114H657.423ZM673.057 271H665.664V249.182H673.206C675.373 249.182 677.233 249.619 678.789 250.492C680.351 251.359 681.551 252.605 682.39 254.232C683.228 255.858 683.647 257.804 683.647 260.07C683.647 262.342 683.224 264.295 682.379 265.929C681.541 267.562 680.33 268.816 678.746 269.69C677.169 270.563 675.273 271 673.057 271ZM669.616 267.58H672.865C674.385 267.58 675.653 267.303 676.669 266.749C677.684 266.188 678.448 265.354 678.959 264.246C679.471 263.131 679.726 261.739 679.726 260.07C679.726 258.401 679.471 257.016 678.959 255.915C678.448 254.807 677.691 253.979 676.69 253.433C675.696 252.879 674.46 252.602 672.983 252.602H669.616V267.58ZM701.156 249.182H705.108V263.436C705.108 264.999 704.739 266.373 704 267.559C703.268 268.745 702.239 269.672 700.911 270.339C699.582 271 698.031 271.33 696.255 271.33C694.472 271.33 692.917 271 691.589 270.339C690.261 269.672 689.231 268.745 688.499 267.559C687.768 266.373 687.402 264.999 687.402 263.436V249.182H691.354V263.106C691.354 264.015 691.553 264.825 691.951 265.535C692.356 266.245 692.924 266.803 693.656 267.207C694.387 267.605 695.254 267.804 696.255 267.804C697.256 267.804 698.123 267.605 698.854 267.207C699.593 266.803 700.161 266.245 700.559 265.535C700.957 264.825 701.156 264.015 701.156 263.106V249.182Z" fill="#203E54"/>
<ellipse cx="225.767" cy="588" rx="68.6637" ry="69" fill="#D0006F"/>
<ellipse cx="124.848" cy="588.246" rx="49.8484" ry="50.0925" fill="#3DC4D6" fill-opacity="0.6"/>
<ellipse cx="328.152" cy="588.246" rx="49.8484" ry="50.0925" fill="#D3DD48" fill-opacity="0.6"/>
<ellipse cx="764.5" cy="557.847" rx="59.5" ry="59.2839" fill="#D0006F"/>
<ellipse cx="765.936" cy="636.961" rx="43.1957" ry="43.0389" fill="#3DC4D6" fill-opacity="0.6"/>
<path d="M809.132 479.039C809.132 502.809 789.793 522.078 765.936 522.078C742.08 522.078 722.741 502.809 722.741 479.039C722.741 455.269 742.08 436 765.936 436C789.793 436 809.132 455.269 809.132 479.039Z" fill="#D3DD48" fill-opacity="0.6"/>
<ellipse cx="516.295" cy="562.415" rx="59.7279" ry="59.5529" fill="#D0006F"/>
<ellipse cx="598.639" cy="595.766" rx="43.3611" ry="43.2341" fill="#3DC4D6" fill-opacity="0.6"/>
<path d="M481.722 519.234C481.722 543.112 462.309 562.468 438.361 562.468C414.413 562.468 395 543.112 395 519.234C395 495.357 414.413 476 438.361 476C462.309 476 481.722 495.357 481.722 519.234Z" fill="#D3DD48" fill-opacity="0.6"/>
</svg>
