<svg xmlns="http://www.w3.org/2000/svg" xmlns:xlink="http://www.w3.org/1999/xlink" width="500" zoomAndPan="magnify" viewBox="0 0 375 374.999991" height="500" preserveAspectRatio="xMidYMid meet" version="1.0"><defs><g/><clipPath id="e47ce8df27"><path d="M 83 164 L 246 164 L 246 337 L 83 337 Z M 83 164 " clip-rule="nonzero"/></clipPath><clipPath id="3654af74e3"><path d="M -3.734375 141.511719 L 213.238281 -7.5625 L 378.878906 233.515625 L 161.90625 382.59375 Z M -3.734375 141.511719 " clip-rule="nonzero"/></clipPath><clipPath id="90070585f4"><path d="M -3.734375 141.511719 L 213.238281 -7.5625 L 378.878906 233.515625 L 161.90625 382.59375 Z M -3.734375 141.511719 " clip-rule="nonzero"/></clipPath><clipPath id="28bf005f3d"><path d="M 79 157 L 251 157 L 251 342 L 79 342 Z M 79 157 " clip-rule="nonzero"/></clipPath><clipPath id="8ae8e98dc6"><path d="M -3.734375 141.511719 L 213.238281 -7.5625 L 378.878906 233.515625 L 161.90625 382.59375 Z M -3.734375 141.511719 " clip-rule="nonzero"/></clipPath><clipPath id="354c4c2f9d"><path d="M -3.734375 141.511719 L 213.238281 -7.5625 L 378.878906 233.515625 L 161.90625 382.59375 Z M -3.734375 141.511719 " clip-rule="nonzero"/></clipPath><clipPath id="b58f9358f0"><path d="M 136 60 L 267 60 L 267 187 L 136 187 Z M 136 60 " clip-rule="nonzero"/></clipPath><clipPath id="89d1e718f6"><path d="M -3.734375 141.511719 L 213.238281 -7.5625 L 378.878906 233.515625 L 161.90625 382.59375 Z M -3.734375 141.511719 " clip-rule="nonzero"/></clipPath><clipPath id="7e271db454"><path d="M -3.734375 141.511719 L 213.238281 -7.5625 L 378.878906 233.515625 L 161.90625 382.59375 Z M -3.734375 141.511719 " clip-rule="nonzero"/></clipPath><clipPath id="9f341df0d2"><path d="M 131 54 L 274 54 L 274 194 L 131 194 Z M 131 54 " clip-rule="nonzero"/></clipPath><clipPath id="c5bff8a7a9"><path d="M -3.734375 141.511719 L 213.238281 -7.5625 L 378.878906 233.515625 L 161.90625 382.59375 Z M -3.734375 141.511719 " clip-rule="nonzero"/></clipPath><clipPath id="251bf24efe"><path d="M -3.734375 141.511719 L 213.238281 -7.5625 L 378.878906 233.515625 L 161.90625 382.59375 Z M -3.734375 141.511719 " clip-rule="nonzero"/></clipPath><clipPath id="cf4785a0c6"><path d="M 86 221 L 87 221 L 87 223 L 86 223 Z M 86 221 " clip-rule="nonzero"/></clipPath><clipPath id="16cfbee7fd"><path d="M -3.734375 141.511719 L 213.238281 -7.5625 L 378.878906 233.515625 L 161.90625 382.59375 Z M -3.734375 141.511719 " clip-rule="nonzero"/></clipPath><clipPath id="b858f33c97"><path d="M -3.734375 141.511719 L 213.238281 -7.5625 L 378.878906 233.515625 L 161.90625 382.59375 Z M -3.734375 141.511719 " clip-rule="nonzero"/></clipPath><clipPath id="10dff765f4"><path d="M 160 124 L 234 124 L 234 330 L 160 330 Z M 160 124 " clip-rule="nonzero"/></clipPath><clipPath id="a65856c3b3"><path d="M -3.734375 141.511719 L 213.238281 -7.5625 L 378.878906 233.515625 L 161.90625 382.59375 Z M -3.734375 141.511719 " clip-rule="nonzero"/></clipPath><clipPath id="f49b3d69ad"><path d="M -3.734375 141.511719 L 213.238281 -7.5625 L 378.878906 233.515625 L 161.90625 382.59375 Z M -3.734375 141.511719 " clip-rule="nonzero"/></clipPath><clipPath id="5a38a7df1e"><path d="M 104 67 L 174 67 L 174 143 L 104 143 Z M 104 67 " clip-rule="nonzero"/></clipPath><clipPath id="2dcf8b83c2"><path d="M -3.734375 141.511719 L 213.238281 -7.5625 L 378.878906 233.515625 L 161.90625 382.59375 Z M -3.734375 141.511719 " clip-rule="nonzero"/></clipPath><clipPath id="269b648af1"><path d="M -3.734375 141.511719 L 213.238281 -7.5625 L 378.878906 233.515625 L 161.90625 382.59375 Z M -3.734375 141.511719 " clip-rule="nonzero"/></clipPath><clipPath id="a3494377b6"><path d="M 182 98 L 225 98 L 225 177 L 182 177 Z M 182 98 " clip-rule="nonzero"/></clipPath><clipPath id="33c8b6ec4b"><path d="M -3.734375 141.511719 L 213.238281 -7.5625 L 378.878906 233.515625 L 161.90625 382.59375 Z M -3.734375 141.511719 " clip-rule="nonzero"/></clipPath><clipPath id="85e17d4bf1"><path d="M -3.734375 141.511719 L 213.238281 -7.5625 L 378.878906 233.515625 L 161.90625 382.59375 Z M -3.734375 141.511719 " clip-rule="nonzero"/></clipPath><clipPath id="9b21c98021"><path d="M 109 136 L 185 136 L 185 178 L 109 178 Z M 109 136 " clip-rule="nonzero"/></clipPath><clipPath id="df8b61d8ba"><path d="M -3.734375 141.511719 L 213.238281 -7.5625 L 378.878906 233.515625 L 161.90625 382.59375 Z M -3.734375 141.511719 " clip-rule="nonzero"/></clipPath><clipPath id="32dae9b8f9"><path d="M -3.734375 141.511719 L 213.238281 -7.5625 L 378.878906 233.515625 L 161.90625 382.59375 Z M -3.734375 141.511719 " clip-rule="nonzero"/></clipPath><clipPath id="9df1d40fdd"><path d="M 191 133 L 269 133 L 269 206 L 191 206 Z M 191 133 " clip-rule="nonzero"/></clipPath><clipPath id="5c62e89f34"><path d="M -3.734375 141.511719 L 213.238281 -7.5625 L 378.878906 233.515625 L 161.90625 382.59375 Z M -3.734375 141.511719 " clip-rule="nonzero"/></clipPath><clipPath id="ce0403ecf8"><path d="M -3.734375 141.511719 L 213.238281 -7.5625 L 378.878906 233.515625 L 161.90625 382.59375 Z M -3.734375 141.511719 " clip-rule="nonzero"/></clipPath><clipPath id="98582ebe30"><path d="M 105 179 L 191 179 L 191 221 L 105 221 Z M 105 179 " clip-rule="nonzero"/></clipPath><clipPath id="2e0cf5ca43"><path d="M -3.734375 141.511719 L 213.238281 -7.5625 L 378.878906 233.515625 L 161.90625 382.59375 Z M -3.734375 141.511719 " clip-rule="nonzero"/></clipPath><clipPath id="5bcf03f777"><path d="M -3.734375 141.511719 L 213.238281 -7.5625 L 378.878906 233.515625 L 161.90625 382.59375 Z M -3.734375 141.511719 " clip-rule="nonzero"/></clipPath><clipPath id="e8de79bbbf"><path d="M 194 187 L 290 187 L 290 233 L 194 233 Z M 194 187 " clip-rule="nonzero"/></clipPath><clipPath id="67e9b056fa"><path d="M -3.734375 141.511719 L 213.238281 -7.5625 L 378.878906 233.515625 L 161.90625 382.59375 Z M -3.734375 141.511719 " clip-rule="nonzero"/></clipPath><clipPath id="8a032467df"><path d="M -3.734375 141.511719 L 213.238281 -7.5625 L 378.878906 233.515625 L 161.90625 382.59375 Z M -3.734375 141.511719 " clip-rule="nonzero"/></clipPath><clipPath id="6068922f8d"><path d="M 125 224 L 195 224 L 195 286 L 125 286 Z M 125 224 " clip-rule="nonzero"/></clipPath><clipPath id="41185feb5d"><path d="M -3.734375 141.511719 L 213.238281 -7.5625 L 378.878906 233.515625 L 161.90625 382.59375 Z M -3.734375 141.511719 " clip-rule="nonzero"/></clipPath><clipPath id="9d020f8b2a"><path d="M -3.734375 141.511719 L 213.238281 -7.5625 L 378.878906 233.515625 L 161.90625 382.59375 Z M -3.734375 141.511719 " clip-rule="nonzero"/></clipPath><clipPath id="90f7d17c69"><path d="M 204 251 L 309 251 L 309 280 L 204 280 Z M 204 251 " clip-rule="nonzero"/></clipPath><clipPath id="75beea2dbd"><path d="M -3.734375 141.511719 L 213.238281 -7.5625 L 378.878906 233.515625 L 161.90625 382.59375 Z M -3.734375 141.511719 " clip-rule="nonzero"/></clipPath><clipPath id="66206399a3"><path d="M -3.734375 141.511719 L 213.238281 -7.5625 L 378.878906 233.515625 L 161.90625 382.59375 Z M -3.734375 141.511719 " clip-rule="nonzero"/></clipPath><clipPath id="2e58afc234"><path d="M 134 275 L 206 275 L 206 343 L 134 343 Z M 134 275 " clip-rule="nonzero"/></clipPath><clipPath id="736d2e806a"><path d="M -3.734375 141.511719 L 213.238281 -7.5625 L 378.878906 233.515625 L 161.90625 382.59375 Z M -3.734375 141.511719 " clip-rule="nonzero"/></clipPath><clipPath id="df17ef1a2c"><path d="M -3.734375 141.511719 L 213.238281 -7.5625 L 378.878906 233.515625 L 161.90625 382.59375 Z M -3.734375 141.511719 " clip-rule="nonzero"/></clipPath><clipPath id="e0a2663e20"><path d="M 197 205 L 286 205 L 286 237 L 197 237 Z M 197 205 " clip-rule="nonzero"/></clipPath><clipPath id="da585ade9a"><path d="M -3.734375 141.511719 L 213.238281 -7.5625 L 378.878906 233.515625 L 161.90625 382.59375 Z M -3.734375 141.511719 " clip-rule="nonzero"/></clipPath><clipPath id="96af25e639"><path d="M -3.734375 141.511719 L 213.238281 -7.5625 L 378.878906 233.515625 L 161.90625 382.59375 Z M -3.734375 141.511719 " clip-rule="nonzero"/></clipPath></defs><rect x="-37.5" width="450" fill="#ffffff" y="-37.499999" height="449.999989" fill-opacity="1"/><rect x="-37.5" width="450" fill="#fbf9eb" y="-37.499999" height="449.999989" fill-opacity="1"/><g clip-path="url(#e47ce8df27)"><g clip-path="url(#3654af74e3)"><g clip-path="url(#90070585f4)"><path fill="#da6c38" d="M 94.847656 191.671875 C 87.046875 197.730469 84.617188 207.042969 84.148438 214.484375 C 83.324219 227.609375 85.164062 237.65625 89.355469 249.0625 C 92.644531 258.015625 98.625 267.15625 104.03125 274.820312 C 108.007812 280.460938 112.0625 286.050781 116.371094 291.457031 C 122.34375 298.945312 128.277344 306.480469 134.875 313.484375 C 149.515625 329.023438 174.910156 345.277344 204.203125 331.15625 C 208.402344 329.128906 212.46875 326.691406 216.339844 324.035156 C 219.367188 321.953125 222.410156 319.710938 224.769531 317.023438 C 228.933594 312.289062 232.546875 307.203125 235.679688 302.03125 C 258.21875 264.8125 238.210938 230.292969 217.851562 206.695312 C 212.453125 200.4375 206.289062 194.789062 200.25 189.058594 C 191.699219 180.949219 182.820312 172.359375 170.210938 168.605469 C 152.5 163.335938 127.804688 160.335938 108.210938 175.753906 C 100.699219 181.664062 94.445312 187.382812 90.355469 195.429688 C 89.214844 197.675781 89.710938 199.972656 89.121094 202.261719 C 88.886719 203.171875 88.347656 205.648438 87.898438 204.964844 Z M 94.847656 191.671875 " fill-opacity="1" fill-rule="evenodd"/></g></g></g><g clip-path="url(#28bf005f3d)"><g clip-path="url(#8ae8e98dc6)"><g clip-path="url(#354c4c2f9d)"><path fill="#da6c38" d="M 86.359375 193.605469 C 84.847656 195.625 83.636719 197.773438 82.675781 199.976562 C 80.59375 204.738281 79.675781 209.753906 79.398438 214.1875 C 78.96875 220.980469 79.21875 226.996094 80.101562 232.785156 C 81.019531 238.800781 82.621094 244.570312 84.875 250.710938 C 86.277344 254.527344 88.132812 258.375 90.226562 262.140625 C 93.257812 267.585938 96.792969 272.855469 100.121094 277.578125 L 112.628906 294.441406 L 131.382812 316.773438 C 139.761719 325.679688 151.484375 334.746094 165.351562 338.957031 C 177.597656 342.675781 191.5 342.683594 206.332031 335.566406 L 219.128906 328.089844 L 228.484375 320.285156 L 239.9375 304.609375 C 251.480469 285.625 252.605469 267.285156 248.449219 250.507812 C 243.96875 232.433594 233.160156 216.132812 222.089844 203.039062 L 204.382812 184.699219 C 198.976562 179.414062 193.414062 173.96875 186.914062 169.570312 C 182.46875 166.5625 177.585938 164.070312 172.070312 162.351562 C 162.054688 159.414062 149.945312 157.035156 137.695312 158.148438 C 126.324219 159.179688 114.882812 163.09375 104.851562 171.484375 C 100.257812 175.367188 96.117188 179.132812 92.6875 183.398438 C 90.230469 186.453125 88.09375 189.714844 86.390625 193.417969 Z M 89.761719 208.800781 C 89.277344 210.859375 89.019531 212.890625 88.902344 214.785156 C 88.523438 220.835938 88.738281 226.191406 89.527344 231.34375 C 90.355469 236.738281 91.808594 241.910156 93.835938 247.414062 C 95.074219 250.78125 96.722656 254.171875 98.574219 257.492188 C 101.441406 262.632812 104.792969 267.605469 107.9375 272.066406 L 120.117188 288.46875 L 138.371094 310.195312 C 145.734375 317.996094 155.96875 326.046875 168.144531 329.710938 C 178.296875 332.765625 189.8125 332.679688 202.078125 326.742188 L 213.550781 319.976562 L 221.058594 313.761719 L 231.425781 299.453125 C 241.273438 283.125 242.359375 267.363281 238.621094 253.007812 C 234.347656 236.59375 223.933594 222.070312 213.613281 210.351562 L 196.117188 193.414062 C 191.085938 188.785156 185.941406 183.980469 179.957031 180.171875 C 176.453125 177.941406 172.644531 176.082031 168.347656 174.863281 C 159.699219 172.25 149.265625 170.300781 138.636719 170.90625 C 129.453125 171.429688 120.042969 173.753906 111.574219 180.023438 C 107.265625 183.175781 103.363281 186.238281 100.046875 189.78125 L 98.605469 191.390625 C 98.894531 192.359375 98.90625 193.347656 98.597656 194.191406 L 97.996094 193.320312 L 97.214844 194.941406 L 97.761719 195.425781 C 97.289062 195.792969 96.84375 196.175781 96.425781 196.574219 L 93.097656 203.476562 C 92.644531 204.90625 91.382812 207.707031 90.679688 208.21875 C 90.378906 208.4375 90.074219 208.636719 89.761719 208.800781 Z M 89.761719 208.800781 " fill-opacity="1" fill-rule="evenodd"/></g></g></g><g clip-path="url(#b58f9358f0)"><g clip-path="url(#89d1e718f6)"><g clip-path="url(#7e271db454)"><path fill="#f09e41" d="M 146.429688 84.703125 C 142.136719 84.324219 141.636719 90.265625 141.128906 92.796875 C 138.664062 105.074219 134.648438 118.859375 138.570312 131.359375 C 149.828125 167.21875 195.46875 201.964844 233.746094 180.1875 C 239.867188 176.703125 244.921875 172.609375 249.742188 167.519531 C 255.226562 161.738281 262.136719 154.144531 264.324219 146.085938 C 272.953125 114.3125 254.285156 83.226562 225.875 68.773438 C 220.285156 65.933594 209.207031 61.613281 202.832031 60.941406 C 185.679688 59.136719 169.765625 68.566406 154.652344 74.824219 Z M 146.429688 84.703125 " fill-opacity="1" fill-rule="evenodd"/></g></g></g><g clip-path="url(#9f341df0d2)"><g clip-path="url(#c5bff8a7a9)"><g clip-path="url(#251bf24efe)"><path fill="#f09e41" d="M 142.484375 80.671875 C 141.558594 81.117188 140.75 81.738281 140.03125 82.472656 C 137.722656 84.835938 136.835938 89.417969 136.316406 91.832031 C 134.6875 99.371094 132.511719 107.464844 131.832031 115.515625 C 131.328125 121.429688 131.648438 127.316406 133.34375 133 C 139.097656 152.308594 154.09375 171.449219 172.828125 182.875 C 192.324219 194.769531 215.730469 198.207031 237.222656 186.296875 C 240.617188 184.390625 243.71875 182.308594 246.640625 180.011719 C 249.546875 177.730469 252.273438 175.226562 254.941406 172.445312 C 258.5 168.738281 262.589844 164.3125 265.839844 159.515625 C 268.316406 155.855469 270.292969 151.964844 271.394531 148.007812 C 276.183594 130.183594 273.410156 112.546875 265.285156 97.421875 C 257.398438 82.738281 244.480469 70.449219 228.949219 62.722656 C 225.398438 60.964844 219.789062 58.65625 214.378906 56.945312 C 210.386719 55.683594 206.496094 54.738281 203.511719 54.460938 C 195.777344 53.761719 188.285156 54.988281 181.007812 57.296875 C 171.117188 60.429688 161.636719 65.53125 152.445312 69.496094 C 151.582031 69.851562 150.816406 70.417969 150.21875 71.136719 Z M 146.222656 89.746094 L 146.386719 89.980469 C 148.039062 90.265625 149.597656 89.683594 150.550781 88.421875 C 150.742188 88.292969 158.121094 79.648438 158.121094 79.648438 C 166.65625 76.175781 175.460938 71.808594 184.589844 69.207031 C 190.300781 67.582031 196.148438 66.707031 202.148438 67.425781 C 204.921875 67.75 208.691406 68.945312 212.390625 70.304688 C 216.347656 71.761719 220.210938 73.472656 222.796875 74.824219 C 235.597656 81.480469 246.128906 91.878906 252.546875 104.167969 C 258.832031 116.195312 261.113281 130.101562 257.253906 144.167969 C 256.589844 146.675781 255.304688 149.117188 253.765625 151.449219 C 251.039062 155.585938 247.550781 159.386719 244.546875 162.597656 C 242.382812 164.910156 240.171875 167.003906 237.804688 168.910156 C 235.46875 170.792969 232.988281 172.503906 230.269531 174.074219 C 213.484375 183.875 194.964844 180.957031 179.304688 171.949219 C 162.808594 162.453125 149.273438 146.3125 143.800781 129.71875 C 142.367188 125.371094 142.054688 120.828125 142.308594 116.25 C 142.734375 108.628906 144.617188 100.933594 145.945312 93.765625 C 146.082031 93.03125 146.003906 90.925781 146.222656 89.746094 Z M 146.296875 89.433594 C 146.429688 88.957031 146.644531 88.753906 147 89.082031 C 147.207031 89.269531 146.71875 89.40625 146.296875 89.433594 Z M 146.296875 89.433594 " fill-opacity="1" fill-rule="evenodd"/></g></g></g><g clip-path="url(#cf4785a0c6)"><g clip-path="url(#16cfbee7fd)"><g clip-path="url(#b858f33c97)"><path fill="#026e00" d="M 86.320312 221.398438 C 86.457031 221.804688 86.433594 221.703125 86.636719 222.03125 " fill-opacity="1" fill-rule="evenodd"/></g></g></g><g clip-path="url(#10dff765f4)"><g clip-path="url(#a65856c3b3)"><g clip-path="url(#f49b3d69ad)"><path fill="#026e00" d="M 231.363281 328.648438 C 232.214844 330.105469 229.265625 325.671875 228.875 325.1875 C 226.390625 322.09375 223.914062 318.847656 221.875 315.441406 C 216.398438 306.292969 211.609375 297.335938 206.917969 287.777344 C 198.96875 271.570312 197.007812 252.402344 194.722656 234.777344 C 193.84375 227.96875 191.902344 221.289062 191.019531 214.472656 C 189.53125 202.972656 187.382812 190.855469 183.480469 179.90625 C 179.179688 167.84375 176.222656 155.328125 170.769531 143.675781 C 168.90625 139.6875 166.789062 135.722656 164.699219 131.839844 C 163.917969 130.390625 162.796875 129.078125 162.089844 127.609375 C 161.695312 126.785156 160.339844 124.679688 161.191406 125.015625 C 163.925781 126.089844 166.335938 130.375 167.894531 132.671875 C 173.144531 140.410156 175.316406 148.3125 178.753906 156.90625 C 191.066406 187.703125 194.90625 221.332031 199.980469 253.710938 C 202.875 272.191406 210.449219 289.691406 218.511719 306.484375 C 221.53125 312.777344 226.757812 317.496094 230.386719 323.378906 C 230.984375 324.34375 233.835938 328.316406 233.132812 329.15625 " fill-opacity="1" fill-rule="evenodd"/></g></g></g><g clip-path="url(#5a38a7df1e)"><g clip-path="url(#2dcf8b83c2)"><g clip-path="url(#269b648af1)"><path fill="#026e00" d="M 170.851562 142.875 C 161.21875 133.839844 148.171875 129.632812 136.8125 123.191406 C 124.933594 116.449219 115.515625 106.050781 110.714844 93.347656 C 108.457031 87.371094 105.949219 81.050781 105.113281 74.703125 C 104.890625 73.019531 104.492188 68.457031 106.132812 67.207031 C 106.511719 66.917969 107.132812 68.125 107.257812 68.3125 C 108.316406 69.953125 109.523438 71.472656 110.898438 72.882812 C 113.613281 75.667969 117.320312 78.148438 120.753906 79.953125 C 125.382812 82.386719 130.519531 83.527344 135.324219 85.566406 C 148.972656 91.367188 161.09375 100.652344 168.410156 113.625 C 171.679688 119.421875 173.527344 125.933594 173.390625 132.628906 C 173.347656 134.71875 173.097656 136.695312 172.625 138.699219 C 172.46875 139.375 171.738281 141.773438 171.664062 141.558594 " fill-opacity="1" fill-rule="evenodd"/></g></g></g><g clip-path="url(#a3494377b6)"><g clip-path="url(#33c8b6ec4b)"><g clip-path="url(#85e17d4bf1)"><path fill="#026e00" d="M 182.28125 175.070312 C 182.851562 176.636719 186.359375 171.160156 186.726562 170.496094 C 189.445312 165.523438 189.796875 158.464844 190.238281 152.945312 C 191.574219 136.28125 195.144531 115.410156 210.089844 105.378906 C 213.441406 103.125 216.691406 101.34375 220.351562 99.648438 C 221.191406 99.261719 223.476562 97.597656 224.445312 98.554688 C 224.867188 98.96875 223.269531 101.574219 223.085938 101.996094 C 221.371094 105.949219 220.8125 110.710938 220.046875 114.945312 C 218.652344 122.65625 218.519531 130.546875 216.941406 138.195312 C 214.8125 148.519531 210.019531 157.8125 203.65625 166.105469 C 200.265625 170.519531 195.671875 174.046875 190.613281 176.351562 C 188.535156 177.300781 185.246094 177.210938 184.449219 174.875 " fill-opacity="1" fill-rule="evenodd"/></g></g></g><g clip-path="url(#9b21c98021)"><g clip-path="url(#df8b61d8ba)"><g clip-path="url(#32dae9b8f9)"><path fill="#026e00" d="M 184.042969 177.871094 C 184.742188 177.355469 179.125 172.910156 178.191406 172.242188 C 172.566406 168.207031 165.523438 166.851562 158.761719 167.238281 C 153.703125 167.527344 148.6875 166.945312 143.6875 166.265625 C 139.90625 165.75 136.074219 165.855469 132.351562 164.910156 C 122.34375 162.375 113.625 155.011719 111.175781 144.714844 C 110.589844 142.238281 109.300781 139.324219 109.652344 136.742188 C 109.902344 134.9375 114.101562 140.703125 114.898438 141.210938 C 118.6875 143.628906 122.949219 143.953125 127.226562 144.609375 C 130.582031 145.125 134.179688 144.386719 137.570312 144.367188 C 143.070312 144.332031 149.023438 144.820312 154.433594 145.773438 C 159.855469 146.730469 165.804688 151.183594 170.097656 154.59375 C 174.410156 158.019531 177.207031 162.273438 179.453125 167.195312 C 180.210938 168.859375 180.980469 170.375 181.578125 172.128906 C 181.777344 172.707031 182.839844 174.96875 182.171875 174.3125 " fill-opacity="1" fill-rule="evenodd"/></g></g></g><g clip-path="url(#9df1d40fdd)"><g clip-path="url(#5c62e89f34)"><g clip-path="url(#ce0403ecf8)"><path fill="#026e00" d="M 191.234375 204.472656 C 191.277344 204.769531 191.921875 197.898438 192.3125 196.234375 C 193.496094 191.152344 197.03125 185.769531 200.285156 181.769531 C 206.597656 174.003906 216.246094 168.585938 225.214844 164.582031 C 232.160156 161.484375 239.382812 160.28125 245.867188 156.054688 C 251.375 152.464844 255.0625 147.078125 258.9375 141.929688 C 260.566406 139.765625 261.796875 137.789062 263.023438 135.398438 C 263.238281 134.984375 264.078125 133.179688 264.660156 134.058594 C 266.496094 136.835938 266.890625 142.035156 267.269531 145.234375 C 267.628906 148.28125 268.488281 151.578125 268.105469 154.652344 C 266.011719 171.394531 250.917969 185.792969 236.015625 191.910156 C 227.324219 195.480469 217.386719 195.445312 208.332031 197.925781 C 204.109375 199.085938 199.558594 200.570312 195.703125 202.71875 C 194.804688 203.21875 192.765625 205.667969 192.023438 205.703125 " fill-opacity="1" fill-rule="evenodd"/></g></g></g><g clip-path="url(#98582ebe30)"><g clip-path="url(#2e0cf5ca43)"><g clip-path="url(#5bcf03f777)"><path fill="#026e00" d="M 189.679688 203.101562 C 191.832031 203.453125 190.023438 201.191406 189.378906 200.171875 C 187.574219 197.3125 185.535156 194.605469 183.105469 192.261719 C 177.304688 186.671875 169.523438 182.117188 161.503906 180.597656 C 151.078125 178.625 137.957031 181.339844 130.175781 188.945312 C 125.554688 193.460938 122.09375 198.960938 118.136719 204.011719 C 115.773438 207.027344 113.234375 209.898438 109.566406 211.304688 C 108.640625 211.65625 107.742188 211.808594 106.765625 211.851562 C 106.199219 211.875 104.652344 211.402344 105.070312 211.785156 C 108.132812 214.589844 110.550781 217.347656 114.5625 218.988281 C 117.078125 220.019531 120.523438 220.277344 123.222656 220.160156 C 129.921875 219.863281 136.101562 218.382812 141.898438 214.820312 C 149.25 210.300781 156.003906 203.894531 163.992188 200.582031 C 170.886719 197.726562 175.910156 197.769531 182.617188 200.46875 C 184.59375 201.265625 186.339844 201.632812 188.089844 202.910156 C 188.921875 203.519531 191.195312 205.621094 190.4375 204.925781 " fill-opacity="1" fill-rule="evenodd"/></g></g></g><g clip-path="url(#e8de79bbbf)"><g clip-path="url(#67e9b056fa)"><g clip-path="url(#8a032467df)"><path fill="#026e00" d="M 195.789062 230.59375 C 196.054688 227.804688 198.054688 225.230469 199.410156 222.878906 C 208.25 207.53125 226.597656 210.03125 241.523438 208.039062 C 245.898438 207.457031 249.890625 206.277344 254.085938 204.949219 C 261.964844 202.449219 269.515625 199.957031 276.535156 195.492188 C 279.792969 193.421875 282.558594 190.675781 285.980469 188.867188 C 286.386719 188.652344 288.980469 186.96875 289.324219 187.875 C 290.945312 192.109375 289.03125 197.988281 287.832031 202.050781 C 283.472656 216.808594 271.238281 226.34375 256.476562 230.386719 C 248.429688 232.59375 239.269531 232.554688 230.902344 232.921875 C 223.140625 233.265625 215.539062 231.738281 207.847656 231.820312 C 205.117188 231.847656 202.398438 231.921875 199.667969 231.898438 C 198.617188 231.890625 197.613281 231.847656 196.5625 231.894531 C 196.269531 231.90625 194.824219 231.96875 195.011719 231.960938 " fill-opacity="1" fill-rule="evenodd"/></g></g></g><g clip-path="url(#6068922f8d)"><g clip-path="url(#41185feb5d)"><g clip-path="url(#9d020f8b2a)"><path fill="#026e00" d="M 194.523438 227.765625 C 194.632812 228.257812 190.984375 226.226562 190.230469 225.960938 C 187.601562 225.042969 184.625 224.464844 181.832031 224.355469 C 175.300781 224.097656 168.84375 225.945312 162.648438 227.738281 C 159.433594 228.671875 156.105469 229.175781 153.035156 230.5625 C 143.652344 234.800781 133.480469 242.574219 128.710938 251.953125 C 125.210938 258.835938 125.683594 269.148438 126.269531 276.621094 C 126.457031 279.019531 125.667969 283.28125 126.519531 285.5 C 126.554688 285.589844 131.730469 284.71875 131.847656 284.699219 C 137.414062 283.921875 141.695312 280.886719 145.476562 276.902344 C 153.371094 268.578125 159.382812 259.15625 165.582031 249.484375 C 168.953125 244.222656 172.757812 238.039062 178.042969 234.402344 C 181.5625 231.980469 185.015625 229.21875 189.355469 228.542969 C 191.136719 228.265625 193.046875 227.59375 194.453125 228.882812 " fill-opacity="1" fill-rule="evenodd"/></g></g></g><g clip-path="url(#90f7d17c69)"><g clip-path="url(#75beea2dbd)"><g clip-path="url(#66206399a3)"><path fill="#026e00" d="M 204.394531 276.046875 C 203.746094 277.566406 205.605469 274.324219 205.769531 274.007812 C 206.824219 271.960938 208.355469 270 210.007812 268.394531 C 215.109375 263.441406 219.757812 259.6875 226.367188 256.699219 C 238.46875 251.230469 254.695312 250.527344 267.523438 253.472656 C 274.65625 255.113281 281.53125 257.390625 288.851562 258.199219 C 292.960938 258.65625 297.390625 258.367188 301.449219 257.527344 C 303.421875 257.121094 305.339844 256.511719 307.28125 255.972656 C 307.742188 255.847656 308.539062 255.574219 308.710938 256.265625 C 309.175781 258.15625 305.636719 261.222656 304.609375 262.34375 C 299.777344 267.621094 293.945312 271.4375 287.308594 274.078125 C 271.136719 280.515625 252.121094 280.019531 235.171875 277.199219 C 227.726562 275.957031 220.429688 275.609375 212.957031 276.40625 C 210.527344 276.664062 207.148438 276.949219 205.394531 278.863281 " fill-opacity="1" fill-rule="evenodd"/></g></g></g><g clip-path="url(#2e58afc234)"><g clip-path="url(#736d2e806a)"><g clip-path="url(#df17ef1a2c)"><path fill="#026e00" d="M 203.628906 277.472656 C 203.195312 277.824219 201.632812 276.675781 201.28125 276.566406 C 199.5625 276.035156 197.46875 275.648438 195.691406 275.511719 C 190.011719 275.082031 183.597656 274.886719 178.300781 277.222656 C 167.847656 281.824219 158.097656 289.460938 153.226562 300.035156 C 149.3125 308.53125 147.695312 318.195312 144.382812 326.972656 C 142.953125 330.761719 140.953125 334.257812 138.105469 337.164062 C 137.738281 337.535156 134.21875 340.042969 134.234375 340.398438 C 134.238281 340.503906 135.660156 341.265625 135.691406 341.28125 C 137.34375 342.199219 139.175781 342.871094 141.070312 342.929688 C 148.820312 343.183594 154.910156 340.785156 161.828125 337.296875 C 166.542969 334.921875 169.476562 331.257812 173.199219 327.59375 C 182.136719 318.8125 187.492188 307.003906 192.441406 295.597656 C 194.4375 290.996094 196.164062 285.609375 199.625 281.828125 C 200.449219 280.929688 201.445312 279.074219 202.792969 278.742188 C 203.351562 278.601562 206.457031 278.332031 205.742188 278.730469 " fill-opacity="1" fill-rule="evenodd"/></g></g></g><g clip-path="url(#e0a2663e20)"><g clip-path="url(#da585ade9a)"><g clip-path="url(#96af25e639)"><path fill="#026e00" d="M 197.878906 231.347656 C 197.847656 231.335938 198.460938 231.453125 198.515625 231.457031 C 198.957031 231.46875 199.398438 231.417969 199.835938 231.433594 C 201.03125 231.472656 202.210938 231.542969 203.402344 231.648438 C 206.617188 231.925781 210.234375 231.152344 213.335938 232.035156 C 217.109375 233.113281 221.042969 233.207031 224.886719 233.960938 C 231.484375 235.253906 239.148438 236.988281 245.878906 235.675781 C 258.582031 233.199219 271.21875 227.265625 279.414062 216.949219 C 281.410156 214.433594 283.082031 211.617188 284.253906 208.613281 C 284.417969 208.191406 285.316406 206.484375 285.078125 206.03125 C 284.929688 205.746094 284.117188 206.238281 283.941406 206.316406 C 282.710938 206.882812 281.515625 207.46875 280.222656 207.902344 C 274.875 209.695312 269.71875 211.980469 264.300781 213.589844 " fill-opacity="1" fill-rule="evenodd"/></g></g></g><path fill="#fbf9eb" d="M 12.277344 175.644531 L 362.722656 175.644531 C 365.375 175.644531 367.914062 176.695312 369.789062 178.570312 C 371.664062 180.445312 372.71875 182.988281 372.71875 185.636719 L 372.71875 205.625 C 372.71875 208.277344 371.664062 210.816406 369.789062 212.691406 C 367.914062 214.566406 365.375 215.617188 362.722656 215.617188 L 12.277344 215.617188 C 6.757812 215.617188 2.28125 211.144531 2.28125 205.625 L 2.28125 185.636719 C 2.28125 180.117188 6.757812 175.644531 12.277344 175.644531 Z M 12.277344 175.644531 " fill-opacity="1" fill-rule="nonzero"/><g fill="#323b1d" fill-opacity="1"><g transform="translate(17.04468, 204.119334)"><g><path d="M 17.890625 0 L 17.859375 -10.4375 L 12.75 -1.84375 L 10.9375 -1.84375 L 5.84375 -10.203125 L 5.84375 0 L 2.0625 0 L 2.0625 -17.390625 L 5.390625 -17.390625 L 11.90625 -6.578125 L 18.3125 -17.390625 L 21.609375 -17.390625 L 21.65625 0 Z M 17.890625 0 "/></g></g></g><g fill="#323b1d" fill-opacity="1"><g transform="translate(50.400724, 204.119334)"><g><path d="M 2.0625 -17.390625 L 6.09375 -17.390625 L 6.09375 0 L 2.0625 0 Z M 2.0625 -17.390625 "/></g></g></g><g fill="#323b1d" fill-opacity="1"><g transform="translate(68.187747, 204.119334)"><g><path d="M 13.140625 0 L 9.78125 -4.84375 L 6.09375 -4.84375 L 6.09375 0 L 2.0625 0 L 2.0625 -17.390625 L 9.59375 -17.390625 C 11.132812 -17.390625 12.46875 -17.128906 13.59375 -16.609375 C 14.726562 -16.097656 15.601562 -15.367188 16.21875 -14.421875 C 16.832031 -13.484375 17.140625 -12.367188 17.140625 -11.078125 C 17.140625 -9.785156 16.828125 -8.671875 16.203125 -7.734375 C 15.585938 -6.796875 14.707031 -6.082031 13.5625 -5.59375 L 17.46875 0 Z M 13.0625 -11.078125 C 13.0625 -12.054688 12.742188 -12.804688 12.109375 -13.328125 C 11.484375 -13.847656 10.566406 -14.109375 9.359375 -14.109375 L 6.09375 -14.109375 L 6.09375 -8.046875 L 9.359375 -8.046875 C 10.566406 -8.046875 11.484375 -8.3125 12.109375 -8.84375 C 12.742188 -9.375 13.0625 -10.117188 13.0625 -11.078125 Z M 13.0625 -11.078125 "/></g></g></g><g fill="#323b1d" fill-opacity="1"><g transform="translate(96.080965, 204.119334)"><g><path d="M 13.515625 -3.71875 L 5.4375 -3.71875 L 3.90625 0 L -0.21875 0 L 7.53125 -17.390625 L 11.5 -17.390625 L 19.28125 0 L 15.0625 0 Z M 12.25 -6.78125 L 9.484375 -13.4375 L 6.734375 -6.78125 Z M 12.25 -6.78125 "/></g></g></g><g fill="#323b1d" fill-opacity="1"><g transform="translate(124.743963, 204.119334)"><g><path d="M 18.015625 -17.390625 L 18.015625 0 L 14.703125 0 L 6.03125 -10.5625 L 6.03125 0 L 2.0625 0 L 2.0625 -17.390625 L 5.390625 -17.390625 L 14.03125 -6.828125 L 14.03125 -17.390625 Z M 18.015625 -17.390625 "/></g></g></g><g fill="#323b1d" fill-opacity="1"><g transform="translate(154.449852, 204.119334)"><g><path d="M 2.0625 -17.390625 L 9.96875 -17.390625 C 11.851562 -17.390625 13.519531 -17.03125 14.96875 -16.3125 C 16.414062 -15.59375 17.539062 -14.578125 18.34375 -13.265625 C 19.144531 -11.953125 19.546875 -10.425781 19.546875 -8.6875 C 19.546875 -6.957031 19.144531 -5.4375 18.34375 -4.125 C 17.539062 -2.8125 16.414062 -1.796875 14.96875 -1.078125 C 13.519531 -0.359375 11.851562 0 9.96875 0 L 2.0625 0 Z M 9.765625 -3.296875 C 11.503906 -3.296875 12.890625 -3.78125 13.921875 -4.75 C 14.960938 -5.71875 15.484375 -7.03125 15.484375 -8.6875 C 15.484375 -10.34375 14.960938 -11.65625 13.921875 -12.625 C 12.890625 -13.601562 11.503906 -14.09375 9.765625 -14.09375 L 6.09375 -14.09375 L 6.09375 -3.296875 Z M 9.765625 -3.296875 "/></g></g></g><g fill="#323b1d" fill-opacity="1"><g transform="translate(184.602694, 204.119334)"><g><path d="M 13.515625 -3.71875 L 5.4375 -3.71875 L 3.90625 0 L -0.21875 0 L 7.53125 -17.390625 L 11.5 -17.390625 L 19.28125 0 L 15.0625 0 Z M 12.25 -6.78125 L 9.484375 -13.4375 L 6.734375 -6.78125 Z M 12.25 -6.78125 "/></g></g></g><g fill="#323b1d" fill-opacity="1"><g transform="translate(213.265692, 204.119334)"><g/></g></g><g fill="#323b1d" fill-opacity="1"><g transform="translate(229.935307, 204.119334)"><g><path d="M 13.515625 -3.71875 L 5.4375 -3.71875 L 3.90625 0 L -0.21875 0 L 7.53125 -17.390625 L 11.5 -17.390625 L 19.28125 0 L 15.0625 0 Z M 12.25 -6.78125 L 9.484375 -13.4375 L 6.734375 -6.78125 Z M 12.25 -6.78125 "/></g></g></g><g fill="#323b1d" fill-opacity="1"><g transform="translate(258.598305, 204.119334)"><g><path d="M 2.0625 -17.390625 L 9.96875 -17.390625 C 11.851562 -17.390625 13.519531 -17.03125 14.96875 -16.3125 C 16.414062 -15.59375 17.539062 -14.578125 18.34375 -13.265625 C 19.144531 -11.953125 19.546875 -10.425781 19.546875 -8.6875 C 19.546875 -6.957031 19.144531 -5.4375 18.34375 -4.125 C 17.539062 -2.8125 16.414062 -1.796875 14.96875 -1.078125 C 13.519531 -0.359375 11.851562 0 9.96875 0 L 2.0625 0 Z M 9.765625 -3.296875 C 11.503906 -3.296875 12.890625 -3.78125 13.921875 -4.75 C 14.960938 -5.71875 15.484375 -7.03125 15.484375 -8.6875 C 15.484375 -10.34375 14.960938 -11.65625 13.921875 -12.625 C 12.890625 -13.601562 11.503906 -14.09375 9.765625 -14.09375 L 6.09375 -14.09375 L 6.09375 -3.296875 Z M 9.765625 -3.296875 "/></g></g></g><g fill="#323b1d" fill-opacity="1"><g transform="translate(288.751158, 204.119334)"><g><path d="M 2.0625 -17.390625 L 6.09375 -17.390625 L 6.09375 -3.28125 L 14.8125 -3.28125 L 14.8125 0 L 2.0625 0 Z M 2.0625 -17.390625 "/></g></g></g><g fill="#323b1d" fill-opacity="1"><g transform="translate(313.391534, 204.119334)"><g><path d="M 15.53125 -3.234375 L 15.53125 0 L 2.0625 0 L 2.0625 -17.390625 L 15.203125 -17.390625 L 15.203125 -14.15625 L 6.0625 -14.15625 L 6.0625 -10.390625 L 14.140625 -10.390625 L 14.140625 -7.25 L 6.0625 -7.25 L 6.0625 -3.234375 Z M 15.53125 -3.234375 "/></g></g></g><g fill="#323b1d" fill-opacity="1"><g transform="translate(339.695574, 204.119334)"><g><path d="M 13.140625 0 L 9.78125 -4.84375 L 6.09375 -4.84375 L 6.09375 0 L 2.0625 0 L 2.0625 -17.390625 L 9.59375 -17.390625 C 11.132812 -17.390625 12.46875 -17.128906 13.59375 -16.609375 C 14.726562 -16.097656 15.601562 -15.367188 16.21875 -14.421875 C 16.832031 -13.484375 17.140625 -12.367188 17.140625 -11.078125 C 17.140625 -9.785156 16.828125 -8.671875 16.203125 -7.734375 C 15.585938 -6.796875 14.707031 -6.082031 13.5625 -5.59375 L 17.46875 0 Z M 13.0625 -11.078125 C 13.0625 -12.054688 12.742188 -12.804688 12.109375 -13.328125 C 11.484375 -13.847656 10.566406 -14.109375 9.359375 -14.109375 L 6.09375 -14.109375 L 6.09375 -8.046875 L 9.359375 -8.046875 C 10.566406 -8.046875 11.484375 -8.3125 12.109375 -8.84375 C 12.742188 -9.375 13.0625 -10.117188 13.0625 -11.078125 Z M 13.0625 -11.078125 "/></g></g></g><path fill="#fbf9eb" d="M 17.082031 213.25 L 357.898438 213.25 C 361.496094 213.25 364.410156 216.164062 364.410156 219.761719 L 364.410156 232.785156 C 364.410156 236.382812 361.496094 239.296875 357.898438 239.296875 L 17.082031 239.296875 C 13.484375 239.296875 10.570312 236.382812 10.570312 232.785156 L 10.570312 219.761719 C 10.570312 216.164062 13.484375 213.25 17.082031 213.25 Z M 17.082031 213.25 " fill-opacity="1" fill-rule="nonzero"/><g fill="#b47832" fill-opacity="1"><g transform="translate(20.292608, 231.523946)"><g><path d="M 1.71875 -11.453125 L 6.546875 -11.453125 C 7.753906 -11.453125 8.828125 -11.210938 9.765625 -10.734375 C 10.703125 -10.253906 11.429688 -9.578125 11.953125 -8.703125 C 12.472656 -7.835938 12.734375 -6.84375 12.734375 -5.71875 C 12.734375 -4.601562 12.472656 -3.609375 11.953125 -2.734375 C 11.429688 -1.867188 10.703125 -1.195312 9.765625 -0.71875 C 8.828125 -0.238281 7.753906 0 6.546875 0 L 1.71875 0 Z M 6.453125 -1.421875 C 7.378906 -1.421875 8.191406 -1.597656 8.890625 -1.953125 C 9.597656 -2.316406 10.140625 -2.820312 10.515625 -3.46875 C 10.898438 -4.125 11.09375 -4.875 11.09375 -5.71875 C 11.09375 -6.570312 10.898438 -7.320312 10.515625 -7.96875 C 10.140625 -8.625 9.597656 -9.128906 8.890625 -9.484375 C 8.191406 -9.847656 7.378906 -10.03125 6.453125 -10.03125 L 3.359375 -10.03125 L 3.359375 -1.421875 Z M 6.453125 -1.421875 "/></g></g></g><g fill="#b47832" fill-opacity="1"><g transform="translate(40.157069, 231.523946)"><g><path d="M 10.03125 -1.421875 L 10.03125 0 L 1.71875 0 L 1.71875 -11.453125 L 9.796875 -11.453125 L 9.796875 -10.03125 L 3.359375 -10.03125 L 3.359375 -6.515625 L 9.09375 -6.515625 L 9.09375 -5.125 L 3.359375 -5.125 L 3.359375 -1.421875 Z M 10.03125 -1.421875 "/></g></g></g><g fill="#b47832" fill-opacity="1"><g transform="translate(57.469476, 231.523946)"><g><path d="M 5.0625 0.125 C 4.195312 0.125 3.363281 -0.00390625 2.5625 -0.265625 C 1.757812 -0.535156 1.128906 -0.882812 0.671875 -1.3125 L 1.28125 -2.578125 C 1.71875 -2.191406 2.273438 -1.875 2.953125 -1.625 C 3.628906 -1.382812 4.332031 -1.265625 5.0625 -1.265625 C 6.007812 -1.265625 6.71875 -1.421875 7.1875 -1.734375 C 7.65625 -2.054688 7.890625 -2.488281 7.890625 -3.03125 C 7.890625 -3.414062 7.757812 -3.734375 7.5 -3.984375 C 7.238281 -4.234375 6.921875 -4.421875 6.546875 -4.546875 C 6.171875 -4.679688 5.640625 -4.828125 4.953125 -4.984375 C 4.097656 -5.191406 3.40625 -5.398438 2.875 -5.609375 C 2.34375 -5.816406 1.890625 -6.132812 1.515625 -6.5625 C 1.140625 -7 0.953125 -7.582031 0.953125 -8.3125 C 0.953125 -8.925781 1.109375 -9.476562 1.421875 -9.96875 C 1.742188 -10.457031 2.234375 -10.847656 2.890625 -11.140625 C 3.546875 -11.429688 4.359375 -11.578125 5.328125 -11.578125 C 6.003906 -11.578125 6.671875 -11.488281 7.328125 -11.3125 C 7.984375 -11.144531 8.546875 -10.894531 9.015625 -10.5625 L 8.46875 -9.265625 C 7.988281 -9.566406 7.476562 -9.796875 6.9375 -9.953125 C 6.394531 -10.109375 5.859375 -10.1875 5.328125 -10.1875 C 4.398438 -10.1875 3.703125 -10.015625 3.234375 -9.671875 C 2.773438 -9.335938 2.546875 -8.90625 2.546875 -8.375 C 2.546875 -7.976562 2.675781 -7.65625 2.9375 -7.40625 C 3.207031 -7.164062 3.535156 -6.976562 3.921875 -6.84375 C 4.304688 -6.707031 4.832031 -6.5625 5.5 -6.40625 C 6.363281 -6.207031 7.054688 -6.003906 7.578125 -5.796875 C 8.097656 -5.585938 8.546875 -5.269531 8.921875 -4.84375 C 9.296875 -4.414062 9.484375 -3.84375 9.484375 -3.125 C 9.484375 -2.519531 9.316406 -1.96875 8.984375 -1.46875 C 8.660156 -0.976562 8.164062 -0.585938 7.5 -0.296875 C 6.84375 -0.015625 6.03125 0.125 5.0625 0.125 Z M 5.0625 0.125 "/></g></g></g><g fill="#b47832" fill-opacity="1"><g transform="translate(73.980284, 231.523946)"><g><path d="M 1.71875 -11.453125 L 3.359375 -11.453125 L 3.359375 0 L 1.71875 0 Z M 1.71875 -11.453125 "/></g></g></g><g fill="#b47832" fill-opacity="1"><g transform="translate(85.403329, 231.523946)"><g><path d="M 9.65625 -5.796875 L 11.21875 -5.796875 L 11.21875 -1.328125 C 10.65625 -0.859375 9.992188 -0.5 9.234375 -0.25 C 8.484375 0 7.703125 0.125 6.890625 0.125 C 5.734375 0.125 4.691406 -0.125 3.765625 -0.625 C 2.835938 -1.132812 2.109375 -1.832031 1.578125 -2.71875 C 1.046875 -3.613281 0.78125 -4.613281 0.78125 -5.71875 C 0.78125 -6.832031 1.046875 -7.835938 1.578125 -8.734375 C 2.109375 -9.628906 2.835938 -10.328125 3.765625 -10.828125 C 4.703125 -11.328125 5.753906 -11.578125 6.921875 -11.578125 C 7.835938 -11.578125 8.664062 -11.425781 9.40625 -11.125 C 10.15625 -10.832031 10.796875 -10.394531 11.328125 -9.8125 L 10.3125 -8.796875 C 9.394531 -9.679688 8.285156 -10.125 6.984375 -10.125 C 6.109375 -10.125 5.320312 -9.9375 4.625 -9.5625 C 3.9375 -9.1875 3.394531 -8.660156 3 -7.984375 C 2.613281 -7.316406 2.421875 -6.5625 2.421875 -5.71875 C 2.421875 -4.894531 2.613281 -4.144531 3 -3.46875 C 3.394531 -2.800781 3.9375 -2.273438 4.625 -1.890625 C 5.320312 -1.515625 6.101562 -1.328125 6.96875 -1.328125 C 7.988281 -1.328125 8.882812 -1.570312 9.65625 -2.0625 Z M 9.65625 -5.796875 "/></g></g></g><g fill="#b47832" fill-opacity="1"><g transform="translate(104.384384, 231.523946)"><g><path d="M 11.5625 -11.453125 L 11.5625 0 L 10.21875 0 L 3.359375 -8.546875 L 3.359375 0 L 1.71875 0 L 1.71875 -11.453125 L 3.0625 -11.453125 L 9.9375 -2.90625 L 9.9375 -11.453125 Z M 11.5625 -11.453125 "/></g></g></g><g fill="#b47832" fill-opacity="1"><g transform="translate(124.019812, 231.523946)"><g><path d="M 10.03125 -1.421875 L 10.03125 0 L 1.71875 0 L 1.71875 -11.453125 L 9.796875 -11.453125 L 9.796875 -10.03125 L 3.359375 -10.03125 L 3.359375 -6.515625 L 9.09375 -6.515625 L 9.09375 -5.125 L 3.359375 -5.125 L 3.359375 -1.421875 Z M 10.03125 -1.421875 "/></g></g></g><g fill="#b47832" fill-opacity="1"><g transform="translate(141.332216, 231.523946)"><g><path d="M 9.375 0 L 6.90625 -3.515625 C 6.601562 -3.492188 6.363281 -3.484375 6.1875 -3.484375 L 3.359375 -3.484375 L 3.359375 0 L 1.71875 0 L 1.71875 -11.453125 L 6.1875 -11.453125 C 7.664062 -11.453125 8.828125 -11.097656 9.671875 -10.390625 C 10.523438 -9.679688 10.953125 -8.703125 10.953125 -7.453125 C 10.953125 -6.578125 10.734375 -5.828125 10.296875 -5.203125 C 9.867188 -4.578125 9.25 -4.125 8.4375 -3.84375 L 11.15625 0 Z M 6.140625 -4.875 C 7.171875 -4.875 7.957031 -5.097656 8.5 -5.546875 C 9.050781 -5.992188 9.328125 -6.628906 9.328125 -7.453125 C 9.328125 -8.285156 9.050781 -8.921875 8.5 -9.359375 C 7.957031 -9.804688 7.171875 -10.03125 6.140625 -10.03125 L 3.359375 -10.03125 L 3.359375 -4.875 Z M 6.140625 -4.875 "/></g></g></g><g fill="#b47832" fill-opacity="1"><g transform="translate(159.577107, 231.523946)"><g/></g></g><g fill="#b47832" fill-opacity="1"><g transform="translate(170.329425, 231.523946)"><g><path d="M 10.09375 0.1875 L 8.578125 -1.34375 C 7.554688 -0.363281 6.28125 0.125 4.75 0.125 C 3.976562 0.125 3.285156 0 2.671875 -0.25 C 2.066406 -0.5 1.59375 -0.847656 1.25 -1.296875 C 0.90625 -1.753906 0.734375 -2.269531 0.734375 -2.84375 C 0.734375 -3.539062 0.945312 -4.160156 1.375 -4.703125 C 1.8125 -5.242188 2.523438 -5.796875 3.515625 -6.359375 C 3.015625 -6.859375 2.660156 -7.3125 2.453125 -7.71875 C 2.242188 -8.125 2.140625 -8.546875 2.140625 -8.984375 C 2.140625 -9.753906 2.421875 -10.375 2.984375 -10.84375 C 3.546875 -11.3125 4.296875 -11.546875 5.234375 -11.546875 C 6.109375 -11.546875 6.800781 -11.332031 7.3125 -10.90625 C 7.820312 -10.488281 8.078125 -9.90625 8.078125 -9.15625 C 8.078125 -8.582031 7.890625 -8.066406 7.515625 -7.609375 C 7.140625 -7.148438 6.515625 -6.671875 5.640625 -6.171875 L 8.46875 -3.359375 C 8.800781 -3.972656 9.035156 -4.664062 9.171875 -5.4375 L 10.4375 -5.015625 C 10.238281 -4.015625 9.90625 -3.144531 9.4375 -2.40625 L 10.984375 -0.859375 Z M 5.234375 -10.40625 C 4.722656 -10.40625 4.320312 -10.273438 4.03125 -10.015625 C 3.738281 -9.765625 3.59375 -9.429688 3.59375 -9.015625 C 3.59375 -8.722656 3.671875 -8.4375 3.828125 -8.15625 C 3.992188 -7.882812 4.304688 -7.515625 4.765625 -7.046875 C 5.515625 -7.472656 6.03125 -7.835938 6.3125 -8.140625 C 6.601562 -8.453125 6.75 -8.785156 6.75 -9.140625 C 6.75 -9.523438 6.613281 -9.832031 6.34375 -10.0625 C 6.082031 -10.289062 5.710938 -10.40625 5.234375 -10.40625 Z M 4.84375 -1.171875 C 5.976562 -1.171875 6.910156 -1.53125 7.640625 -2.25 L 4.390625 -5.5 C 3.597656 -5.0625 3.046875 -4.65625 2.734375 -4.28125 C 2.429688 -3.90625 2.28125 -3.484375 2.28125 -3.015625 C 2.28125 -2.460938 2.515625 -2.015625 2.984375 -1.671875 C 3.460938 -1.335938 4.082031 -1.171875 4.84375 -1.171875 Z M 4.84375 -1.171875 "/></g></g></g><g fill="#b47832" fill-opacity="1"><g transform="translate(187.903578, 231.523946)"><g/></g></g><g fill="#b47832" fill-opacity="1"><g transform="translate(198.655897, 231.523946)"><g><path d="M 1.71875 -11.453125 L 6.546875 -11.453125 C 7.753906 -11.453125 8.828125 -11.210938 9.765625 -10.734375 C 10.703125 -10.253906 11.429688 -9.578125 11.953125 -8.703125 C 12.472656 -7.835938 12.734375 -6.84375 12.734375 -5.71875 C 12.734375 -4.601562 12.472656 -3.609375 11.953125 -2.734375 C 11.429688 -1.867188 10.703125 -1.195312 9.765625 -0.71875 C 8.828125 -0.238281 7.753906 0 6.546875 0 L 1.71875 0 Z M 6.453125 -1.421875 C 7.378906 -1.421875 8.191406 -1.597656 8.890625 -1.953125 C 9.597656 -2.316406 10.140625 -2.820312 10.515625 -3.46875 C 10.898438 -4.125 11.09375 -4.875 11.09375 -5.71875 C 11.09375 -6.570312 10.898438 -7.320312 10.515625 -7.96875 C 10.140625 -8.625 9.597656 -9.128906 8.890625 -9.484375 C 8.191406 -9.847656 7.378906 -10.03125 6.453125 -10.03125 L 3.359375 -10.03125 L 3.359375 -1.421875 Z M 6.453125 -1.421875 "/></g></g></g><g fill="#b47832" fill-opacity="1"><g transform="translate(218.520356, 231.523946)"><g><path d="M 10.03125 -1.421875 L 10.03125 0 L 1.71875 0 L 1.71875 -11.453125 L 9.796875 -11.453125 L 9.796875 -10.03125 L 3.359375 -10.03125 L 3.359375 -6.515625 L 9.09375 -6.515625 L 9.09375 -5.125 L 3.359375 -5.125 L 3.359375 -1.421875 Z M 10.03125 -1.421875 "/></g></g></g><g fill="#b47832" fill-opacity="1"><g transform="translate(235.83277, 231.523946)"><g><path d="M 11.671875 -11.453125 L 6.640625 0 L 5.015625 0 L -0.015625 -11.453125 L 1.75 -11.453125 L 5.875 -2.046875 L 10.03125 -11.453125 Z M 11.671875 -11.453125 "/></g></g></g><g fill="#b47832" fill-opacity="1"><g transform="translate(253.832266, 231.523946)"><g><path d="M 10.03125 -1.421875 L 10.03125 0 L 1.71875 0 L 1.71875 -11.453125 L 9.796875 -11.453125 L 9.796875 -10.03125 L 3.359375 -10.03125 L 3.359375 -6.515625 L 9.09375 -6.515625 L 9.09375 -5.125 L 3.359375 -5.125 L 3.359375 -1.421875 Z M 10.03125 -1.421875 "/></g></g></g><g fill="#b47832" fill-opacity="1"><g transform="translate(271.14468, 231.523946)"><g><path d="M 1.71875 -11.453125 L 3.359375 -11.453125 L 3.359375 -1.421875 L 9.546875 -1.421875 L 9.546875 0 L 1.71875 0 Z M 1.71875 -11.453125 "/></g></g></g><g fill="#b47832" fill-opacity="1"><g transform="translate(287.213786, 231.523946)"><g><path d="M 6.890625 0.125 C 5.734375 0.125 4.691406 -0.125 3.765625 -0.625 C 2.835938 -1.132812 2.109375 -1.835938 1.578125 -2.734375 C 1.046875 -3.628906 0.78125 -4.625 0.78125 -5.71875 C 0.78125 -6.820312 1.046875 -7.820312 1.578125 -8.71875 C 2.109375 -9.613281 2.835938 -10.3125 3.765625 -10.8125 C 4.691406 -11.320312 5.734375 -11.578125 6.890625 -11.578125 C 8.035156 -11.578125 9.070312 -11.320312 10 -10.8125 C 10.925781 -10.3125 11.648438 -9.613281 12.171875 -8.71875 C 12.691406 -7.832031 12.953125 -6.832031 12.953125 -5.71875 C 12.953125 -4.613281 12.691406 -3.613281 12.171875 -2.71875 C 11.648438 -1.832031 10.925781 -1.132812 10 -0.625 C 9.070312 -0.125 8.035156 0.125 6.890625 0.125 Z M 6.890625 -1.328125 C 7.722656 -1.328125 8.472656 -1.515625 9.140625 -1.890625 C 9.816406 -2.273438 10.347656 -2.800781 10.734375 -3.46875 C 11.128906 -4.144531 11.328125 -4.894531 11.328125 -5.71875 C 11.328125 -6.550781 11.128906 -7.300781 10.734375 -7.96875 C 10.347656 -8.644531 9.816406 -9.171875 9.140625 -9.546875 C 8.472656 -9.929688 7.722656 -10.125 6.890625 -10.125 C 6.046875 -10.125 5.28125 -9.929688 4.59375 -9.546875 C 3.914062 -9.171875 3.382812 -8.644531 3 -7.96875 C 2.613281 -7.300781 2.421875 -6.550781 2.421875 -5.71875 C 2.421875 -4.894531 2.613281 -4.144531 3 -3.46875 C 3.382812 -2.800781 3.914062 -2.273438 4.59375 -1.890625 C 5.28125 -1.515625 6.046875 -1.328125 6.890625 -1.328125 Z M 6.890625 -1.328125 "/></g></g></g><g fill="#b47832" fill-opacity="1"><g transform="translate(307.307276, 231.523946)"><g><path d="M 6.1875 -11.453125 C 7.664062 -11.453125 8.828125 -11.097656 9.671875 -10.390625 C 10.523438 -9.679688 10.953125 -8.703125 10.953125 -7.453125 C 10.953125 -6.210938 10.523438 -5.238281 9.671875 -4.53125 C 8.828125 -3.820312 7.664062 -3.46875 6.1875 -3.46875 L 3.359375 -3.46875 L 3.359375 0 L 1.71875 0 L 1.71875 -11.453125 Z M 6.140625 -4.890625 C 7.171875 -4.890625 7.957031 -5.109375 8.5 -5.546875 C 9.050781 -5.992188 9.328125 -6.628906 9.328125 -7.453125 C 9.328125 -8.285156 9.050781 -8.921875 8.5 -9.359375 C 7.957031 -9.804688 7.171875 -10.03125 6.140625 -10.03125 L 3.359375 -10.03125 L 3.359375 -4.890625 Z M 6.140625 -4.890625 "/></g></g></g><g fill="#b47832" fill-opacity="1"><g transform="translate(325.470376, 231.523946)"><g><path d="M 10.03125 -1.421875 L 10.03125 0 L 1.71875 0 L 1.71875 -11.453125 L 9.796875 -11.453125 L 9.796875 -10.03125 L 3.359375 -10.03125 L 3.359375 -6.515625 L 9.09375 -6.515625 L 9.09375 -5.125 L 3.359375 -5.125 L 3.359375 -1.421875 Z M 10.03125 -1.421875 "/></g></g></g><g fill="#b47832" fill-opacity="1"><g transform="translate(342.78279, 231.523946)"><g><path d="M 9.375 0 L 6.90625 -3.515625 C 6.601562 -3.492188 6.363281 -3.484375 6.1875 -3.484375 L 3.359375 -3.484375 L 3.359375 0 L 1.71875 0 L 1.71875 -11.453125 L 6.1875 -11.453125 C 7.664062 -11.453125 8.828125 -11.097656 9.671875 -10.390625 C 10.523438 -9.679688 10.953125 -8.703125 10.953125 -7.453125 C 10.953125 -6.578125 10.734375 -5.828125 10.296875 -5.203125 C 9.867188 -4.578125 9.25 -4.125 8.4375 -3.84375 L 11.15625 0 Z M 6.140625 -4.875 C 7.171875 -4.875 7.957031 -5.097656 8.5 -5.546875 C 9.050781 -5.992188 9.328125 -6.628906 9.328125 -7.453125 C 9.328125 -8.285156 9.050781 -8.921875 8.5 -9.359375 C 7.957031 -9.804688 7.171875 -10.03125 6.140625 -10.03125 L 3.359375 -10.03125 L 3.359375 -4.875 Z M 6.140625 -4.875 "/></g></g></g></svg>