<svg xmlns="http://www.w3.org/2000/svg" xmlns:xlink="http://www.w3.org/1999/xlink" width="500" zoomAndPan="magnify" viewBox="0 0 375 374.999991" height="500" preserveAspectRatio="xMidYMid meet" version="1.0"><defs><clipPath id="3efee87b23"><path d="M 83 164 L 246 164 L 246 337 L 83 337 Z M 83 164 " clip-rule="nonzero"/></clipPath><clipPath id="d8d9707f98"><path d="M -3.734375 141.511719 L 213.238281 -7.5625 L 378.878906 233.515625 L 161.90625 382.59375 Z M -3.734375 141.511719 " clip-rule="nonzero"/></clipPath><clipPath id="5f9e4a4b30"><path d="M -3.734375 141.511719 L 213.238281 -7.5625 L 378.878906 233.515625 L 161.90625 382.59375 Z M -3.734375 141.511719 " clip-rule="nonzero"/></clipPath><clipPath id="eaf2b0c85d"><path d="M 79 157 L 251 157 L 251 342 L 79 342 Z M 79 157 " clip-rule="nonzero"/></clipPath><clipPath id="773388854b"><path d="M -3.734375 141.511719 L 213.238281 -7.5625 L 378.878906 233.515625 L 161.90625 382.59375 Z M -3.734375 141.511719 " clip-rule="nonzero"/></clipPath><clipPath id="f9102dd7bc"><path d="M -3.734375 141.511719 L 213.238281 -7.5625 L 378.878906 233.515625 L 161.90625 382.59375 Z M -3.734375 141.511719 " clip-rule="nonzero"/></clipPath><clipPath id="3febf9fd90"><path d="M 136 60 L 267 60 L 267 187 L 136 187 Z M 136 60 " clip-rule="nonzero"/></clipPath><clipPath id="40838c4a4c"><path d="M -3.734375 141.511719 L 213.238281 -7.5625 L 378.878906 233.515625 L 161.90625 382.59375 Z M -3.734375 141.511719 " clip-rule="nonzero"/></clipPath><clipPath id="d53704893f"><path d="M -3.734375 141.511719 L 213.238281 -7.5625 L 378.878906 233.515625 L 161.90625 382.59375 Z M -3.734375 141.511719 " clip-rule="nonzero"/></clipPath><clipPath id="8ca11dec5f"><path d="M 131 54 L 274 54 L 274 194 L 131 194 Z M 131 54 " clip-rule="nonzero"/></clipPath><clipPath id="6518338473"><path d="M -3.734375 141.511719 L 213.238281 -7.5625 L 378.878906 233.515625 L 161.90625 382.59375 Z M -3.734375 141.511719 " clip-rule="nonzero"/></clipPath><clipPath id="ef2890fc78"><path d="M -3.734375 141.511719 L 213.238281 -7.5625 L 378.878906 233.515625 L 161.90625 382.59375 Z M -3.734375 141.511719 " clip-rule="nonzero"/></clipPath><clipPath id="7cd2a846ac"><path d="M 86 221 L 87 221 L 87 223 L 86 223 Z M 86 221 " clip-rule="nonzero"/></clipPath><clipPath id="460ad2347a"><path d="M -3.734375 141.511719 L 213.238281 -7.5625 L 378.878906 233.515625 L 161.90625 382.59375 Z M -3.734375 141.511719 " clip-rule="nonzero"/></clipPath><clipPath id="88f98a9183"><path d="M -3.734375 141.511719 L 213.238281 -7.5625 L 378.878906 233.515625 L 161.90625 382.59375 Z M -3.734375 141.511719 " clip-rule="nonzero"/></clipPath><clipPath id="b2d01881ed"><path d="M 160 124 L 234 124 L 234 330 L 160 330 Z M 160 124 " clip-rule="nonzero"/></clipPath><clipPath id="e79582fa79"><path d="M -3.734375 141.511719 L 213.238281 -7.5625 L 378.878906 233.515625 L 161.90625 382.59375 Z M -3.734375 141.511719 " clip-rule="nonzero"/></clipPath><clipPath id="302bc7b18c"><path d="M -3.734375 141.511719 L 213.238281 -7.5625 L 378.878906 233.515625 L 161.90625 382.59375 Z M -3.734375 141.511719 " clip-rule="nonzero"/></clipPath><clipPath id="915ab9b204"><path d="M 104 67 L 174 67 L 174 143 L 104 143 Z M 104 67 " clip-rule="nonzero"/></clipPath><clipPath id="15313b5fd7"><path d="M -3.734375 141.511719 L 213.238281 -7.5625 L 378.878906 233.515625 L 161.90625 382.59375 Z M -3.734375 141.511719 " clip-rule="nonzero"/></clipPath><clipPath id="820dfae88b"><path d="M -3.734375 141.511719 L 213.238281 -7.5625 L 378.878906 233.515625 L 161.90625 382.59375 Z M -3.734375 141.511719 " clip-rule="nonzero"/></clipPath><clipPath id="d5ea1b41c9"><path d="M 182 98 L 225 98 L 225 177 L 182 177 Z M 182 98 " clip-rule="nonzero"/></clipPath><clipPath id="a0a39d113d"><path d="M -3.734375 141.511719 L 213.238281 -7.5625 L 378.878906 233.515625 L 161.90625 382.59375 Z M -3.734375 141.511719 " clip-rule="nonzero"/></clipPath><clipPath id="77cf2c3202"><path d="M -3.734375 141.511719 L 213.238281 -7.5625 L 378.878906 233.515625 L 161.90625 382.59375 Z M -3.734375 141.511719 " clip-rule="nonzero"/></clipPath><clipPath id="886d4b9db0"><path d="M 109 136 L 185 136 L 185 178 L 109 178 Z M 109 136 " clip-rule="nonzero"/></clipPath><clipPath id="50782d1e05"><path d="M -3.734375 141.511719 L 213.238281 -7.5625 L 378.878906 233.515625 L 161.90625 382.59375 Z M -3.734375 141.511719 " clip-rule="nonzero"/></clipPath><clipPath id="7b72388691"><path d="M -3.734375 141.511719 L 213.238281 -7.5625 L 378.878906 233.515625 L 161.90625 382.59375 Z M -3.734375 141.511719 " clip-rule="nonzero"/></clipPath><clipPath id="f15d762631"><path d="M 191 133 L 269 133 L 269 206 L 191 206 Z M 191 133 " clip-rule="nonzero"/></clipPath><clipPath id="8b3247b543"><path d="M -3.734375 141.511719 L 213.238281 -7.5625 L 378.878906 233.515625 L 161.90625 382.59375 Z M -3.734375 141.511719 " clip-rule="nonzero"/></clipPath><clipPath id="1f9ab8ff5a"><path d="M -3.734375 141.511719 L 213.238281 -7.5625 L 378.878906 233.515625 L 161.90625 382.59375 Z M -3.734375 141.511719 " clip-rule="nonzero"/></clipPath><clipPath id="4965e838a0"><path d="M 105 179 L 191 179 L 191 221 L 105 221 Z M 105 179 " clip-rule="nonzero"/></clipPath><clipPath id="abdf15a42e"><path d="M -3.734375 141.511719 L 213.238281 -7.5625 L 378.878906 233.515625 L 161.90625 382.59375 Z M -3.734375 141.511719 " clip-rule="nonzero"/></clipPath><clipPath id="1f6d5941b5"><path d="M -3.734375 141.511719 L 213.238281 -7.5625 L 378.878906 233.515625 L 161.90625 382.59375 Z M -3.734375 141.511719 " clip-rule="nonzero"/></clipPath><clipPath id="d970d78749"><path d="M 194 187 L 290 187 L 290 233 L 194 233 Z M 194 187 " clip-rule="nonzero"/></clipPath><clipPath id="9403a989b7"><path d="M -3.734375 141.511719 L 213.238281 -7.5625 L 378.878906 233.515625 L 161.90625 382.59375 Z M -3.734375 141.511719 " clip-rule="nonzero"/></clipPath><clipPath id="bd6fa8e8fe"><path d="M -3.734375 141.511719 L 213.238281 -7.5625 L 378.878906 233.515625 L 161.90625 382.59375 Z M -3.734375 141.511719 " clip-rule="nonzero"/></clipPath><clipPath id="6fc1318f3e"><path d="M 125 224 L 195 224 L 195 286 L 125 286 Z M 125 224 " clip-rule="nonzero"/></clipPath><clipPath id="5581a3f902"><path d="M -3.734375 141.511719 L 213.238281 -7.5625 L 378.878906 233.515625 L 161.90625 382.59375 Z M -3.734375 141.511719 " clip-rule="nonzero"/></clipPath><clipPath id="5fe408ae94"><path d="M -3.734375 141.511719 L 213.238281 -7.5625 L 378.878906 233.515625 L 161.90625 382.59375 Z M -3.734375 141.511719 " clip-rule="nonzero"/></clipPath><clipPath id="9ec148ea9d"><path d="M 204 251 L 309 251 L 309 280 L 204 280 Z M 204 251 " clip-rule="nonzero"/></clipPath><clipPath id="e7558e4164"><path d="M -3.734375 141.511719 L 213.238281 -7.5625 L 378.878906 233.515625 L 161.90625 382.59375 Z M -3.734375 141.511719 " clip-rule="nonzero"/></clipPath><clipPath id="54971e11b3"><path d="M -3.734375 141.511719 L 213.238281 -7.5625 L 378.878906 233.515625 L 161.90625 382.59375 Z M -3.734375 141.511719 " clip-rule="nonzero"/></clipPath><clipPath id="fc6e827add"><path d="M 134 275 L 206 275 L 206 343 L 134 343 Z M 134 275 " clip-rule="nonzero"/></clipPath><clipPath id="5e05f29f39"><path d="M -3.734375 141.511719 L 213.238281 -7.5625 L 378.878906 233.515625 L 161.90625 382.59375 Z M -3.734375 141.511719 " clip-rule="nonzero"/></clipPath><clipPath id="ec638fd6d3"><path d="M -3.734375 141.511719 L 213.238281 -7.5625 L 378.878906 233.515625 L 161.90625 382.59375 Z M -3.734375 141.511719 " clip-rule="nonzero"/></clipPath><clipPath id="42dd31de6f"><path d="M 197 205 L 286 205 L 286 237 L 197 237 Z M 197 205 " clip-rule="nonzero"/></clipPath><clipPath id="2c8aeb596f"><path d="M -3.734375 141.511719 L 213.238281 -7.5625 L 378.878906 233.515625 L 161.90625 382.59375 Z M -3.734375 141.511719 " clip-rule="nonzero"/></clipPath><clipPath id="ace59f202e"><path d="M -3.734375 141.511719 L 213.238281 -7.5625 L 378.878906 233.515625 L 161.90625 382.59375 Z M -3.734375 141.511719 " clip-rule="nonzero"/></clipPath></defs><g clip-path="url(#3efee87b23)"><g clip-path="url(#d8d9707f98)"><g clip-path="url(#5f9e4a4b30)"><path fill="#da6c38" d="M 94.847656 191.671875 C 87.046875 197.730469 84.617188 207.042969 84.148438 214.484375 C 83.324219 227.609375 85.164062 237.65625 89.355469 249.0625 C 92.644531 258.015625 98.625 267.15625 104.03125 274.820312 C 108.007812 280.460938 112.0625 286.050781 116.371094 291.457031 C 122.34375 298.945312 128.277344 306.480469 134.875 313.484375 C 149.515625 329.023438 174.910156 345.277344 204.203125 331.15625 C 208.402344 329.128906 212.46875 326.691406 216.339844 324.035156 C 219.367188 321.953125 222.410156 319.710938 224.769531 317.023438 C 228.933594 312.289062 232.546875 307.203125 235.679688 302.03125 C 258.21875 264.8125 238.210938 230.292969 217.851562 206.695312 C 212.453125 200.4375 206.289062 194.789062 200.25 189.058594 C 191.699219 180.949219 182.820312 172.359375 170.210938 168.605469 C 152.5 163.335938 127.804688 160.335938 108.210938 175.753906 C 100.699219 181.664062 94.445312 187.382812 90.355469 195.429688 C 89.214844 197.675781 89.710938 199.972656 89.121094 202.261719 C 88.886719 203.171875 88.347656 205.648438 87.898438 204.964844 Z M 94.847656 191.671875 " fill-opacity="1" fill-rule="evenodd"/></g></g></g><g clip-path="url(#eaf2b0c85d)"><g clip-path="url(#773388854b)"><g clip-path="url(#f9102dd7bc)"><path fill="#da6c38" d="M 86.359375 193.605469 C 84.847656 195.625 83.636719 197.773438 82.675781 199.976562 C 80.59375 204.738281 79.675781 209.753906 79.398438 214.1875 C 78.96875 220.980469 79.21875 226.996094 80.101562 232.785156 C 81.019531 238.800781 82.621094 244.570312 84.875 250.710938 C 86.277344 254.527344 88.132812 258.375 90.226562 262.140625 C 93.257812 267.585938 96.792969 272.855469 100.121094 277.578125 L 112.628906 294.441406 L 131.382812 316.773438 C 139.761719 325.679688 151.484375 334.746094 165.351562 338.957031 C 177.597656 342.675781 191.5 342.683594 206.332031 335.566406 L 219.128906 328.089844 L 228.484375 320.285156 L 239.9375 304.609375 C 251.480469 285.625 252.605469 267.285156 248.449219 250.507812 C 243.96875 232.433594 233.160156 216.132812 222.089844 203.039062 L 204.382812 184.699219 C 198.976562 179.414062 193.414062 173.96875 186.914062 169.570312 C 182.46875 166.5625 177.585938 164.070312 172.070312 162.351562 C 162.054688 159.414062 149.945312 157.035156 137.695312 158.148438 C 126.324219 159.179688 114.882812 163.09375 104.851562 171.484375 C 100.257812 175.367188 96.117188 179.132812 92.6875 183.398438 C 90.230469 186.453125 88.09375 189.714844 86.390625 193.417969 Z M 89.761719 208.800781 C 89.277344 210.859375 89.019531 212.890625 88.902344 214.785156 C 88.523438 220.835938 88.738281 226.191406 89.527344 231.34375 C 90.355469 236.738281 91.808594 241.910156 93.835938 247.414062 C 95.074219 250.78125 96.722656 254.171875 98.574219 257.492188 C 101.441406 262.632812 104.792969 267.605469 107.9375 272.066406 L 120.117188 288.46875 L 138.371094 310.195312 C 145.734375 317.996094 155.96875 326.046875 168.144531 329.710938 C 178.296875 332.765625 189.8125 332.679688 202.078125 326.742188 L 213.550781 319.976562 L 221.058594 313.761719 L 231.425781 299.453125 C 241.273438 283.125 242.359375 267.363281 238.621094 253.007812 C 234.347656 236.59375 223.933594 222.070312 213.613281 210.351562 L 196.117188 193.414062 C 191.085938 188.785156 185.941406 183.980469 179.957031 180.171875 C 176.453125 177.941406 172.644531 176.082031 168.347656 174.863281 C 159.699219 172.25 149.265625 170.300781 138.636719 170.90625 C 129.453125 171.429688 120.042969 173.753906 111.574219 180.023438 C 107.265625 183.175781 103.363281 186.238281 100.046875 189.78125 L 98.605469 191.390625 C 98.894531 192.359375 98.90625 193.347656 98.597656 194.191406 L 97.996094 193.320312 L 97.214844 194.941406 L 97.761719 195.425781 C 97.289062 195.792969 96.84375 196.175781 96.425781 196.574219 L 93.097656 203.476562 C 92.644531 204.90625 91.382812 207.707031 90.679688 208.21875 C 90.378906 208.4375 90.074219 208.636719 89.761719 208.800781 Z M 89.761719 208.800781 " fill-opacity="1" fill-rule="evenodd"/></g></g></g><g clip-path="url(#3febf9fd90)"><g clip-path="url(#40838c4a4c)"><g clip-path="url(#d53704893f)"><path fill="#f09e41" d="M 146.429688 84.703125 C 142.136719 84.324219 141.636719 90.265625 141.128906 92.796875 C 138.664062 105.074219 134.648438 118.859375 138.570312 131.359375 C 149.828125 167.21875 195.46875 201.964844 233.746094 180.1875 C 239.867188 176.703125 244.921875 172.609375 249.742188 167.519531 C 255.226562 161.738281 262.136719 154.144531 264.324219 146.085938 C 272.953125 114.3125 254.285156 83.226562 225.875 68.773438 C 220.285156 65.933594 209.207031 61.613281 202.832031 60.941406 C 185.679688 59.136719 169.765625 68.566406 154.652344 74.824219 Z M 146.429688 84.703125 " fill-opacity="1" fill-rule="evenodd"/></g></g></g><g clip-path="url(#8ca11dec5f)"><g clip-path="url(#6518338473)"><g clip-path="url(#ef2890fc78)"><path fill="#f09e41" d="M 142.484375 80.671875 C 141.558594 81.117188 140.75 81.738281 140.03125 82.472656 C 137.722656 84.835938 136.835938 89.417969 136.316406 91.832031 C 134.6875 99.371094 132.511719 107.464844 131.832031 115.515625 C 131.328125 121.429688 131.648438 127.316406 133.34375 133 C 139.097656 152.308594 154.09375 171.449219 172.828125 182.875 C 192.324219 194.769531 215.730469 198.207031 237.222656 186.296875 C 240.617188 184.390625 243.71875 182.308594 246.640625 180.011719 C 249.546875 177.730469 252.273438 175.226562 254.941406 172.445312 C 258.5 168.738281 262.589844 164.3125 265.839844 159.515625 C 268.316406 155.855469 270.292969 151.964844 271.394531 148.007812 C 276.183594 130.183594 273.410156 112.546875 265.285156 97.421875 C 257.398438 82.738281 244.480469 70.449219 228.949219 62.722656 C 225.398438 60.964844 219.789062 58.65625 214.378906 56.945312 C 210.386719 55.683594 206.496094 54.738281 203.511719 54.460938 C 195.777344 53.761719 188.285156 54.988281 181.007812 57.296875 C 171.117188 60.429688 161.636719 65.53125 152.445312 69.496094 C 151.582031 69.851562 150.816406 70.417969 150.21875 71.136719 Z M 146.222656 89.746094 L 146.386719 89.980469 C 148.039062 90.265625 149.597656 89.683594 150.550781 88.421875 C 150.742188 88.292969 158.121094 79.648438 158.121094 79.648438 C 166.65625 76.175781 175.460938 71.808594 184.589844 69.207031 C 190.300781 67.582031 196.148438 66.707031 202.148438 67.425781 C 204.921875 67.75 208.691406 68.945312 212.390625 70.304688 C 216.347656 71.761719 220.210938 73.472656 222.796875 74.824219 C 235.597656 81.480469 246.128906 91.878906 252.546875 104.167969 C 258.832031 116.195312 261.113281 130.101562 257.253906 144.167969 C 256.589844 146.675781 255.304688 149.117188 253.765625 151.449219 C 251.039062 155.585938 247.550781 159.386719 244.546875 162.597656 C 242.382812 164.910156 240.171875 167.003906 237.804688 168.910156 C 235.46875 170.792969 232.988281 172.503906 230.269531 174.074219 C 213.484375 183.875 194.964844 180.957031 179.304688 171.949219 C 162.808594 162.453125 149.273438 146.3125 143.800781 129.71875 C 142.367188 125.371094 142.054688 120.828125 142.308594 116.25 C 142.734375 108.628906 144.617188 100.933594 145.945312 93.765625 C 146.082031 93.03125 146.003906 90.925781 146.222656 89.746094 Z M 146.296875 89.433594 C 146.429688 88.957031 146.644531 88.753906 147 89.082031 C 147.207031 89.269531 146.71875 89.40625 146.296875 89.433594 Z M 146.296875 89.433594 " fill-opacity="1" fill-rule="evenodd"/></g></g></g><g clip-path="url(#7cd2a846ac)"><g clip-path="url(#460ad2347a)"><g clip-path="url(#88f98a9183)"><path fill="#026e00" d="M 86.320312 221.398438 C 86.457031 221.804688 86.433594 221.703125 86.636719 222.03125 " fill-opacity="1" fill-rule="evenodd"/></g></g></g><g clip-path="url(#b2d01881ed)"><g clip-path="url(#e79582fa79)"><g clip-path="url(#302bc7b18c)"><path fill="#026e00" d="M 231.363281 328.648438 C 232.214844 330.105469 229.265625 325.671875 228.875 325.1875 C 226.390625 322.09375 223.914062 318.847656 221.875 315.441406 C 216.398438 306.292969 211.609375 297.335938 206.917969 287.777344 C 198.96875 271.570312 197.007812 252.402344 194.722656 234.777344 C 193.84375 227.96875 191.902344 221.289062 191.019531 214.472656 C 189.53125 202.972656 187.382812 190.855469 183.480469 179.90625 C 179.179688 167.84375 176.222656 155.328125 170.769531 143.675781 C 168.90625 139.6875 166.789062 135.722656 164.699219 131.839844 C 163.917969 130.390625 162.796875 129.078125 162.089844 127.609375 C 161.695312 126.785156 160.339844 124.679688 161.191406 125.015625 C 163.925781 126.089844 166.335938 130.375 167.894531 132.671875 C 173.144531 140.410156 175.316406 148.3125 178.753906 156.90625 C 191.066406 187.703125 194.90625 221.332031 199.980469 253.710938 C 202.875 272.191406 210.449219 289.691406 218.511719 306.484375 C 221.53125 312.777344 226.757812 317.496094 230.386719 323.378906 C 230.984375 324.34375 233.835938 328.316406 233.132812 329.15625 " fill-opacity="1" fill-rule="evenodd"/></g></g></g><g clip-path="url(#915ab9b204)"><g clip-path="url(#15313b5fd7)"><g clip-path="url(#820dfae88b)"><path fill="#026e00" d="M 170.851562 142.875 C 161.21875 133.839844 148.171875 129.632812 136.8125 123.191406 C 124.933594 116.449219 115.515625 106.050781 110.714844 93.347656 C 108.457031 87.371094 105.949219 81.050781 105.113281 74.703125 C 104.890625 73.019531 104.492188 68.457031 106.132812 67.207031 C 106.511719 66.917969 107.132812 68.125 107.257812 68.3125 C 108.316406 69.953125 109.523438 71.472656 110.898438 72.882812 C 113.613281 75.667969 117.320312 78.148438 120.753906 79.953125 C 125.382812 82.386719 130.519531 83.527344 135.324219 85.566406 C 148.972656 91.367188 161.09375 100.652344 168.410156 113.625 C 171.679688 119.421875 173.527344 125.933594 173.390625 132.628906 C 173.347656 134.71875 173.097656 136.695312 172.625 138.699219 C 172.46875 139.375 171.738281 141.773438 171.664062 141.558594 " fill-opacity="1" fill-rule="evenodd"/></g></g></g><g clip-path="url(#d5ea1b41c9)"><g clip-path="url(#a0a39d113d)"><g clip-path="url(#77cf2c3202)"><path fill="#026e00" d="M 182.28125 175.070312 C 182.851562 176.636719 186.359375 171.160156 186.726562 170.496094 C 189.445312 165.523438 189.796875 158.464844 190.238281 152.945312 C 191.574219 136.28125 195.144531 115.410156 210.089844 105.378906 C 213.441406 103.125 216.691406 101.34375 220.351562 99.648438 C 221.191406 99.261719 223.476562 97.597656 224.445312 98.554688 C 224.867188 98.96875 223.269531 101.574219 223.085938 101.996094 C 221.371094 105.949219 220.8125 110.710938 220.046875 114.945312 C 218.652344 122.65625 218.519531 130.546875 216.941406 138.195312 C 214.8125 148.519531 210.019531 157.8125 203.65625 166.105469 C 200.265625 170.519531 195.671875 174.046875 190.613281 176.351562 C 188.535156 177.300781 185.246094 177.210938 184.449219 174.875 " fill-opacity="1" fill-rule="evenodd"/></g></g></g><g clip-path="url(#886d4b9db0)"><g clip-path="url(#50782d1e05)"><g clip-path="url(#7b72388691)"><path fill="#026e00" d="M 184.042969 177.871094 C 184.742188 177.355469 179.125 172.910156 178.191406 172.242188 C 172.566406 168.207031 165.523438 166.851562 158.761719 167.238281 C 153.703125 167.527344 148.6875 166.945312 143.6875 166.265625 C 139.90625 165.75 136.074219 165.855469 132.351562 164.910156 C 122.34375 162.375 113.625 155.011719 111.175781 144.714844 C 110.589844 142.238281 109.300781 139.324219 109.652344 136.742188 C 109.902344 134.9375 114.101562 140.703125 114.898438 141.210938 C 118.6875 143.628906 122.949219 143.953125 127.226562 144.609375 C 130.582031 145.125 134.179688 144.386719 137.570312 144.367188 C 143.070312 144.332031 149.023438 144.820312 154.433594 145.773438 C 159.855469 146.730469 165.804688 151.183594 170.097656 154.59375 C 174.410156 158.019531 177.207031 162.273438 179.453125 167.195312 C 180.210938 168.859375 180.980469 170.375 181.578125 172.128906 C 181.777344 172.707031 182.839844 174.96875 182.171875 174.3125 " fill-opacity="1" fill-rule="evenodd"/></g></g></g><g clip-path="url(#f15d762631)"><g clip-path="url(#8b3247b543)"><g clip-path="url(#1f9ab8ff5a)"><path fill="#026e00" d="M 191.234375 204.472656 C 191.277344 204.769531 191.921875 197.898438 192.3125 196.234375 C 193.496094 191.152344 197.03125 185.769531 200.285156 181.769531 C 206.597656 174.003906 216.246094 168.585938 225.214844 164.582031 C 232.160156 161.484375 239.382812 160.28125 245.867188 156.054688 C 251.375 152.464844 255.0625 147.078125 258.9375 141.929688 C 260.566406 139.765625 261.796875 137.789062 263.023438 135.398438 C 263.238281 134.984375 264.078125 133.179688 264.660156 134.058594 C 266.496094 136.835938 266.890625 142.035156 267.269531 145.234375 C 267.628906 148.28125 268.488281 151.578125 268.105469 154.652344 C 266.011719 171.394531 250.917969 185.792969 236.015625 191.910156 C 227.324219 195.480469 217.386719 195.445312 208.332031 197.925781 C 204.109375 199.085938 199.558594 200.570312 195.703125 202.71875 C 194.804688 203.21875 192.765625 205.667969 192.023438 205.703125 " fill-opacity="1" fill-rule="evenodd"/></g></g></g><g clip-path="url(#4965e838a0)"><g clip-path="url(#abdf15a42e)"><g clip-path="url(#1f6d5941b5)"><path fill="#026e00" d="M 189.679688 203.101562 C 191.832031 203.453125 190.023438 201.191406 189.378906 200.171875 C 187.574219 197.3125 185.535156 194.605469 183.105469 192.261719 C 177.304688 186.671875 169.523438 182.117188 161.503906 180.597656 C 151.078125 178.625 137.957031 181.339844 130.175781 188.945312 C 125.554688 193.460938 122.09375 198.960938 118.136719 204.011719 C 115.773438 207.027344 113.234375 209.898438 109.566406 211.304688 C 108.640625 211.65625 107.742188 211.808594 106.765625 211.851562 C 106.199219 211.875 104.652344 211.402344 105.070312 211.785156 C 108.132812 214.589844 110.550781 217.347656 114.5625 218.988281 C 117.078125 220.019531 120.523438 220.277344 123.222656 220.160156 C 129.921875 219.863281 136.101562 218.382812 141.898438 214.820312 C 149.25 210.300781 156.003906 203.894531 163.992188 200.582031 C 170.886719 197.726562 175.910156 197.769531 182.617188 200.46875 C 184.59375 201.265625 186.339844 201.632812 188.089844 202.910156 C 188.921875 203.519531 191.195312 205.621094 190.4375 204.925781 " fill-opacity="1" fill-rule="evenodd"/></g></g></g><g clip-path="url(#d970d78749)"><g clip-path="url(#9403a989b7)"><g clip-path="url(#bd6fa8e8fe)"><path fill="#026e00" d="M 195.789062 230.59375 C 196.054688 227.804688 198.054688 225.230469 199.410156 222.878906 C 208.25 207.53125 226.597656 210.03125 241.523438 208.039062 C 245.898438 207.457031 249.890625 206.277344 254.085938 204.949219 C 261.964844 202.449219 269.515625 199.957031 276.535156 195.492188 C 279.792969 193.421875 282.558594 190.675781 285.980469 188.867188 C 286.386719 188.652344 288.980469 186.96875 289.324219 187.875 C 290.945312 192.109375 289.03125 197.988281 287.832031 202.050781 C 283.472656 216.808594 271.238281 226.34375 256.476562 230.386719 C 248.429688 232.59375 239.269531 232.554688 230.902344 232.921875 C 223.140625 233.265625 215.539062 231.738281 207.847656 231.820312 C 205.117188 231.847656 202.398438 231.921875 199.667969 231.898438 C 198.617188 231.890625 197.613281 231.847656 196.5625 231.894531 C 196.269531 231.90625 194.824219 231.96875 195.011719 231.960938 " fill-opacity="1" fill-rule="evenodd"/></g></g></g><g clip-path="url(#6fc1318f3e)"><g clip-path="url(#5581a3f902)"><g clip-path="url(#5fe408ae94)"><path fill="#026e00" d="M 194.523438 227.765625 C 194.632812 228.257812 190.984375 226.226562 190.230469 225.960938 C 187.601562 225.042969 184.625 224.464844 181.832031 224.355469 C 175.300781 224.097656 168.84375 225.945312 162.648438 227.738281 C 159.433594 228.671875 156.105469 229.175781 153.035156 230.5625 C 143.652344 234.800781 133.480469 242.574219 128.710938 251.953125 C 125.210938 258.835938 125.683594 269.148438 126.269531 276.621094 C 126.457031 279.019531 125.667969 283.28125 126.519531 285.5 C 126.554688 285.589844 131.730469 284.71875 131.847656 284.699219 C 137.414062 283.921875 141.695312 280.886719 145.476562 276.902344 C 153.371094 268.578125 159.382812 259.15625 165.582031 249.484375 C 168.953125 244.222656 172.757812 238.039062 178.042969 234.402344 C 181.5625 231.980469 185.015625 229.21875 189.355469 228.542969 C 191.136719 228.265625 193.046875 227.59375 194.453125 228.882812 " fill-opacity="1" fill-rule="evenodd"/></g></g></g><g clip-path="url(#9ec148ea9d)"><g clip-path="url(#e7558e4164)"><g clip-path="url(#54971e11b3)"><path fill="#026e00" d="M 204.394531 276.046875 C 203.746094 277.566406 205.605469 274.324219 205.769531 274.007812 C 206.824219 271.960938 208.355469 270 210.007812 268.394531 C 215.109375 263.441406 219.757812 259.6875 226.367188 256.699219 C 238.46875 251.230469 254.695312 250.527344 267.523438 253.472656 C 274.65625 255.113281 281.53125 257.390625 288.851562 258.199219 C 292.960938 258.65625 297.390625 258.367188 301.449219 257.527344 C 303.421875 257.121094 305.339844 256.511719 307.28125 255.972656 C 307.742188 255.847656 308.539062 255.574219 308.710938 256.265625 C 309.175781 258.15625 305.636719 261.222656 304.609375 262.34375 C 299.777344 267.621094 293.945312 271.4375 287.308594 274.078125 C 271.136719 280.515625 252.121094 280.019531 235.171875 277.199219 C 227.726562 275.957031 220.429688 275.609375 212.957031 276.40625 C 210.527344 276.664062 207.148438 276.949219 205.394531 278.863281 " fill-opacity="1" fill-rule="evenodd"/></g></g></g><g clip-path="url(#fc6e827add)"><g clip-path="url(#5e05f29f39)"><g clip-path="url(#ec638fd6d3)"><path fill="#026e00" d="M 203.628906 277.472656 C 203.195312 277.824219 201.632812 276.675781 201.28125 276.566406 C 199.5625 276.035156 197.46875 275.648438 195.691406 275.511719 C 190.011719 275.082031 183.597656 274.886719 178.300781 277.222656 C 167.847656 281.824219 158.097656 289.460938 153.226562 300.035156 C 149.3125 308.53125 147.695312 318.195312 144.382812 326.972656 C 142.953125 330.761719 140.953125 334.257812 138.105469 337.164062 C 137.738281 337.535156 134.21875 340.042969 134.234375 340.398438 C 134.238281 340.503906 135.660156 341.265625 135.691406 341.28125 C 137.34375 342.199219 139.175781 342.871094 141.070312 342.929688 C 148.820312 343.183594 154.910156 340.785156 161.828125 337.296875 C 166.542969 334.921875 169.476562 331.257812 173.199219 327.59375 C 182.136719 318.8125 187.492188 307.003906 192.441406 295.597656 C 194.4375 290.996094 196.164062 285.609375 199.625 281.828125 C 200.449219 280.929688 201.445312 279.074219 202.792969 278.742188 C 203.351562 278.601562 206.457031 278.332031 205.742188 278.730469 " fill-opacity="1" fill-rule="evenodd"/></g></g></g><g clip-path="url(#42dd31de6f)"><g clip-path="url(#2c8aeb596f)"><g clip-path="url(#ace59f202e)"><path fill="#026e00" d="M 197.878906 231.347656 C 197.847656 231.335938 198.460938 231.453125 198.515625 231.457031 C 198.957031 231.46875 199.398438 231.417969 199.835938 231.433594 C 201.03125 231.472656 202.210938 231.542969 203.402344 231.648438 C 206.617188 231.925781 210.234375 231.152344 213.335938 232.035156 C 217.109375 233.113281 221.042969 233.207031 224.886719 233.960938 C 231.484375 235.253906 239.148438 236.988281 245.878906 235.675781 C 258.582031 233.199219 271.21875 227.265625 279.414062 216.949219 C 281.410156 214.433594 283.082031 211.617188 284.253906 208.613281 C 284.417969 208.191406 285.316406 206.484375 285.078125 206.03125 C 284.929688 205.746094 284.117188 206.238281 283.941406 206.316406 C 282.710938 206.882812 281.515625 207.46875 280.222656 207.902344 C 274.875 209.695312 269.71875 211.980469 264.300781 213.589844 " fill-opacity="1" fill-rule="evenodd"/></g></g></g></svg>