<svg width="1434" height="754" viewBox="0 0 1434 754" fill="none" xmlns="http://www.w3.org/2000/svg">
<rect width="1434" height="754" fill="white"/>
<rect x="62" y="172" width="303" height="111" fill="#3DC4D6"/>
<ellipse cx="308.387" cy="227.5" rx="39.8684" ry="39.6429" fill="white"/>
<path d="M307.589 210.602C303.323 210.602 299.865 214.041 299.865 218.283C299.865 222.525 303.323 225.964 307.589 225.964C311.856 225.964 315.314 222.525 315.314 218.283C315.314 214.041 311.856 210.602 307.589 210.602Z" fill="#3DC4D6"/>
<path d="M299.35 230.06C295.084 230.06 291.625 233.499 291.625 237.741V240.175C291.625 241.718 292.75 243.033 294.281 243.282C303.095 244.713 312.084 244.713 320.898 243.282C322.429 243.033 323.553 241.718 323.553 240.175V237.741C323.553 233.499 320.095 230.06 315.829 230.06H315.127C314.747 230.06 314.369 230.12 314.008 230.237L312.225 230.816C309.213 231.794 305.966 231.794 302.954 230.816L301.171 230.237C300.81 230.12 300.432 230.06 300.052 230.06H299.35Z" fill="#3DC4D6"/>
<rect x="62" y="335" width="303" height="112" fill="#E7A80D"/>
<ellipse cx="308.387" cy="391" rx="39.8684" ry="40" fill="white"/>
<path d="M323.457 373.72H321.304V371.56C321.304 370.264 320.443 369.4 319.151 369.4C317.86 369.4 316.998 370.264 316.998 371.56V373.72H299.775V371.56C299.775 370.264 298.914 369.4 297.622 369.4C296.331 369.4 295.469 370.264 295.469 371.56V373.72H293.317C289.657 373.72 286.858 376.528 286.858 380.2V382.36H329.916V380.2C329.916 376.528 327.117 373.72 323.457 373.72ZM286.858 406.12C286.858 409.792 289.657 412.6 293.317 412.6H323.457C327.117 412.6 329.916 409.792 329.916 406.12V386.68H286.858V406.12ZM319.151 391C320.443 391 321.304 391.864 321.304 393.16C321.304 394.456 320.443 395.32 319.151 395.32C317.86 395.32 316.998 394.456 316.998 393.16C316.998 391.864 317.86 391 319.151 391ZM319.151 399.64C320.443 399.64 321.304 400.504 321.304 401.8C321.304 403.096 320.443 403.96 319.151 403.96C317.86 403.96 316.998 403.096 316.998 401.8C316.998 400.504 317.86 399.64 319.151 399.64ZM308.387 391C309.679 391 310.54 391.864 310.54 393.16C310.54 394.456 309.679 395.32 308.387 395.32C307.095 395.32 306.234 394.456 306.234 393.16C306.234 391.864 307.095 391 308.387 391ZM308.387 399.64C309.679 399.64 310.54 400.504 310.54 401.8C310.54 403.096 309.679 403.96 308.387 403.96C307.095 403.96 306.234 403.096 306.234 401.8C306.234 400.504 307.095 399.64 308.387 399.64ZM297.622 391C298.914 391 299.775 391.864 299.775 393.16C299.775 394.456 298.914 395.32 297.622 395.32C296.331 395.32 295.469 394.456 295.469 393.16C295.469 391.864 296.331 391 297.622 391ZM297.622 399.64C298.914 399.64 299.775 400.504 299.775 401.8C299.775 403.096 298.914 403.96 297.622 403.96C296.331 403.96 295.469 403.096 295.469 401.8C295.469 400.504 296.331 399.64 297.622 399.64Z" fill="#E7A80D"/>
<rect x="219" y="499" width="303" height="111" fill="#9DB0AC"/>
<ellipse cx="465.387" cy="554.5" rx="39.8684" ry="39.6429" fill="white"/>
<path d="M481.733 539.436H448.775C446.509 539.436 444.676 541.279 444.676 543.532L444.655 568.111C444.655 570.364 446.509 572.207 448.775 572.207H481.733C483.999 572.207 485.853 570.364 485.853 568.111V543.532C485.853 541.279 483.999 539.436 481.733 539.436ZM481.733 547.629L465.254 557.87L448.775 547.629V543.532L465.254 553.773L481.733 543.532V547.629Z" fill="#9DB0AC"/>
<rect x="423" y="172" width="302" height="111" fill="#D3DD48"/>
<ellipse cx="668.574" cy="227.5" rx="39.7368" ry="39.6429" fill="white"/>
<path fill-rule="evenodd" clip-rule="evenodd" d="M674.004 209.776C674.004 209.494 673.775 209.264 673.491 209.264H659.12C656.001 209.264 653.474 211.786 653.474 214.897V243.572C653.474 246.683 656.001 249.204 659.12 249.204H679.65C682.769 249.204 685.296 246.683 685.296 243.572V223.391C685.296 223.108 685.066 222.879 684.783 222.879H675.544C674.694 222.879 674.004 222.191 674.004 221.343V209.776ZM675.544 229.746C676.395 229.746 677.084 230.434 677.084 231.283C677.084 232.131 676.395 232.819 675.544 232.819H663.226C662.375 232.819 661.686 232.131 661.686 231.283C661.686 230.434 662.375 229.746 663.226 229.746H675.544ZM675.544 237.939C676.395 237.939 677.084 238.627 677.084 239.475C677.084 240.324 676.395 241.012 675.544 241.012H663.226C662.375 241.012 661.686 240.324 661.686 239.475C661.686 238.627 662.375 237.939 663.226 237.939H675.544Z" fill="#D3DD48"/>
<path d="M677.084 210.44C677.084 210.062 677.48 209.822 677.774 210.06C678.022 210.26 678.246 210.494 678.436 210.759L684.622 219.357C684.763 219.553 684.611 219.807 684.369 219.807H677.597C677.314 219.807 677.084 219.577 677.084 219.295V210.44Z" fill="#D3DD48"/>
<rect x="423" y="335" width="302" height="112" fill="#CA85B0"/>
<ellipse cx="668.574" cy="391" rx="39.7368" ry="40" fill="white"/>
<path d="M669.434 371.8C655.653 371.8 646.263 385.856 651.463 398.704L653.686 404.196C653.885 404.688 653.74 405.252 653.328 405.584L648.628 409.384C648.234 409.703 648.082 410.238 648.25 410.718C648.418 411.199 648.869 411.52 649.374 411.52H668.02C679.518 411.52 688.839 402.137 688.839 390.562C688.839 380.2 680.495 371.8 670.201 371.8H669.434Z" fill="#CA85B0"/>
<path d="M667.506 399.214V398.956C667.512 397.756 667.625 396.801 667.844 396.092C668.069 395.383 668.387 394.813 668.798 394.382C669.209 393.944 669.71 393.543 670.3 393.179C670.704 392.927 671.065 392.652 671.383 392.353C671.708 392.048 671.963 391.71 672.149 391.339C672.335 390.961 672.427 390.54 672.427 390.076C672.427 389.553 672.305 389.099 672.06 388.714C671.814 388.33 671.483 388.031 671.065 387.819C670.654 387.607 670.194 387.501 669.683 387.501C669.212 387.501 668.765 387.604 668.341 387.809C667.923 388.008 667.575 388.313 667.297 388.724C667.025 389.129 666.872 389.642 666.839 390.265H663.3C663.333 389.006 663.638 387.952 664.214 387.103C664.798 386.255 665.567 385.619 666.521 385.194C667.482 384.77 668.543 384.558 669.703 384.558C670.969 384.558 672.083 384.78 673.044 385.224C674.012 385.668 674.764 386.301 675.301 387.123C675.845 387.939 676.116 388.906 676.116 390.027C676.116 390.782 675.994 391.459 675.748 392.055C675.51 392.652 675.168 393.182 674.724 393.646C674.28 394.11 673.753 394.524 673.143 394.889C672.606 395.22 672.166 395.565 671.821 395.923C671.483 396.281 671.231 396.702 671.065 397.186C670.906 397.663 670.823 398.253 670.817 398.956V399.214H667.506ZM669.236 405.419C668.639 405.419 668.125 405.207 667.694 404.782C667.264 404.358 667.048 403.841 667.048 403.231C667.048 402.635 667.264 402.124 667.694 401.7C668.125 401.276 668.639 401.064 669.236 401.064C669.826 401.064 670.336 401.276 670.767 401.7C671.204 402.124 671.423 402.635 671.423 403.231C671.423 403.636 671.32 404.004 671.115 404.335C670.916 404.666 670.651 404.932 670.319 405.13C669.995 405.323 669.633 405.419 669.236 405.419Z" fill="white"/>
<ellipse cx="1056.38" cy="603.5" rx="87.6238" ry="88.5" fill="#9DB0AC"/>
<path d="M1025.4 607.359V616.49H1021.73V594.235H1034.81V597.528H1025.4V604.086H1033.27V607.359H1025.4ZM1049.86 616.49L1048.12 610.902H1040.26L1038.54 616.49H1034.74L1042.13 594.235H1046.38L1053.87 616.49H1049.86ZM1041.21 607.744H1047.16L1044.17 598.171L1041.21 607.744ZM1070.6 610.307C1071.41 608.963 1071.88 607.263 1071.88 605.362C1071.88 600.658 1069.04 597.259 1065.16 597.259C1061.29 597.259 1058.44 600.658 1058.44 605.362C1058.44 610.038 1061.27 613.475 1065.16 613.475C1066.29 613.475 1067.32 613.187 1068.23 612.669L1064.77 608.55L1067.27 606.361L1070.6 610.307ZM1071.8 616.922L1070.46 615.338C1068.93 616.279 1067.12 616.807 1065.16 616.807C1059.17 616.807 1054.68 611.901 1054.68 605.353C1054.68 598.728 1059.28 593.918 1065.2 593.918C1071.14 593.918 1075.67 598.738 1075.67 605.324C1075.67 608.416 1074.67 611.123 1073 613.139L1074.38 614.771L1071.8 616.922ZM1079.08 612.333C1080.27 613.187 1081.53 613.84 1083.02 613.84C1084.3 613.84 1085.49 613.331 1085.49 612.122C1085.49 609.078 1078.02 610.998 1078.02 605.314C1078.02 602.021 1080.51 600.524 1083.46 600.524C1085.45 600.524 1087.24 601.215 1088.57 602.329L1087.25 604.575C1086.2 603.884 1084.87 603.413 1083.74 603.413C1082.55 603.413 1081.51 603.951 1081.51 605.074C1081.51 608.089 1089.03 606.332 1089.03 611.978C1089.03 615.261 1086.51 616.807 1083.25 616.807C1080.81 616.807 1079.24 615.914 1077.51 614.503L1079.08 612.333Z" fill="white"/>
<circle cx="912.5" cy="185.5" r="88.5" fill="#830051"/>
<path d="M847.368 194.95V172.695H854.674C859.263 172.695 861.932 175.614 861.932 179.608C861.932 182.642 860.387 185.032 857.766 186.06L862.748 194.95H858.428L854.04 186.597H851.016V194.95H847.368ZM851.016 183.304H854.194C856.786 183.304 858.226 181.998 858.226 179.665C858.226 177.217 856.642 175.979 854.194 175.979H851.016V183.304ZM877.105 193.116C875.684 194.46 873.581 195.267 871.383 195.267C867.245 195.267 863.903 192.444 863.903 187.221C863.903 182.142 867.091 178.984 871.162 178.984C875.396 178.984 877.988 182.392 877.988 186.847C877.988 187.336 877.95 187.874 877.911 188.201H867.485C867.734 190.745 869.251 192.3 871.623 192.3C873.072 192.3 874.426 191.705 875.501 190.86L877.105 193.116ZM867.523 185.733H874.522C874.33 183.65 873.216 181.979 871.143 181.979C869.194 181.979 867.821 183.477 867.523 185.733ZM881.281 190.793C882.472 191.647 883.739 192.3 885.227 192.3C886.504 192.3 887.695 191.791 887.695 190.582C887.695 187.538 880.225 189.458 880.225 183.774C880.225 180.481 882.712 178.984 885.669 178.984C887.656 178.984 889.442 179.675 890.777 180.789L889.452 183.035C888.405 182.344 887.071 181.873 885.947 181.873C884.757 181.873 883.71 182.411 883.71 183.534C883.71 186.549 891.237 184.792 891.237 190.438C891.237 193.721 888.712 195.267 885.458 195.267C883.009 195.267 881.444 194.374 879.716 192.963L881.281 190.793ZM900.71 195.267C896.495 195.267 893.259 191.983 893.259 187.135C893.259 182.277 896.504 178.984 900.748 178.984C904.963 178.984 908.218 182.229 908.218 187.087C908.218 191.955 904.934 195.267 900.71 195.267ZM900.71 192.089C902.908 192.089 904.617 190.006 904.617 187.106C904.617 184.226 902.956 182.19 900.738 182.19C898.511 182.19 896.831 184.216 896.831 187.125C896.831 190.006 898.492 192.089 900.71 192.089ZM924.138 179.3V194.95H921.219L920.95 192.943C919.923 194.556 918.223 195.267 916.342 195.267C912.645 195.267 911.003 192.502 911.003 188.786V179.3H914.575V188.585C914.575 190.524 915.439 192.003 917.398 192.003C919.548 192.003 920.566 190.217 920.566 188.037V179.3H924.138ZM927.948 194.95V179.3H930.867L931.174 181.691H931.203C931.932 179.924 933.094 178.984 935.043 178.984C935.705 178.984 936.358 179.089 936.973 179.281L936.416 182.632C935.888 182.459 935.379 182.373 934.851 182.373C931.99 182.373 931.5 185.253 931.5 188.105V194.95H927.948ZM948.834 190.975L950.524 193.356C949.055 194.547 947.173 195.267 945.205 195.267C941.412 195.267 937.716 192.579 937.716 187.212C937.716 182.094 941.095 178.984 945.243 178.984C947.086 178.984 949.007 179.608 950.322 180.693L948.853 183.189C947.903 182.555 946.731 182.152 945.579 182.152C943.054 182.152 941.297 184.139 941.297 187.125C941.297 190.073 943.025 192.089 945.541 192.089C946.702 192.089 947.883 191.657 948.834 190.975ZM965.011 193.116C963.59 194.46 961.487 195.267 959.289 195.267C955.151 195.267 951.81 192.444 951.81 187.221C951.81 182.142 954.997 178.984 959.068 178.984C963.302 178.984 965.894 182.392 965.894 186.847C965.894 187.336 965.856 187.874 965.817 188.201H955.391C955.64 190.745 957.157 192.3 959.529 192.3C960.979 192.3 962.332 191.705 963.408 190.86L965.011 193.116ZM955.429 185.733H962.428C962.236 183.65 961.123 181.979 959.049 181.979C957.1 181.979 955.727 183.477 955.429 185.733ZM969.188 190.793C970.378 191.647 971.645 192.3 973.134 192.3C974.41 192.3 975.601 191.791 975.601 190.582C975.601 187.538 968.131 189.458 968.131 183.774C968.131 180.481 970.618 178.984 973.575 178.984C975.563 178.984 977.348 179.675 978.683 180.789L977.358 183.035C976.311 182.344 974.977 181.873 973.854 181.873C972.663 181.873 971.617 182.411 971.617 183.534C971.617 186.549 979.144 184.792 979.144 190.438C979.144 193.721 976.619 195.267 973.364 195.267C970.916 195.267 969.351 194.374 967.623 192.963L969.188 190.793Z" fill="white"/>
<circle cx="1213.5" cy="185.5" r="88.5" fill="#B7D63D"/>
<path d="M1175 153.695L1179.86 170.209L1184.73 153.695H1188.52L1181.41 175.95H1178.12L1171.05 153.695H1175ZM1195.52 176.267C1191.31 176.267 1188.07 172.983 1188.07 168.135C1188.07 163.277 1191.32 159.984 1195.56 159.984C1199.78 159.984 1203.03 163.229 1203.03 168.087C1203.03 172.955 1199.75 176.267 1195.52 176.267ZM1195.52 173.089C1197.72 173.089 1199.43 171.006 1199.43 168.106C1199.43 165.226 1197.77 163.19 1195.55 163.19C1193.32 163.19 1191.64 165.216 1191.64 168.125C1191.64 171.006 1193.3 173.089 1195.52 173.089ZM1204.38 163.382V160.3H1206.88V155.49L1210.43 154.818V160.3H1213.9V163.382H1210.43V169.642C1210.43 172.407 1211.6 172.897 1213.53 173.319L1213.11 176.267C1210.05 176.267 1206.88 174.836 1206.88 170.717V163.382H1204.38ZM1218.24 157.564C1217.01 157.564 1216.01 156.546 1216.01 155.289C1216.01 154.041 1217.01 153.023 1218.24 153.023C1219.47 153.023 1220.47 154.041 1220.47 155.289C1220.47 156.546 1219.47 157.564 1218.24 157.564ZM1216.46 175.95V160.3H1220.02V175.95H1216.46ZM1237.06 175.95H1233.5V166.656C1233.5 164.736 1232.57 163.229 1230.63 163.229C1228.52 163.229 1227.38 165.053 1227.38 167.194V175.95H1223.81V160.3H1226.72L1227.01 162.345C1228.04 160.78 1229.77 159.984 1231.72 159.984C1235.36 159.984 1237.06 162.758 1237.06 166.435V175.95ZM1254.46 160.3V175.163C1254.46 180.098 1251.38 182.843 1246.99 182.843C1244.59 182.843 1242.42 182.018 1240.77 180.491L1242.43 178.187C1243.58 179.118 1245.1 179.694 1246.64 179.694C1249.11 179.694 1250.89 178.245 1250.89 174.673V173.723L1250.87 173.713C1249.9 175.134 1248.18 175.816 1246.38 175.816C1242.33 175.816 1239.92 172.417 1239.92 167.981C1239.92 163.037 1242.83 159.984 1246.56 159.984C1248.48 159.984 1250.28 160.78 1251.23 162.422L1251.51 160.3H1254.46ZM1247.26 172.676C1249.67 172.676 1250.96 170.564 1250.96 167.885C1250.96 165.303 1249.69 163.171 1247.3 163.171C1244.96 163.171 1243.49 165.168 1243.49 167.952C1243.49 170.717 1244.94 172.676 1247.26 172.676ZM1194.37 191.695V195.007H1188.24V213.95H1184.53V195.007H1178.4V191.695H1194.37ZM1206.25 212.116C1204.82 213.46 1202.72 214.267 1200.52 214.267C1196.39 214.267 1193.04 211.444 1193.04 206.221C1193.04 201.142 1196.23 197.984 1200.3 197.984C1204.54 197.984 1207.13 201.392 1207.13 205.847C1207.13 206.336 1207.09 206.874 1207.05 207.201H1196.63C1196.87 209.745 1198.39 211.3 1200.76 211.3C1202.21 211.3 1203.57 210.705 1204.64 209.86L1206.25 212.116ZM1196.66 204.733H1203.66C1203.47 202.65 1202.36 200.979 1200.28 200.979C1198.33 200.979 1196.96 202.477 1196.66 204.733ZM1222.73 211.646L1222.31 214.257C1220.45 214.257 1218.7 213.585 1218.53 212.02C1217.56 213.547 1215.82 214.267 1214.01 214.267C1211.13 214.267 1208.88 212.375 1208.88 209.418C1208.88 206.432 1211.14 204.301 1215.11 204.301C1216.23 204.301 1217.35 204.474 1218.22 204.675V203.879C1218.22 201.91 1216.96 200.979 1215.03 200.979C1213.6 200.979 1212.09 201.45 1210.95 202.112L1209.88 199.683C1211.49 198.473 1213.72 197.984 1215.7 197.984C1219.65 197.984 1221.74 199.923 1221.74 203.485V209.38C1221.74 210.609 1221.96 211.204 1222.73 211.646ZM1218.22 207.229C1217.54 207.066 1216.53 206.893 1215.55 206.893C1213.3 206.893 1212.29 207.825 1212.29 209.255C1212.29 210.676 1213.35 211.387 1214.59 211.387C1216.31 211.387 1218.22 210.081 1218.22 208.228V207.229ZM1229.31 213.95H1225.74V198.3H1228.64L1228.92 200.345C1229.81 198.828 1231.5 197.984 1233.28 197.984C1235.09 197.984 1236.72 198.848 1237.57 200.461C1238.56 198.8 1240.37 197.984 1242.34 197.984C1245.98 197.984 1247.39 200.777 1247.39 204.435V213.95H1243.82V204.656C1243.82 202.755 1243.14 201.238 1241.28 201.229C1239.18 201.21 1238.33 203.111 1238.33 205.184V213.95H1234.79V204.656C1234.79 202.774 1234.11 201.229 1232.24 201.229C1230.18 201.229 1229.31 203.139 1229.31 205.184V213.95Z" fill="#203E54"/>
<ellipse cx="912.839" cy="411.5" rx="84.7701" ry="88.5" fill="#3DC4D6"/>
<path d="M869.497 415.357L871.158 418.017C869.296 419.639 866.483 420.542 863.948 420.542C858.015 420.542 853.665 415.636 853.665 409.194C853.665 402.626 858.159 397.653 864.073 397.653C866.588 397.653 869.238 398.565 871.129 400.217L869.497 402.809C868.048 401.676 866.156 400.994 864.361 400.994C860.29 400.994 857.429 404.508 857.429 409.107C857.429 413.658 860.213 417.153 864.294 417.153C866.156 417.153 868.115 416.423 869.497 415.357ZM886.465 417.921L886.042 420.532C884.18 420.532 882.432 419.86 882.259 418.295C881.29 419.822 879.552 420.542 877.747 420.542C874.867 420.542 872.611 418.65 872.611 415.693C872.611 412.707 874.876 410.576 878.842 410.576C879.965 410.576 881.088 410.749 881.952 410.95V410.154C881.952 408.185 880.695 407.254 878.765 407.254C877.334 407.254 875.827 407.725 874.684 408.387L873.619 405.958C875.222 404.748 877.459 404.259 879.437 404.259C883.383 404.259 885.476 406.198 885.476 409.76V415.655C885.476 416.884 885.697 417.479 886.465 417.921ZM881.952 413.504C881.271 413.341 880.262 413.168 879.283 413.168C877.037 413.168 876.028 414.1 876.028 415.53C876.028 416.951 877.085 417.662 878.323 417.662C880.042 417.662 881.952 416.356 881.952 414.503V413.504ZM889.412 416.74V397.615L892.964 396.943V415.357C892.964 416.586 893.175 417.201 894.04 417.671L893.569 420.542C891.428 420.542 889.412 419.313 889.412 416.74ZM909.417 418.391C907.996 419.735 905.894 420.542 903.695 420.542C899.557 420.542 896.216 417.719 896.216 412.496C896.216 407.417 899.403 404.259 903.474 404.259C907.708 404.259 910.301 407.667 910.301 412.122C910.301 412.611 910.262 413.149 910.224 413.476H899.797C900.047 416.02 901.564 417.575 903.935 417.575C905.385 417.575 906.739 416.98 907.814 416.135L909.417 418.391ZM899.835 411.008H906.835C906.643 408.925 905.529 407.254 903.455 407.254C901.506 407.254 900.133 408.752 899.835 411.008ZM926.344 420.225H922.782V410.931C922.782 409.011 921.851 407.504 919.911 407.504C917.799 407.504 916.666 409.328 916.666 411.469V420.225H913.095V404.575H916.004L916.292 406.62C917.319 405.055 919.047 404.259 921.006 404.259C924.644 404.259 926.344 407.033 926.344 410.71V420.225ZM940.857 420.225L940.569 418.065C939.542 419.707 937.785 420.542 935.816 420.542C931.947 420.542 929.192 417.306 929.192 412.371C929.192 407.955 931.467 404.259 935.778 404.259C937.564 404.259 939.186 404.911 940.185 406.332H940.204V397.615L943.776 396.943V420.225H940.857ZM936.633 417.364C939.148 417.364 940.31 414.944 940.31 412.4C940.31 409.53 938.879 407.465 936.556 407.465C934.271 407.465 932.773 409.453 932.773 412.381C932.773 415.453 934.396 417.364 936.633 417.364ZM960.371 417.921L959.949 420.532C958.086 420.532 956.339 419.86 956.166 418.295C955.196 419.822 953.458 420.542 951.653 420.542C948.773 420.542 946.517 418.65 946.517 415.693C946.517 412.707 948.783 410.576 952.748 410.576C953.871 410.576 954.994 410.749 955.858 410.95V410.154C955.858 408.185 954.601 407.254 952.671 407.254C951.24 407.254 949.733 407.725 948.591 408.387L947.525 405.958C949.128 404.748 951.365 404.259 953.343 404.259C957.289 404.259 959.382 406.198 959.382 409.76V415.655C959.382 416.884 959.603 417.479 960.371 417.921ZM955.858 413.504C955.177 413.341 954.169 413.168 953.189 413.168C950.943 413.168 949.935 414.1 949.935 415.53C949.935 416.951 950.991 417.662 952.229 417.662C953.948 417.662 955.858 416.356 955.858 414.503V413.504ZM963.385 420.225V404.575H966.304L966.611 406.966H966.64C967.37 405.2 968.531 404.259 970.48 404.259C971.143 404.259 971.796 404.364 972.41 404.556L971.853 407.907C971.325 407.734 970.817 407.648 970.288 407.648C967.427 407.648 966.938 410.528 966.938 413.38V420.225H963.385Z" fill="#203E54"/>
<circle cx="1213.5" cy="411.5" r="88.5" fill="#E7A80D"/>
<path d="M1171.67 415.197L1173.33 417.857C1171.47 419.479 1168.65 420.382 1166.12 420.382C1160.19 420.382 1155.84 415.476 1155.84 409.033C1155.84 402.466 1160.33 397.493 1166.24 397.493C1168.76 397.493 1171.41 398.405 1173.3 400.057L1171.67 402.649C1170.22 401.516 1168.33 400.834 1166.53 400.834C1162.46 400.834 1159.6 404.348 1159.6 408.947C1159.6 413.498 1162.38 416.993 1166.47 416.993C1168.33 416.993 1170.29 416.263 1171.67 415.197ZM1182.07 420.382C1177.85 420.382 1174.62 417.098 1174.62 412.25C1174.62 407.392 1177.86 404.099 1182.11 404.099C1186.32 404.099 1189.58 407.344 1189.58 412.202C1189.58 417.07 1186.29 420.382 1182.07 420.382ZM1182.07 417.204C1184.27 417.204 1185.98 415.121 1185.98 412.221C1185.98 409.341 1184.32 407.305 1182.1 407.305C1179.87 407.305 1178.19 409.331 1178.19 412.24C1178.19 415.121 1179.85 417.204 1182.07 417.204ZM1205.77 420.065H1202.2V410.771C1202.2 408.851 1201.27 407.344 1199.33 407.344C1197.22 407.344 1196.09 409.168 1196.09 411.309V420.065H1192.52V404.415H1195.43L1195.71 406.46C1196.74 404.895 1198.47 404.099 1200.43 404.099C1204.07 404.099 1205.77 406.873 1205.77 410.55V420.065ZM1207.96 407.497V404.415H1210.46V399.605L1214.01 398.933V404.415H1217.48V407.497H1214.01V413.757C1214.01 416.522 1215.18 417.012 1217.11 417.434L1216.69 420.382C1213.63 420.382 1210.46 418.951 1210.46 414.832V407.497H1207.96ZM1232.82 417.761L1232.4 420.372C1230.54 420.372 1228.79 419.7 1228.62 418.135C1227.65 419.662 1225.91 420.382 1224.11 420.382C1221.23 420.382 1218.97 418.49 1218.97 415.533C1218.97 412.547 1221.24 410.416 1225.2 410.416C1226.32 410.416 1227.45 410.589 1228.31 410.79V409.994C1228.31 408.025 1227.05 407.094 1225.12 407.094C1223.69 407.094 1222.19 407.565 1221.04 408.227L1219.98 405.798C1221.58 404.588 1223.82 404.099 1225.8 404.099C1229.74 404.099 1231.84 406.038 1231.84 409.6V415.495C1231.84 416.724 1232.06 417.319 1232.82 417.761ZM1228.31 413.344C1227.63 413.181 1226.62 413.008 1225.64 413.008C1223.4 413.008 1222.39 413.94 1222.39 415.37C1222.39 416.791 1223.44 417.502 1224.68 417.502C1226.4 417.502 1228.31 416.196 1228.31 414.343V413.344ZM1246.13 416.09L1247.82 418.471C1246.35 419.662 1244.47 420.382 1242.5 420.382C1238.71 420.382 1235.01 417.694 1235.01 412.327C1235.01 407.209 1238.39 404.099 1242.54 404.099C1244.38 404.099 1246.3 404.723 1247.62 405.808L1246.15 408.304C1245.2 407.67 1244.03 407.267 1242.88 407.267C1240.35 407.267 1238.59 409.254 1238.59 412.24C1238.59 415.188 1240.32 417.204 1242.84 417.204C1244 417.204 1245.18 416.772 1246.13 416.09ZM1248.87 407.497V404.415H1251.36V399.605L1254.92 398.933V404.415H1258.38V407.497H1254.92V413.757C1254.92 416.522 1256.09 417.012 1258.02 417.434L1257.59 420.382C1254.53 420.382 1251.36 418.951 1251.36 414.832V407.497H1248.87ZM1261.42 415.908C1262.61 416.762 1263.88 417.415 1265.37 417.415C1266.64 417.415 1267.84 416.906 1267.84 415.697C1267.84 412.653 1260.37 414.573 1260.37 408.889C1260.37 405.596 1262.85 404.099 1265.81 404.099C1267.8 404.099 1269.58 404.79 1270.92 405.904L1269.59 408.15C1268.55 407.459 1267.21 406.988 1266.09 406.988C1264.9 406.988 1263.85 407.526 1263.85 408.649C1263.85 411.664 1271.38 409.907 1271.38 415.553C1271.38 418.836 1268.85 420.382 1265.6 420.382C1263.15 420.382 1261.59 419.489 1259.86 418.078L1261.42 415.908Z" fill="#203E54"/>
</svg>
