<svg width="680" height="680" viewBox="0 0 680 680" fill="none" xmlns="http://www.w3.org/2000/svg">
<path d="M40 42C40 40.8954 40.8954 40 42 40H638C639.105 40 640 40.8954 640 42V638C640 639.105 639.105 640 638 640H42C40.8954 640 40 639.105 40 638V42Z" fill="white"/>
<path d="M42 40V41H638V40V39H42V40ZM640 42H639V638H640H641V42H640ZM638 640V639H42V640V641H638V640ZM40 638H41V42H40H39V638H40ZM42 640V639C41.4477 639 41 638.552 41 638H40H39C39 639.657 40.3431 641 42 641V640ZM640 638H639C639 638.552 638.552 639 638 639V640V641C639.657 641 641 639.657 641 638H640ZM638 40V41C638.552 41 639 41.4477 639 42H640H641C641 40.3431 639.657 39 638 39V40ZM42 40V39C40.3431 39 39 40.3431 39 42H40H41C41 41.4477 41.4477 41 42 41V40Z" fill="black" fill-opacity="0.1"/>
<circle cx="202.5" cy="188.5" r="61.5" fill="#E7A80D"/>
<circle cx="202.5" cy="107.5" r="27.5" fill="#3DC4D6"/>
<circle cx="147.5" cy="128.5" r="27.5" fill="#D3DD48"/>
<circle cx="259.5" cy="128.5" r="27.5" fill="#3DD6CD"/>
<circle cx="281.5" cy="188.5" r="27.5" fill="#3DD6B1"/>
<ellipse cx="259.5" cy="244" rx="27.5" ry="28" fill="#3DD696"/>
<circle cx="121.5" cy="188.5" r="27.5" fill="#B7D63D"/>
<circle cx="202.5" cy="267.5" r="27.5" fill="#3DD67A"/>
<circle cx="143.5" cy="242.5" r="27.5" fill="#52D63D"/>
<path d="M467 137L502.507 157.5V198.5L467 219L431.493 198.5V157.5L467 137Z" fill="#3DC4D6"/>
<path d="M428 72L463.507 92.5V133.5L428 154L392.493 133.5V92.5L428 72Z" fill="#D0006F"/>
<path d="M506 72L541.507 92.5V133.5L506 154L470.493 133.5V92.5L506 72Z" fill="#E7A80D"/>
<path d="M545 137L580.507 157.5V198.5L545 219L509.493 198.5V157.5L545 137Z" fill="#D0006F"/>
<path d="M506 203L541.507 223.75V265.25L506 286L470.493 265.25V223.75L506 203Z" fill="#E7A80D"/>
<path d="M429 203L464.507 223.75V265.25L429 286L393.493 265.25V223.75L429 203Z" fill="#D0006F"/>
<path d="M390 137L425.507 157.5V198.5L390 219L354.493 198.5V157.5L390 137Z" fill="#E7A80D"/>
<circle cx="197.5" cy="478.5" r="68.5" fill="#3DC4D6"/>
<circle cx="197" cy="393" r="30" fill="#E7A80D" fill-opacity="0.5"/>
<circle cx="281" cy="481" r="30" fill="#E7A80D" fill-opacity="0.5"/>
<circle cx="197" cy="560" r="30" fill="#E7A80D" fill-opacity="0.5"/>
<circle cx="114" cy="481" r="30" fill="#E7A80D" fill-opacity="0.5"/>
<circle cx="137" cy="419" r="35" fill="#D0006F" fill-opacity="0.5"/>
<circle cx="134" cy="543" r="35" fill="#D0006F" fill-opacity="0.5"/>
<circle cx="260" cy="419" r="35" fill="#D0006F" fill-opacity="0.5"/>
<circle cx="260" cy="543" r="35" fill="#D0006F" fill-opacity="0.5"/>
<path d="M182.286 478.321H177.236V475.287H186.136C186.136 483.054 182.756 487.317 176.813 487.317C170.294 487.317 166.55 482.123 166.55 476.045C166.55 469.401 170.976 464.428 176.929 464.428C179.473 464.428 182.123 465.34 184.014 466.992L182.372 469.584C180.99 468.48 179.089 467.769 177.245 467.769C173.088 467.769 170.323 471.341 170.323 475.93C170.323 480.231 172.8 484.005 176.775 484.005C179.828 484.005 182.161 481.767 182.286 478.321ZM203.786 478.321H198.736V475.287H207.636C207.636 483.054 204.256 487.317 198.313 487.317C191.794 487.317 188.05 482.123 188.05 476.045C188.05 469.401 192.476 464.428 198.429 464.428C200.973 464.428 203.623 465.34 205.514 466.992L203.872 469.584C202.49 468.48 200.589 467.769 198.745 467.769C194.588 467.769 191.823 471.341 191.823 475.93C191.823 480.231 194.3 484.005 198.275 484.005C201.328 484.005 203.661 481.767 203.786 478.321ZM225.372 482.132L227.033 484.792C225.171 486.414 222.358 487.317 219.823 487.317C213.89 487.317 209.54 482.411 209.54 475.968C209.54 469.401 214.034 464.428 219.948 464.428C222.463 464.428 225.113 465.34 227.004 466.992L225.372 469.584C223.923 468.451 222.031 467.769 220.236 467.769C216.165 467.769 213.304 471.283 213.304 475.882C213.304 480.433 216.088 483.928 220.169 483.928C222.031 483.928 223.99 483.198 225.372 482.132Z" fill="black"/>
<path d="M191.339 188.491H187.552V186.215H194.227C194.227 192.041 191.692 195.238 187.235 195.238C182.346 195.238 179.537 191.342 179.537 186.784C179.537 181.801 182.857 178.071 187.321 178.071C189.23 178.071 191.217 178.755 192.636 179.994L191.404 181.938C190.367 181.11 188.942 180.577 187.559 180.577C184.441 180.577 182.367 183.256 182.367 186.698C182.367 189.923 184.225 192.753 187.206 192.753C189.496 192.753 191.246 191.076 191.339 188.491ZM207.464 188.491H203.677V186.215H210.352C210.352 192.041 207.817 195.238 203.36 195.238C198.471 195.238 195.662 191.342 195.662 186.784C195.662 181.801 198.982 178.071 203.446 178.071C205.355 178.071 207.342 178.755 208.761 179.994L207.529 181.938C206.492 181.11 205.067 180.577 203.684 180.577C200.566 180.577 198.492 183.256 198.492 186.698C198.492 189.923 200.35 192.753 203.331 192.753C205.621 192.753 207.371 191.076 207.464 188.491ZM223.654 191.349L224.9 193.344C223.503 194.561 221.393 195.238 219.492 195.238C215.042 195.238 211.78 191.558 211.78 186.726C211.78 181.801 215.15 178.071 219.586 178.071C221.472 178.071 223.46 178.755 224.878 179.994L223.654 181.938C222.567 181.088 221.148 180.577 219.802 180.577C216.749 180.577 214.603 183.212 214.603 186.662C214.603 190.075 216.691 192.696 219.751 192.696C221.148 192.696 222.617 192.149 223.654 191.349Z" fill="black"/>
<ellipse cx="481" cy="482" rx="60" ry="61" fill="#E7A80D"/>
<ellipse cx="481" cy="402.5" rx="35" ry="35.5" fill="#3DC4D6" fill-opacity="0.5"/>
<ellipse cx="426" cy="427" rx="35" ry="36" fill="#D3DD48" fill-opacity="0.5"/>
<ellipse cx="536" cy="427" rx="35" ry="36" fill="#3DD6CD" fill-opacity="0.5"/>
<ellipse cx="560" cy="481" rx="35" ry="36" fill="#3DD6B1" fill-opacity="0.5"/>
<ellipse cx="538" cy="538" rx="35" ry="36" fill="#3DD696" fill-opacity="0.5"/>
<ellipse cx="403" cy="481" rx="35" ry="36" fill="#B7D63D" fill-opacity="0.5"/>
<ellipse cx="481" cy="562.5" rx="35" ry="35.5" fill="#3DD67A" fill-opacity="0.5"/>
<ellipse cx="426" cy="538" rx="35" ry="36" fill="#52D63D" fill-opacity="0.5"/>
<path d="M456.339 178.491H452.552V176.215H459.227C459.227 182.041 456.692 185.238 452.235 185.238C447.346 185.238 444.537 181.342 444.537 176.784C444.537 171.801 447.857 168.071 452.321 168.071C454.23 168.071 456.217 168.755 457.636 169.994L456.404 171.938C455.367 171.11 453.942 170.577 452.559 170.577C449.441 170.577 447.367 173.256 447.367 176.698C447.367 179.923 449.225 182.753 452.206 182.753C454.496 182.753 456.246 181.076 456.339 178.491ZM472.464 178.491H468.677V176.215H475.352C475.352 182.041 472.817 185.238 468.36 185.238C463.471 185.238 460.662 181.342 460.662 176.784C460.662 171.801 463.982 168.071 468.446 168.071C470.355 168.071 472.342 168.755 473.761 169.994L472.529 171.938C471.492 171.11 470.067 170.577 468.684 170.577C465.566 170.577 463.492 173.256 463.492 176.698C463.492 179.923 465.35 182.753 468.331 182.753C470.621 182.753 472.371 181.076 472.464 178.491ZM488.654 181.349L489.9 183.344C488.503 184.561 486.393 185.238 484.492 185.238C480.042 185.238 476.78 181.558 476.78 176.726C476.78 171.801 480.15 168.071 484.586 168.071C486.472 168.071 488.46 168.755 489.878 169.994L488.654 171.938C487.567 171.088 486.148 170.577 484.802 170.577C481.749 170.577 479.603 173.212 479.603 176.662C479.603 180.075 481.691 182.696 484.751 182.696C486.148 182.696 487.617 182.149 488.654 181.349Z" fill="black"/>
<path d="M469.839 486.491H466.052V484.215H472.727C472.727 490.041 470.192 493.238 465.735 493.238C460.846 493.238 458.037 489.342 458.037 484.784C458.037 479.801 461.357 476.071 465.821 476.071C467.73 476.071 469.717 476.755 471.136 477.994L469.904 479.938C468.867 479.11 467.442 478.577 466.059 478.577C462.941 478.577 460.867 481.256 460.867 484.698C460.867 487.923 462.725 490.753 465.706 490.753C467.996 490.753 469.746 489.076 469.839 486.491ZM485.964 486.491H482.177V484.215H488.852C488.852 490.041 486.317 493.238 481.86 493.238C476.971 493.238 474.162 489.342 474.162 484.784C474.162 479.801 477.482 476.071 481.946 476.071C483.855 476.071 485.842 476.755 487.261 477.994L486.029 479.938C484.992 479.11 483.567 478.577 482.184 478.577C479.066 478.577 476.992 481.256 476.992 484.698C476.992 487.923 478.85 490.753 481.831 490.753C484.121 490.753 485.871 489.076 485.964 486.491ZM502.154 489.349L503.4 491.344C502.003 492.561 499.893 493.238 497.992 493.238C493.542 493.238 490.28 489.558 490.28 484.726C490.28 479.801 493.65 476.071 498.086 476.071C499.972 476.071 501.96 476.755 503.378 477.994L502.154 479.938C501.067 479.088 499.648 478.577 498.302 478.577C495.249 478.577 493.103 481.212 493.103 484.662C493.103 488.075 495.191 490.696 498.251 490.696C499.648 490.696 501.117 490.149 502.154 489.349Z" fill="black"/>
</svg>
