<svg width="205" height="463" viewBox="0 0 205 463" fill="none" xmlns="http://www.w3.org/2000/svg">
<ellipse cx="100.383" cy="363" rx="95.7854" ry="100" fill="#3DC4D6"/>
<path d="M56.9973 367.132L58.6582 369.792C56.7957 371.414 53.9826 372.317 51.4479 372.317C45.5145 372.317 41.1653 367.411 41.1653 360.968C41.1653 354.401 45.6585 349.428 51.5727 349.428C54.0882 349.428 56.7381 350.34 58.6294 351.992L56.9973 354.584C55.5475 353.451 53.6561 352.769 51.8608 352.769C47.79 352.769 44.9289 356.283 44.9289 360.882C44.9289 365.433 47.7131 368.928 51.7936 368.928C53.6561 368.928 55.6147 368.198 56.9973 367.132ZM73.9647 369.696L73.5423 372.307C71.6797 372.307 69.9323 371.635 69.7595 370.07C68.7898 371.597 67.052 372.317 65.247 372.317C62.3667 372.317 60.1105 370.425 60.1105 367.468C60.1105 364.482 62.3763 362.351 66.3415 362.351C67.4648 362.351 68.5882 362.524 69.4522 362.725V361.929C69.4522 359.96 68.1945 359.029 66.2647 359.029C64.8342 359.029 63.3268 359.5 62.1843 360.162L61.1186 357.733C62.722 356.523 64.959 356.034 66.9368 356.034C70.8828 356.034 72.9758 357.973 72.9758 361.535V367.43C72.9758 368.659 73.1966 369.254 73.9647 369.696ZM69.4522 365.279C68.7706 365.116 67.7625 364.943 66.7832 364.943C64.5366 364.943 63.5285 365.875 63.5285 367.305C63.5285 368.726 64.5846 369.437 65.8231 369.437C67.5417 369.437 69.4522 368.131 69.4522 366.278V365.279ZM76.9119 368.515V349.39L80.4643 348.718V367.132C80.4643 368.361 80.6755 368.976 81.5396 369.446L81.0691 372.317C78.9281 372.317 76.9119 371.088 76.9119 368.515ZM96.9173 370.166C95.4963 371.51 93.3937 372.317 91.1951 372.317C87.0571 372.317 83.7159 369.494 83.7159 364.271C83.7159 359.192 86.9035 356.034 90.9743 356.034C95.2083 356.034 97.8005 359.442 97.8005 363.897C97.8005 364.386 97.7621 364.924 97.7237 365.251H87.2971C87.5467 367.795 89.0637 369.35 91.4351 369.35C92.8848 369.35 94.2386 368.755 95.3139 367.91L96.9173 370.166ZM87.3355 362.783H94.3346C94.1426 360.7 93.0289 359.029 90.9551 359.029C89.0061 359.029 87.6331 360.527 87.3355 362.783ZM113.844 372H110.282V362.706C110.282 360.786 109.351 359.279 107.411 359.279C105.299 359.279 104.166 361.103 104.166 363.244V372H100.595V356.35H103.504L103.792 358.395C104.819 356.83 106.547 356.034 108.506 356.034C112.144 356.034 113.844 358.808 113.844 362.485V372ZM128.357 372L128.069 369.84C127.042 371.482 125.285 372.317 123.316 372.317C119.447 372.317 116.692 369.081 116.692 364.146C116.692 359.73 118.967 356.034 123.278 356.034C125.064 356.034 126.686 356.686 127.685 358.107H127.704V349.39L131.276 348.718V372H128.357ZM124.133 369.139C126.648 369.139 127.81 366.719 127.81 364.175C127.81 361.305 126.379 359.24 124.056 359.24C121.771 359.24 120.273 361.228 120.273 364.156C120.273 367.228 121.896 369.139 124.133 369.139ZM147.871 369.696L147.449 372.307C145.586 372.307 143.839 371.635 143.666 370.07C142.696 371.597 140.958 372.317 139.153 372.317C136.273 372.317 134.017 370.425 134.017 367.468C134.017 364.482 136.283 362.351 140.248 362.351C141.371 362.351 142.494 362.524 143.358 362.725V361.929C143.358 359.96 142.101 359.029 140.171 359.029C138.74 359.029 137.233 359.5 136.091 360.162L135.025 357.733C136.628 356.523 138.865 356.034 140.843 356.034C144.789 356.034 146.882 357.973 146.882 361.535V367.43C146.882 368.659 147.103 369.254 147.871 369.696ZM143.358 365.279C142.677 365.116 141.669 364.943 140.689 364.943C138.443 364.943 137.435 365.875 137.435 367.305C137.435 368.726 138.491 369.437 139.729 369.437C141.448 369.437 143.358 368.131 143.358 366.278V365.279ZM150.885 372V356.35H153.804L154.111 358.741H154.14C154.87 356.974 156.031 356.034 157.98 356.034C158.643 356.034 159.296 356.139 159.91 356.331L159.353 359.682C158.825 359.509 158.317 359.423 157.788 359.423C154.927 359.423 154.438 362.303 154.438 365.155V372H150.885Z" fill="#203E54"/>
<circle cx="105" cy="100" r="100" fill="#830051"/>
<path d="M39.8677 109V86.745H47.174C51.7633 86.745 54.4323 89.6637 54.4323 93.6577C54.4323 96.6916 52.8866 99.0822 50.2655 100.11L55.2484 109H50.928L46.5403 100.647H43.516V109H39.8677ZM43.516 97.354H46.694C49.2862 97.354 50.7264 96.0483 50.7264 93.7153C50.7264 91.267 49.1422 90.0285 46.694 90.0285H43.516V97.354ZM69.6048 107.166C68.1838 108.51 66.0812 109.317 63.8826 109.317C59.7446 109.317 56.4034 106.494 56.4034 101.271C56.4034 96.1923 59.591 93.0336 63.6618 93.0336C67.8958 93.0336 70.488 96.4419 70.488 100.897C70.488 101.386 70.4496 101.924 70.4112 102.251H59.9846C60.2342 104.795 61.7512 106.35 64.1226 106.35C65.5723 106.35 66.9261 105.755 68.0014 104.91L69.6048 107.166ZM60.023 99.7831H67.0221C66.8301 97.6997 65.7164 96.0291 63.6426 96.0291C61.6936 96.0291 60.3206 97.5269 60.023 99.7831ZM73.7813 104.843C74.9718 105.697 76.2391 106.35 77.7273 106.35C79.0042 106.35 80.1947 105.841 80.1947 104.632C80.1947 101.588 72.7252 103.508 72.7252 97.8245C72.7252 94.5314 75.2118 93.0336 78.1689 93.0336C80.1563 93.0336 81.9421 93.7249 83.2766 94.8386L81.9517 97.0852C80.9052 96.3939 79.5706 95.9235 78.4473 95.9235C77.2568 95.9235 76.2103 96.4611 76.2103 97.5845C76.2103 100.599 83.7375 98.8422 83.7375 104.488C83.7375 107.771 81.2124 109.317 77.9577 109.317C75.5094 109.317 73.9445 108.424 72.2163 107.013L73.7813 104.843ZM93.2096 109.317C88.9948 109.317 85.7592 106.033 85.7592 101.185C85.7592 96.3267 89.0044 93.0336 93.248 93.0336C97.4628 93.0336 100.718 96.2787 100.718 101.137C100.718 106.005 97.434 109.317 93.2096 109.317ZM93.2096 106.139C95.4082 106.139 97.1172 104.056 97.1172 101.156C97.1172 98.2757 95.4562 96.2403 93.2384 96.2403C91.011 96.2403 89.3308 98.2661 89.3308 101.175C89.3308 104.056 90.9918 106.139 93.2096 106.139ZM116.638 93.3504V109H113.719L113.45 106.993C112.423 108.606 110.723 109.317 108.842 109.317C105.145 109.317 103.503 106.552 103.503 102.836V93.3504H107.075V102.635C107.075 104.574 107.939 106.053 109.898 106.053C112.048 106.053 113.066 104.267 113.066 102.087V93.3504H116.638ZM120.448 109V93.3504H123.367L123.674 95.7411H123.703C124.432 93.9745 125.594 93.0336 127.543 93.0336C128.205 93.0336 128.858 93.1392 129.473 93.3312L128.916 96.682C128.388 96.5092 127.879 96.4227 127.351 96.4227C124.49 96.4227 124 99.303 124 102.155V109H120.448ZM141.334 105.025L143.024 107.406C141.555 108.597 139.673 109.317 137.705 109.317C133.912 109.317 130.216 106.629 130.216 101.262C130.216 96.1443 133.595 93.0336 137.743 93.0336C139.586 93.0336 141.507 93.6577 142.822 94.7426L141.353 97.2388C140.403 96.6052 139.231 96.2019 138.079 96.2019C135.554 96.2019 133.797 98.1893 133.797 101.175C133.797 104.123 135.525 106.139 138.041 106.139C139.202 106.139 140.383 105.707 141.334 105.025ZM157.511 107.166C156.09 108.51 153.987 109.317 151.789 109.317C147.651 109.317 144.31 106.494 144.31 101.271C144.31 96.1923 147.497 93.0336 151.568 93.0336C155.802 93.0336 158.394 96.4419 158.394 100.897C158.394 101.386 158.356 101.924 158.317 102.251H147.891C148.14 104.795 149.657 106.35 152.029 106.35C153.479 106.35 154.832 105.755 155.908 104.91L157.511 107.166ZM147.929 99.7831H154.928C154.736 97.6997 153.623 96.0291 151.549 96.0291C149.6 96.0291 148.227 97.5269 147.929 99.7831ZM161.688 104.843C162.878 105.697 164.145 106.35 165.634 106.35C166.91 106.35 168.101 105.841 168.101 104.632C168.101 101.588 160.631 103.508 160.631 97.8245C160.631 94.5314 163.118 93.0336 166.075 93.0336C168.063 93.0336 169.848 93.7249 171.183 94.8386L169.858 97.0852C168.811 96.3939 167.477 95.9235 166.354 95.9235C165.163 95.9235 164.117 96.4611 164.117 97.5845C164.117 100.599 171.644 98.8422 171.644 104.488C171.644 107.771 169.119 109.317 165.864 109.317C163.416 109.317 161.851 108.424 160.123 107.013L161.688 104.843Z" fill="white"/>
</svg>
