<svg width="200" height="472" viewBox="0 0 200 472" fill="none" xmlns="http://www.w3.org/2000/svg">
<circle cx="100" cy="372" r="100" fill="#E7A80D"/>
<path d="M58.1692 375.132L59.8301 377.792C57.9675 379.414 55.1544 380.317 52.6198 380.317C46.6864 380.317 42.3372 375.411 42.3372 368.968C42.3372 362.401 46.8304 357.428 52.7446 357.428C55.2601 357.428 57.9099 358.34 59.8013 359.992L58.1692 362.584C56.7194 361.451 54.828 360.769 53.0326 360.769C48.9618 360.769 46.1007 364.283 46.1007 368.882C46.1007 373.433 48.885 376.928 52.9654 376.928C54.828 376.928 56.7866 376.198 58.1692 375.132ZM68.569 380.317C64.3541 380.317 61.1186 377.033 61.1186 372.185C61.1186 367.327 64.3637 364.034 68.6074 364.034C72.8222 364.034 76.0769 367.279 76.0769 372.137C76.0769 377.005 72.7934 380.317 68.569 380.317ZM68.569 377.139C70.7676 377.139 72.4765 375.056 72.4765 372.156C72.4765 369.276 70.8156 367.24 68.5978 367.24C66.3703 367.24 64.6902 369.266 64.6902 372.175C64.6902 375.056 66.3511 377.139 68.569 377.139ZM92.2657 380H88.7038V370.706C88.7038 368.786 87.7725 367.279 85.8331 367.279C83.7209 367.279 82.5879 369.103 82.5879 371.244V380H79.0164V364.35H81.9255L82.2135 366.395C83.2408 364.83 84.969 364.034 86.9276 364.034C90.5663 364.034 92.2657 366.808 92.2657 370.485V380ZM94.4608 367.432V364.35H96.9571V359.54L100.509 358.868V364.35H103.975V367.432H100.509V373.692C100.509 376.457 101.681 376.947 103.611 377.369L103.188 380.317C100.125 380.317 96.9571 378.886 96.9571 374.767V367.432H94.4608ZM119.324 377.696L118.902 380.307C117.039 380.307 115.292 379.635 115.119 378.07C114.149 379.597 112.411 380.317 110.606 380.317C107.726 380.317 105.47 378.425 105.47 375.468C105.47 372.482 107.736 370.351 111.701 370.351C112.824 370.351 113.948 370.524 114.812 370.725V369.929C114.812 367.96 113.554 367.029 111.624 367.029C110.194 367.029 108.686 367.5 107.544 368.162L106.478 365.733C108.081 364.523 110.318 364.034 112.296 364.034C116.242 364.034 118.335 365.973 118.335 369.535V375.43C118.335 376.659 118.556 377.254 119.324 377.696ZM114.812 373.279C114.13 373.116 113.122 372.943 112.143 372.943C109.896 372.943 108.888 373.875 108.888 375.305C108.888 376.726 109.944 377.437 111.182 377.437C112.901 377.437 114.812 376.131 114.812 374.278V373.279ZM132.631 376.025L134.32 378.406C132.852 379.597 130.97 380.317 129.002 380.317C125.209 380.317 121.513 377.629 121.513 372.262C121.513 367.144 124.892 364.034 129.04 364.034C130.883 364.034 132.804 364.658 134.119 365.743L132.65 368.239C131.699 367.605 130.528 367.202 129.376 367.202C126.851 367.202 125.094 369.189 125.094 372.175C125.094 375.123 126.822 377.139 129.338 377.139C130.499 377.139 131.68 376.707 132.631 376.025ZM135.367 367.432V364.35H137.863V359.54L141.416 358.868V364.35H144.882V367.432H141.416V373.692C141.416 376.457 142.587 376.947 144.517 377.369L144.094 380.317C141.032 380.317 137.863 378.886 137.863 374.767V367.432H135.367ZM147.922 375.843C149.112 376.697 150.38 377.35 151.868 377.35C153.145 377.35 154.335 376.841 154.335 375.632C154.335 372.588 146.866 374.508 146.866 368.824C146.866 365.531 149.352 364.034 152.31 364.034C154.297 364.034 156.083 364.725 157.417 365.839L156.092 368.085C155.046 367.394 153.711 366.923 152.588 366.923C151.397 366.923 150.351 367.461 150.351 368.584C150.351 371.599 157.878 369.842 157.878 375.488C157.878 378.771 155.353 380.317 152.098 380.317C149.65 380.317 148.085 379.424 146.357 378.013L147.922 375.843Z" fill="#203E54"/>
<circle cx="100" cy="100" r="100" fill="#B7D63D"/>
<path d="M61.4995 67.745L66.3575 84.2586L71.2348 67.745H75.0176L67.9129 90H64.6198L57.5535 67.745H61.4995ZM82.0221 90.3168C77.8073 90.3168 74.5717 87.0333 74.5717 82.1848C74.5717 77.3267 77.8169 74.0336 82.0605 74.0336C86.2753 74.0336 89.53 77.2787 89.53 82.1368C89.53 87.0045 86.2465 90.3168 82.0221 90.3168ZM82.0221 87.1389C84.2207 87.1389 85.9297 85.0555 85.9297 82.156C85.9297 79.2757 84.2687 77.2403 82.0509 77.2403C79.8235 77.2403 78.1433 79.2661 78.1433 82.1752C78.1433 85.0555 79.8043 87.1389 82.0221 87.1389ZM90.8827 77.4323V74.3504H93.379V69.5404L96.9313 68.8683V74.3504H100.397V77.4323H96.9313V83.6922C96.9313 86.4572 98.1026 86.9469 100.032 87.3693L99.61 90.3168C96.5473 90.3168 93.379 88.8863 93.379 84.7675V77.4323H90.8827ZM104.743 71.6142C103.514 71.6142 102.506 70.5965 102.506 69.3387C102.506 68.0906 103.514 67.0729 104.743 67.0729C105.972 67.0729 106.971 68.0906 106.971 69.3387C106.971 70.5965 105.972 71.6142 104.743 71.6142ZM102.957 90V74.3504H106.519V90H102.957ZM123.563 90H120.001V80.7063C120.001 78.7861 119.069 77.2787 117.13 77.2787C115.018 77.2787 113.885 79.1029 113.885 81.2439V90H110.313V74.3504H113.222L113.51 76.3954C114.538 74.8305 116.266 74.0336 118.224 74.0336C121.863 74.0336 123.563 76.8083 123.563 80.4854V90ZM140.956 74.3504V89.2127C140.956 94.1476 137.884 96.8935 133.486 96.8935C131.086 96.8935 128.916 96.0678 127.275 94.5413L128.926 92.237C130.078 93.1683 131.595 93.7444 133.141 93.7444C135.608 93.7444 137.394 92.2946 137.394 88.7231V87.7726L137.375 87.763C136.396 89.1839 134.677 89.8656 132.882 89.8656C128.83 89.8656 126.42 86.4668 126.42 82.0312C126.42 77.0867 129.329 74.0336 133.064 74.0336C134.984 74.0336 136.78 74.8305 137.73 76.4722L138.009 74.3504H140.956ZM133.765 86.7261C136.165 86.7261 137.461 84.6139 137.461 81.9352C137.461 79.3525 136.194 77.2211 133.803 77.2211C131.461 77.2211 129.992 79.2181 129.992 82.0024C129.992 84.7675 131.441 86.7261 133.765 86.7261ZM80.867 105.745V109.057H74.7416V128H71.026V109.057H64.9006V105.745H80.867ZM92.7454 126.166C91.3244 127.51 89.2218 128.317 87.0232 128.317C82.8852 128.317 79.5441 125.494 79.5441 120.271C79.5441 115.192 82.7316 112.034 86.8024 112.034C91.0364 112.034 93.6287 115.442 93.6287 119.897C93.6287 120.386 93.5903 120.924 93.5519 121.251H83.1252C83.3748 123.795 84.8918 125.35 87.2632 125.35C88.713 125.35 90.0667 124.755 91.142 123.91L92.7454 126.166ZM83.1636 118.783H90.1627C89.9707 116.7 88.857 115.029 86.7832 115.029C84.8342 115.029 83.4612 116.527 83.1636 118.783ZM109.23 125.696L108.808 128.307C106.945 128.307 105.198 127.635 105.025 126.07C104.055 127.597 102.318 128.317 100.513 128.317C97.6324 128.317 95.3761 126.425 95.3761 123.468C95.3761 120.482 97.642 118.351 101.607 118.351C102.73 118.351 103.854 118.524 104.718 118.725V117.929C104.718 115.96 103.46 115.029 101.53 115.029C100.1 115.029 98.5925 115.5 97.4499 116.162L96.3842 113.733C97.9876 112.523 100.225 112.034 102.202 112.034C106.148 112.034 108.241 113.973 108.241 117.535V123.43C108.241 124.659 108.462 125.254 109.23 125.696ZM104.718 121.279C104.036 121.116 103.028 120.943 102.049 120.943C99.8022 120.943 98.7941 121.875 98.7941 123.305C98.7941 124.726 99.8502 125.437 101.089 125.437C102.807 125.437 104.718 124.131 104.718 122.278V121.279ZM115.807 128H112.235V112.35H115.144L115.423 114.395C116.306 112.878 117.996 112.034 119.781 112.034C121.586 112.034 123.219 112.898 124.073 114.511C125.062 112.85 126.867 112.034 128.835 112.034C132.484 112.034 133.895 114.827 133.895 118.485V128H130.323V118.706C130.323 116.805 129.642 115.288 127.779 115.279C125.676 115.26 124.832 117.161 124.832 119.234V128H121.289V118.706C121.289 116.824 120.607 115.279 118.745 115.279C116.68 115.279 115.807 117.189 115.807 119.234V128Z" fill="#203E54"/>
</svg>
