<svg width="600" height="600" viewBox="0 0 600 600" fill="none" xmlns="http://www.w3.org/2000/svg">
<rect width="600" height="600" rx="2" fill="white"/>
<rect x="0.5" y="0.5" width="599" height="599" rx="1.5" stroke="black" stroke-opacity="0.1"/>
<circle cx="162.5" cy="148.5" r="61.5" fill="#E7A80D"/>
<circle cx="162.5" cy="67.5" r="27.5" fill="#3DC4D6"/>
<circle cx="107.5" cy="88.5" r="27.5" fill="#D3DD48"/>
<circle cx="219.5" cy="88.5" r="27.5" fill="#3DD6CD"/>
<circle cx="241.5" cy="148.5" r="27.5" fill="#3DD6B1"/>
<ellipse cx="219.5" cy="204" rx="27.5" ry="28" fill="#3DD696"/>
<circle cx="81.5" cy="148.5" r="27.5" fill="#B7D63D"/>
<circle cx="162.5" cy="227.5" r="27.5" fill="#3DD67A"/>
<circle cx="103.5" cy="202.5" r="27.5" fill="#52D63D"/>
<path d="M427 97L462.507 117.5V158.5L427 179L391.493 158.5V117.5L427 97Z" fill="#3DC4D6"/>
<path d="M388 32L423.507 52.5V93.5L388 114L352.493 93.5V52.5L388 32Z" fill="#D0006F"/>
<path d="M466 32L501.507 52.5V93.5L466 114L430.493 93.5V52.5L466 32Z" fill="#E7A80D"/>
<path d="M505 97L540.507 117.5V158.5L505 179L469.493 158.5V117.5L505 97Z" fill="#D0006F"/>
<path d="M466 163L501.507 183.75V225.25L466 246L430.493 225.25V183.75L466 163Z" fill="#E7A80D"/>
<path d="M389 163L424.507 183.75V225.25L389 246L353.493 225.25V183.75L389 163Z" fill="#D0006F"/>
<path d="M350 97L385.507 117.5V158.5L350 179L314.493 158.5V117.5L350 97Z" fill="#E7A80D"/>
<circle cx="157.5" cy="438.5" r="68.5" fill="#3DC4D6"/>
<circle cx="157" cy="353" r="30" fill="#E7A80D" fill-opacity="0.5"/>
<circle cx="241" cy="441" r="30" fill="#E7A80D" fill-opacity="0.5"/>
<circle cx="157" cy="520" r="30" fill="#E7A80D" fill-opacity="0.5"/>
<circle cx="74" cy="441" r="30" fill="#E7A80D" fill-opacity="0.5"/>
<circle cx="101" cy="384" r="35" fill="#D0006F" fill-opacity="0.5"/>
<circle cx="97" cy="498" r="35" fill="#D0006F" fill-opacity="0.5"/>
<circle cx="214" cy="381" r="35" fill="#D0006F" fill-opacity="0.5"/>
<circle cx="214" cy="498" r="35" fill="#D0006F" fill-opacity="0.5"/>
<path d="M142.286 438.321H137.236V435.287H146.136C146.136 443.054 142.756 447.317 136.813 447.317C130.294 447.317 126.55 442.123 126.55 436.045C126.55 429.401 130.976 424.428 136.929 424.428C139.473 424.428 142.123 425.34 144.014 426.992L142.372 429.584C140.99 428.48 139.089 427.769 137.245 427.769C133.088 427.769 130.323 431.341 130.323 435.93C130.323 440.231 132.8 444.005 136.775 444.005C139.828 444.005 142.161 441.767 142.286 438.321ZM163.786 438.321H158.736V435.287H167.636C167.636 443.054 164.256 447.317 158.313 447.317C151.794 447.317 148.05 442.123 148.05 436.045C148.05 429.401 152.476 424.428 158.429 424.428C160.973 424.428 163.623 425.34 165.514 426.992L163.872 429.584C162.49 428.48 160.589 427.769 158.745 427.769C154.588 427.769 151.823 431.341 151.823 435.93C151.823 440.231 154.3 444.005 158.275 444.005C161.328 444.005 163.661 441.767 163.786 438.321ZM185.372 442.132L187.033 444.792C185.171 446.414 182.358 447.317 179.823 447.317C173.89 447.317 169.54 442.411 169.54 435.968C169.54 429.401 174.034 424.428 179.948 424.428C182.463 424.428 185.113 425.34 187.004 426.992L185.372 429.584C183.923 428.451 182.031 427.769 180.236 427.769C176.165 427.769 173.304 431.283 173.304 435.882C173.304 440.433 176.088 443.928 180.169 443.928C182.031 443.928 183.99 443.198 185.372 442.132Z" fill="black"/>
<path d="M151.339 148.491H147.552V146.215H154.227C154.227 152.041 151.692 155.238 147.235 155.238C142.346 155.238 139.537 151.342 139.537 146.784C139.537 141.801 142.857 138.071 147.321 138.071C149.23 138.071 151.217 138.755 152.636 139.994L151.404 141.938C150.367 141.11 148.942 140.577 147.559 140.577C144.441 140.577 142.367 143.256 142.367 146.698C142.367 149.923 144.225 152.753 147.206 152.753C149.496 152.753 151.246 151.076 151.339 148.491ZM167.464 148.491H163.677V146.215H170.352C170.352 152.041 167.817 155.238 163.36 155.238C158.471 155.238 155.662 151.342 155.662 146.784C155.662 141.801 158.982 138.071 163.446 138.071C165.355 138.071 167.342 138.755 168.761 139.994L167.529 141.938C166.492 141.11 165.067 140.577 163.684 140.577C160.566 140.577 158.492 143.256 158.492 146.698C158.492 149.923 160.35 152.753 163.331 152.753C165.621 152.753 167.371 151.076 167.464 148.491ZM183.654 151.349L184.9 153.344C183.503 154.561 181.393 155.238 179.492 155.238C175.042 155.238 171.78 151.558 171.78 146.726C171.78 141.801 175.15 138.071 179.586 138.071C181.472 138.071 183.46 138.755 184.878 139.994L183.654 141.938C182.567 141.088 181.148 140.577 179.802 140.577C176.749 140.577 174.603 143.212 174.603 146.662C174.603 150.075 176.691 152.696 179.751 152.696C181.148 152.696 182.617 152.149 183.654 151.349Z" fill="black"/>
<ellipse cx="441" cy="442" rx="60" ry="61" fill="#E7A80D"/>
<ellipse cx="441" cy="362.5" rx="35" ry="35.5" fill="#3DC4D6" fill-opacity="0.5"/>
<ellipse cx="386" cy="387" rx="35" ry="36" fill="#D3DD48" fill-opacity="0.5"/>
<ellipse cx="496" cy="387" rx="35" ry="36" fill="#3DD6CD" fill-opacity="0.5"/>
<ellipse cx="520" cy="441" rx="35" ry="36" fill="#3DD6B1" fill-opacity="0.5"/>
<ellipse cx="498" cy="498" rx="35" ry="36" fill="#3DD696" fill-opacity="0.5"/>
<ellipse cx="363" cy="441" rx="35" ry="36" fill="#B7D63D" fill-opacity="0.5"/>
<ellipse cx="441" cy="522.5" rx="35" ry="35.5" fill="#3DD67A" fill-opacity="0.5"/>
<ellipse cx="386" cy="498" rx="35" ry="36" fill="#52D63D" fill-opacity="0.5"/>
<path d="M416.339 138.491H412.552V136.215H419.227C419.227 142.041 416.692 145.238 412.235 145.238C407.346 145.238 404.537 141.342 404.537 136.784C404.537 131.801 407.857 128.071 412.321 128.071C414.23 128.071 416.217 128.755 417.636 129.994L416.404 131.938C415.367 131.11 413.942 130.577 412.559 130.577C409.441 130.577 407.367 133.256 407.367 136.698C407.367 139.923 409.225 142.753 412.206 142.753C414.496 142.753 416.246 141.076 416.339 138.491ZM432.464 138.491H428.677V136.215H435.352C435.352 142.041 432.817 145.238 428.36 145.238C423.471 145.238 420.662 141.342 420.662 136.784C420.662 131.801 423.982 128.071 428.446 128.071C430.355 128.071 432.342 128.755 433.761 129.994L432.529 131.938C431.492 131.11 430.067 130.577 428.684 130.577C425.566 130.577 423.492 133.256 423.492 136.698C423.492 139.923 425.35 142.753 428.331 142.753C430.621 142.753 432.371 141.076 432.464 138.491ZM448.654 141.349L449.9 143.344C448.503 144.561 446.393 145.238 444.492 145.238C440.042 145.238 436.78 141.558 436.78 136.726C436.78 131.801 440.15 128.071 444.586 128.071C446.472 128.071 448.46 128.755 449.878 129.994L448.654 131.938C447.567 131.088 446.148 130.577 444.802 130.577C441.749 130.577 439.603 133.212 439.603 136.662C439.603 140.075 441.691 142.696 444.751 142.696C446.148 142.696 447.617 142.149 448.654 141.349Z" fill="black"/>
<path d="M429.839 446.491H426.052V444.215H432.727C432.727 450.041 430.192 453.238 425.735 453.238C420.846 453.238 418.037 449.342 418.037 444.784C418.037 439.801 421.357 436.071 425.821 436.071C427.73 436.071 429.717 436.755 431.136 437.994L429.904 439.938C428.867 439.11 427.442 438.577 426.059 438.577C422.941 438.577 420.867 441.256 420.867 444.698C420.867 447.923 422.725 450.753 425.706 450.753C427.996 450.753 429.746 449.076 429.839 446.491ZM445.964 446.491H442.177V444.215H448.852C448.852 450.041 446.317 453.238 441.86 453.238C436.971 453.238 434.162 449.342 434.162 444.784C434.162 439.801 437.482 436.071 441.946 436.071C443.855 436.071 445.842 436.755 447.261 437.994L446.029 439.938C444.992 439.11 443.567 438.577 442.184 438.577C439.066 438.577 436.992 441.256 436.992 444.698C436.992 447.923 438.85 450.753 441.831 450.753C444.121 450.753 445.871 449.076 445.964 446.491ZM462.154 449.349L463.4 451.344C462.003 452.561 459.893 453.238 457.992 453.238C453.542 453.238 450.28 449.558 450.28 444.726C450.28 439.801 453.65 436.071 458.086 436.071C459.972 436.071 461.96 436.755 463.378 437.994L462.154 439.938C461.067 439.088 459.648 438.577 458.302 438.577C455.249 438.577 453.103 441.212 453.103 444.662C453.103 448.075 455.191 450.696 458.251 450.696C459.648 450.696 461.117 450.149 462.154 449.349Z" fill="black"/>
</svg>
